{"glyphs":{"0":{"ha":942,"x_min":64,"x_max":922,"o":"m 415 -17 q 228 27 307 -17 q 107 153 150 71 q 64 351 64 236 q 101 599 64 483 q 204 802 138 714 q 365 940 271 890 q 571 989 458 989 q 758 945 679 989 q 879 819 836 901 q 922 621 922 738 q 885 374 922 489 q 782 170 849 258 q 622 33 715 82 q 415 -17 529 -17 m 436 174 q 549 216 500 174 q 630 326 597 258 q 679 471 663 394 q 696 615 696 547 q 657 755 696 711 q 550 799 618 799 q 438 756 486 799 q 356 646 389 714 q 307 501 324 578 q 290 357 290 425 q 330 218 290 263 q 436 174 369 174 z "},"1":{"ha":544,"x_min":93,"x_max":549,"o":"m 129 0 l 306 883 l 385 792 l 93 792 l 129 972 l 549 972 l 354 0 l 129 0 z "},"2":{"ha":819,"x_min":-29,"x_max":817,"o":"m -29 0 l 0 146 l 443 493 q 530 571 499 538 q 574 634 561 604 q 586 696 586 664 q 550 774 586 744 q 443 803 514 803 q 331 776 385 803 q 236 701 278 750 l 85 811 q 247 940 144 892 q 476 989 350 989 q 656 955 579 989 q 774 863 732 921 q 817 728 817 804 q 796 617 817 671 q 727 506 775 563 q 593 383 679 450 l 229 101 l 193 183 l 743 183 l 707 0 l -29 0 z "},"3":{"ha":822,"x_min":-47,"x_max":847,"o":"m 308 -17 q 108 13 201 -17 q -47 96 15 42 l 61 261 q 177 196 108 219 q 324 172 246 172 q 437 189 390 172 q 508 238 483 206 q 532 313 532 269 q 492 391 532 365 q 372 417 453 417 l 269 417 l 299 565 l 626 872 l 642 792 l 129 792 l 167 972 l 847 972 l 819 826 l 492 519 l 386 583 l 436 583 q 610 552 538 583 q 721 463 682 521 q 760 326 760 406 q 702 150 760 228 q 542 28 644 72 q 308 -17 440 -17 z "},"4":{"ha":957,"x_min":10,"x_max":949,"o":"m 10 204 l 39 356 l 611 972 l 857 972 l 294 356 l 181 388 l 949 388 l 911 204 l 10 204 m 492 0 l 533 204 l 579 388 l 615 569 l 825 569 l 711 0 l 492 0 z "},"5":{"ha":826,"x_min":-29,"x_max":850,"o":"m 328 -17 q 127 13 219 -17 q -29 96 35 42 l 79 261 q 195 196 126 219 q 342 172 264 172 q 496 210 442 172 q 550 314 550 247 q 507 395 550 365 q 361 425 464 425 l 97 425 l 256 972 l 850 972 l 813 792 l 300 792 l 439 894 l 325 504 l 228 607 l 414 607 q 687 536 596 607 q 778 340 778 465 q 720 151 778 232 q 561 27 663 71 q 328 -17 460 -17 z "},"6":{"ha":885,"x_min":64,"x_max":919,"o":"m 457 -17 q 253 28 343 -17 q 114 163 164 74 q 64 382 64 251 q 85 549 64 464 q 150 714 106 635 q 263 855 194 793 q 428 953 332 917 q 649 989 524 989 q 801 972 728 989 q 919 924 874 956 l 818 758 q 733 795 779 785 q 635 806 686 806 q 520 788 571 806 q 431 740 469 771 q 365 667 392 708 q 322 577 338 625 q 303 478 307 529 q 299 423 300 443 q 296 386 297 403 l 231 417 q 306 528 261 486 q 408 590 350 571 q 535 610 467 610 q 688 577 617 610 q 802 482 758 544 q 846 329 846 419 q 795 146 846 224 q 657 26 744 68 q 457 -17 569 -17 m 454 151 q 575 193 526 151 q 624 310 624 235 q 581 407 624 372 q 469 442 539 442 q 378 422 417 442 q 317 368 339 403 q 294 289 294 333 q 313 222 294 253 q 367 171 331 190 q 454 151 403 151 z "},"7":{"ha":861,"x_min":88,"x_max":935,"o":"m 136 0 l 696 886 l 743 789 l 219 789 l 340 894 l 288 631 l 88 631 l 156 972 l 935 972 l 906 826 l 386 0 l 136 0 z "},"8":{"ha":917,"x_min":31,"x_max":900,"o":"m 425 -17 q 216 17 304 -17 q 79 113 128 51 q 31 257 31 175 q 83 424 31 356 q 230 529 135 493 q 453 565 325 565 q 663 533 575 565 q 800 442 751 501 q 849 303 849 383 q 794 133 849 204 q 645 22 740 61 q 425 -17 550 -17 m 429 149 q 569 190 517 149 q 621 301 621 231 q 575 394 621 360 q 449 428 529 428 q 310 388 363 428 q 257 278 257 347 q 304 183 257 218 q 429 149 351 149 m 514 450 q 320 479 401 450 q 194 563 239 508 q 150 692 150 618 q 199 851 150 785 q 337 953 249 917 q 538 989 425 989 q 727 958 646 989 q 854 869 808 926 q 900 736 900 813 q 852 581 900 644 q 717 483 804 517 q 514 450 631 450 m 517 582 q 633 617 589 582 q 676 713 676 653 q 637 794 676 765 q 533 824 597 824 q 418 788 463 824 q 374 690 374 753 q 412 611 374 640 q 517 582 450 582 z "},"9":{"ha":885,"x_min":11,"x_max":867,"o":"m 475 989 q 678 944 590 989 q 817 810 767 899 q 867 590 867 722 q 846 423 867 508 q 781 258 825 338 q 667 117 736 179 q 503 19 599 56 q 283 -17 407 -17 q 131 0 204 -17 q 11 49 57 17 l 114 214 q 199 177 153 188 q 296 167 244 167 q 411 184 360 167 q 501 233 463 201 q 566 306 539 264 q 608 395 593 347 q 629 494 624 443 q 633 549 632 529 q 635 586 633 569 l 700 556 q 626 444 671 488 q 524 382 581 401 q 403 363 467 363 q 246 395 318 363 q 129 490 174 428 q 85 643 85 553 q 135 827 85 750 q 274 947 186 904 q 475 989 363 989 m 478 821 q 357 779 406 821 q 308 663 308 738 q 351 566 308 601 q 461 531 393 531 q 553 550 514 531 q 615 604 593 569 q 638 683 638 639 q 619 751 638 719 q 565 801 600 782 q 478 821 529 821 z "},"A":{"ha":1064,"x_min":-87,"x_max":1003,"o":"m -87 0 l 540 972 l 764 972 l 1003 0 l 778 0 l 589 861 l 678 861 l 153 0 l -87 0 m 172 208 l 264 379 l 765 379 l 792 208 l 172 208 z "},"Á":{"ha":1064,"x_min":-87,"x_max":1003,"o":"m -87 0 l 540 972 l 764 972 l 1003 0 l 778 0 l 589 861 l 678 861 l 153 0 l -87 0 m 172 208 l 264 379 l 765 379 l 792 208 l 172 208 m 538 1051 l 746 1251 l 985 1251 l 713 1051 l 538 1051 z "},"Ă":{"ha":1064,"x_min":-87,"x_max":1003,"o":"m -87 0 l 540 972 l 764 972 l 1003 0 l 778 0 l 589 861 l 678 861 l 153 0 l -87 0 m 172 208 l 264 379 l 765 379 l 792 208 l 172 208 m 686 1054 q 562 1080 617 1054 q 479 1153 507 1106 q 456 1265 451 1201 l 589 1265 q 617 1193 588 1219 q 699 1167 647 1167 q 785 1193 750 1167 q 828 1265 819 1219 l 968 1265 q 873 1111 950 1168 q 686 1054 796 1054 z "},"Ắ":{"ha":1064,"x_min":-87,"x_max":1003,"o":"m -87 0 l 540 972 l 764 972 l 1003 0 l 778 0 l 589 861 l 678 861 l 153 0 l -87 0 m 172 208 l 264 379 l 765 379 l 792 208 l 172 208 m 683 1051 q 508 1097 574 1051 q 443 1221 442 1143 l 569 1221 q 605 1171 572 1189 q 690 1153 638 1153 q 778 1171 744 1153 q 821 1221 813 1189 l 956 1221 q 865 1097 939 1142 q 683 1051 790 1051 m 585 1251 l 757 1419 l 983 1419 l 747 1251 l 585 1251 z "},"Ặ":{"ha":1064,"x_min":-87,"x_max":1003,"o":"m -87 0 l 540 972 l 764 972 l 1003 0 l 778 0 l 589 861 l 678 861 l 153 0 l -87 0 m 172 208 l 264 379 l 765 379 l 792 208 l 172 208 m 411 -312 q 331 -283 361 -312 q 301 -210 301 -254 q 338 -115 301 -151 q 428 -78 375 -78 q 506 -107 476 -78 q 536 -182 536 -136 q 500 -276 536 -240 q 411 -312 464 -312 m 686 1054 q 562 1080 617 1054 q 479 1153 507 1106 q 456 1265 451 1201 l 589 1265 q 617 1193 588 1219 q 699 1167 647 1167 q 785 1193 750 1167 q 828 1265 819 1219 l 968 1265 q 873 1111 950 1168 q 686 1054 796 1054 z "},"Ằ":{"ha":1064,"x_min":-87,"x_max":1003,"o":"m -87 0 l 540 972 l 764 972 l 1003 0 l 778 0 l 589 861 l 678 861 l 153 0 l -87 0 m 172 208 l 264 379 l 765 379 l 792 208 l 172 208 m 685 1051 q 509 1097 575 1051 q 444 1221 443 1143 l 571 1221 q 606 1171 574 1189 q 692 1153 639 1153 q 780 1171 746 1153 q 822 1221 814 1189 l 957 1221 q 866 1097 940 1142 q 685 1051 792 1051 m 672 1251 l 488 1419 l 710 1419 l 829 1251 l 672 1251 z "},"Ẳ":{"ha":1064,"x_min":-87,"x_max":1003,"o":"m -87 0 l 540 972 l 764 972 l 1003 0 l 778 0 l 589 861 l 678 861 l 153 0 l -87 0 m 172 208 l 264 379 l 765 379 l 792 208 l 172 208 m 683 1051 q 508 1097 574 1051 q 443 1221 442 1143 l 569 1221 q 605 1171 572 1189 q 690 1153 638 1153 q 778 1171 744 1153 q 821 1221 813 1189 l 956 1221 q 865 1097 939 1142 q 683 1051 790 1051 m 708 1213 l 661 1264 q 709 1297 697 1279 q 721 1329 721 1314 q 710 1353 721 1344 q 681 1363 699 1363 q 615 1346 649 1363 l 589 1414 q 706 1443 643 1443 q 791 1417 760 1443 q 822 1347 822 1392 q 790 1266 822 1300 q 708 1213 757 1232 z "},"Ẵ":{"ha":1064,"x_min":-87,"x_max":1003,"o":"m -87 0 l 540 972 l 764 972 l 1003 0 l 778 0 l 589 861 l 678 861 l 153 0 l -87 0 m 172 208 l 264 379 l 765 379 l 792 208 l 172 208 m 683 1051 q 508 1097 574 1051 q 443 1221 442 1143 l 569 1221 q 605 1171 572 1189 q 690 1153 638 1153 q 778 1171 744 1153 q 821 1221 813 1189 l 956 1221 q 865 1097 939 1142 q 683 1051 790 1051 m 813 1278 q 734 1296 765 1278 q 679 1333 703 1314 q 631 1351 656 1351 q 585 1334 603 1351 q 560 1286 567 1317 l 449 1286 q 509 1413 461 1369 q 631 1457 557 1457 q 708 1439 678 1457 q 763 1402 739 1421 q 813 1383 788 1383 q 861 1402 843 1383 q 885 1447 879 1421 l 993 1447 q 935 1323 982 1368 q 813 1278 888 1278 z "},"Ǎ":{"ha":1064,"x_min":-87,"x_max":1003,"o":"m -87 0 l 540 972 l 764 972 l 1003 0 l 778 0 l 589 861 l 678 861 l 153 0 l -87 0 m 172 208 l 264 379 l 765 379 l 792 208 l 172 208 m 561 1051 l 406 1251 l 560 1251 l 731 1086 l 588 1086 l 801 1251 l 963 1251 l 753 1051 l 561 1051 z "},"Â":{"ha":1064,"x_min":-87,"x_max":1003,"o":"m -87 0 l 540 972 l 764 972 l 1003 0 l 778 0 l 589 861 l 678 861 l 153 0 l -87 0 m 172 208 l 264 379 l 765 379 l 792 208 l 172 208 m 397 1051 l 608 1251 l 799 1251 l 956 1051 l 801 1051 l 631 1218 l 774 1218 l 560 1051 l 397 1051 z "},"Ấ":{"ha":1064,"x_min":-87,"x_max":1233,"o":"m -87 0 l 540 972 l 764 972 l 1003 0 l 778 0 l 589 861 l 678 861 l 153 0 l -87 0 m 172 208 l 264 379 l 765 379 l 792 208 l 172 208 m 393 1051 l 601 1210 l 789 1210 l 951 1051 l 794 1051 l 625 1176 l 763 1176 l 556 1051 l 393 1051 m 835 1185 l 1007 1353 l 1233 1353 l 997 1185 l 835 1185 z "},"Ậ":{"ha":1064,"x_min":-87,"x_max":1003,"o":"m -87 0 l 540 972 l 764 972 l 1003 0 l 778 0 l 589 861 l 678 861 l 153 0 l -87 0 m 172 208 l 264 379 l 765 379 l 792 208 l 172 208 m 411 -311 q 331 -282 361 -311 q 301 -208 301 -253 q 338 -113 301 -150 q 428 -76 375 -76 q 506 -106 476 -76 q 536 -181 536 -135 q 500 -275 536 -239 q 411 -311 464 -311 m 397 1051 l 608 1251 l 799 1251 l 956 1051 l 801 1051 l 631 1218 l 774 1218 l 560 1051 l 397 1051 z "},"Ầ":{"ha":1064,"x_min":-87,"x_max":1074,"o":"m -87 0 l 540 972 l 764 972 l 1003 0 l 778 0 l 589 861 l 678 861 l 153 0 l -87 0 m 172 208 l 264 379 l 765 379 l 792 208 l 172 208 m 389 1051 l 597 1210 l 785 1210 l 947 1051 l 790 1051 l 621 1176 l 758 1176 l 551 1051 l 389 1051 m 917 1185 l 732 1353 l 954 1353 l 1074 1185 l 917 1185 z "},"Ẩ":{"ha":1064,"x_min":-87,"x_max":1035,"o":"m -87 0 l 540 972 l 764 972 l 1003 0 l 778 0 l 589 861 l 678 861 l 153 0 l -87 0 m 172 208 l 264 379 l 765 379 l 792 208 l 172 208 m 389 1051 l 597 1210 l 785 1210 l 947 1051 l 790 1051 l 621 1176 l 758 1176 l 551 1051 l 389 1051 m 921 1158 l 874 1210 q 922 1242 910 1225 q 933 1275 933 1260 q 922 1299 933 1290 q 893 1308 911 1308 q 828 1292 861 1308 l 801 1360 q 918 1389 856 1389 q 1003 1363 972 1389 q 1035 1293 1035 1338 q 1002 1212 1035 1246 q 921 1158 969 1178 z "},"Ẫ":{"ha":1064,"x_min":-87,"x_max":1003,"o":"m -87 0 l 540 972 l 764 972 l 1003 0 l 778 0 l 589 861 l 678 861 l 153 0 l -87 0 m 172 208 l 264 379 l 765 379 l 792 208 l 172 208 m 389 1051 l 597 1210 l 785 1210 l 947 1051 l 790 1051 l 621 1176 l 758 1176 l 551 1051 l 389 1051 m 818 1258 q 740 1276 771 1258 q 685 1313 708 1294 q 636 1332 661 1332 q 590 1315 608 1332 q 565 1267 572 1297 l 454 1267 q 515 1394 467 1350 q 636 1438 563 1438 q 714 1419 683 1438 q 769 1383 744 1401 q 818 1364 793 1364 q 867 1383 849 1364 q 890 1428 885 1401 l 999 1428 q 940 1303 988 1349 q 818 1258 893 1258 z "},"Ȁ":{"ha":1064,"x_min":-87,"x_max":1003,"o":"m -87 0 l 540 972 l 764 972 l 1003 0 l 778 0 l 589 861 l 678 861 l 153 0 l -87 0 m 172 208 l 264 379 l 765 379 l 792 208 l 172 208 m 733 1051 l 628 1251 l 822 1251 l 883 1051 l 733 1051 m 453 1051 l 347 1251 l 542 1251 l 603 1051 l 453 1051 z "},"Ä":{"ha":1064,"x_min":-87,"x_max":1003,"o":"m -87 0 l 540 972 l 764 972 l 1003 0 l 778 0 l 589 861 l 678 861 l 153 0 l -87 0 m 172 208 l 264 379 l 765 379 l 792 208 l 172 208 m 831 1058 q 766 1082 792 1058 q 740 1144 740 1106 q 771 1221 740 1192 q 843 1250 801 1250 q 907 1226 881 1250 q 933 1164 933 1203 q 902 1088 933 1117 q 831 1058 871 1058 m 549 1058 q 485 1082 511 1058 q 458 1144 458 1106 q 490 1221 458 1192 q 561 1250 521 1250 q 626 1226 600 1250 q 653 1164 653 1203 q 621 1088 653 1117 q 549 1058 589 1058 z "},"Ǟ":{"ha":1064,"x_min":-87,"x_max":1003,"o":"m -87 0 l 540 972 l 764 972 l 1003 0 l 778 0 l 589 861 l 678 861 l 153 0 l -87 0 m 172 208 l 264 379 l 765 379 l 792 208 l 172 208 m 818 1054 q 756 1076 781 1054 q 732 1136 732 1099 q 762 1209 732 1181 q 829 1238 792 1238 q 892 1215 868 1238 q 915 1153 915 1192 q 886 1081 915 1108 q 818 1054 857 1054 m 546 1054 q 484 1076 508 1054 q 460 1136 460 1099 q 490 1209 460 1181 q 558 1238 519 1238 q 620 1215 596 1238 q 644 1153 644 1192 q 615 1081 644 1108 q 546 1054 585 1054 m 463 1313 l 485 1428 l 999 1428 l 976 1313 l 463 1313 z "},"Ȧ":{"ha":1064,"x_min":-87,"x_max":1003,"o":"m -87 0 l 540 972 l 764 972 l 1003 0 l 778 0 l 589 861 l 678 861 l 153 0 l -87 0 m 172 208 l 264 379 l 765 379 l 792 208 l 172 208 m 683 1058 q 603 1088 633 1058 q 574 1161 574 1117 q 610 1256 574 1219 q 700 1293 647 1293 q 778 1264 749 1293 q 808 1189 808 1235 q 772 1094 808 1131 q 683 1058 736 1058 z "},"Ạ":{"ha":1064,"x_min":-87,"x_max":1003,"o":"m -87 0 l 540 972 l 764 972 l 1003 0 l 778 0 l 589 861 l 678 861 l 153 0 l -87 0 m 172 208 l 264 379 l 765 379 l 792 208 l 172 208 m 411 -312 q 331 -283 361 -312 q 301 -210 301 -254 q 338 -115 301 -151 q 428 -78 375 -78 q 506 -107 476 -78 q 536 -182 536 -136 q 500 -276 536 -240 q 411 -312 464 -312 z "},"Ǡ":{"ha":1064,"x_min":-87,"x_max":1003,"o":"m -87 0 l 540 972 l 764 972 l 1003 0 l 778 0 l 589 861 l 678 861 l 153 0 l -87 0 m 172 208 l 264 379 l 765 379 l 792 208 l 172 208 m 681 1050 q 617 1074 643 1050 q 592 1138 592 1097 q 622 1213 592 1183 q 694 1242 653 1242 q 758 1218 732 1242 q 785 1153 785 1194 q 753 1079 785 1108 q 681 1050 722 1050 m 461 1313 l 483 1428 l 997 1428 l 975 1313 l 461 1313 z "},"À":{"ha":1064,"x_min":-87,"x_max":1003,"o":"m -87 0 l 540 972 l 764 972 l 1003 0 l 778 0 l 589 861 l 678 861 l 153 0 l -87 0 m 172 208 l 264 379 l 765 379 l 792 208 l 172 208 m 625 1051 l 413 1251 l 646 1251 l 793 1051 l 625 1051 z "},"Ả":{"ha":1064,"x_min":-87,"x_max":1003,"o":"m -87 0 l 540 972 l 764 972 l 1003 0 l 778 0 l 589 861 l 678 861 l 153 0 l -87 0 m 172 208 l 264 379 l 765 379 l 792 208 l 172 208 m 671 1007 l 614 1081 q 679 1124 661 1101 q 697 1174 697 1147 q 682 1211 697 1197 q 639 1225 667 1225 q 556 1197 597 1225 l 518 1288 q 592 1322 551 1310 q 675 1333 633 1333 q 785 1298 744 1333 q 826 1203 826 1263 q 786 1089 826 1138 q 671 1007 746 1040 z "},"Ȃ":{"ha":1064,"x_min":-87,"x_max":1003,"o":"m -87 0 l 540 972 l 764 972 l 1003 0 l 778 0 l 589 861 l 678 861 l 153 0 l -87 0 m 172 208 l 264 379 l 765 379 l 792 208 l 172 208 m 411 1051 q 508 1207 431 1150 q 694 1264 585 1264 q 818 1238 765 1264 q 900 1164 871 1211 q 924 1051 929 1117 l 790 1051 q 763 1124 793 1097 q 682 1151 733 1151 q 596 1124 631 1151 q 551 1051 561 1097 l 411 1051 z "},"Ɑ":{"ha":1229,"x_min":72,"x_max":1235,"o":"m 506 -15 q 279 40 376 -15 q 127 194 182 94 q 72 422 72 293 q 117 643 72 540 q 240 824 161 746 q 424 945 319 901 q 649 989 528 989 q 885 925 792 989 q 1013 744 978 861 q 1015 464 1047 626 q 915 206 986 314 q 739 42 843 99 q 506 -15 635 -15 m 554 175 q 723 215 646 175 q 851 324 800 254 q 918 485 903 394 q 906 646 933 575 q 815 757 878 717 q 660 797 751 797 q 518 769 583 797 q 403 692 453 742 q 327 576 354 643 q 300 433 300 510 q 369 244 300 313 q 554 175 438 175 m 824 0 l 871 235 l 931 489 l 963 743 l 1008 972 l 1235 972 l 1040 0 l 824 0 z "},"Ā":{"ha":1064,"x_min":-87,"x_max":1003,"o":"m -87 0 l 540 972 l 764 972 l 1003 0 l 778 0 l 589 861 l 678 861 l 153 0 l -87 0 m 172 208 l 264 379 l 765 379 l 792 208 l 172 208 m 421 1090 l 443 1213 l 957 1213 l 933 1090 l 421 1090 z "},"Ą":{"ha":1064,"x_min":-87,"x_max":1003,"o":"m -87 0 l 540 972 l 764 972 l 1003 0 l 778 0 l 589 861 l 678 861 l 153 0 l -87 0 m 172 208 l 264 379 l 765 379 l 792 208 l 172 208 m 842 -322 q 715 -286 764 -322 q 667 -185 667 -250 q 699 -85 667 -131 q 788 -4 731 -40 q 924 60 846 32 l 1003 0 q 891 -49 933 -24 q 829 -101 849 -75 q 810 -154 810 -126 q 828 -197 810 -182 q 878 -212 847 -212 q 924 -206 901 -212 q 965 -192 947 -200 l 982 -290 q 919 -313 954 -304 q 842 -322 883 -322 z "},"Å":{"ha":1064,"x_min":-87,"x_max":1003,"o":"m -87 0 l 540 972 l 764 972 l 1003 0 l 778 0 l 589 861 l 678 861 l 153 0 l -87 0 m 172 208 l 264 379 l 765 379 l 792 208 l 172 208 m 696 1026 q 608 1049 647 1026 q 547 1110 569 1072 q 524 1194 524 1147 q 547 1278 524 1240 q 608 1340 569 1317 q 696 1363 647 1363 q 783 1340 744 1363 q 845 1278 822 1317 q 868 1194 868 1240 q 845 1110 868 1147 q 783 1049 822 1072 q 696 1026 744 1026 m 696 1110 q 756 1133 732 1110 q 779 1193 779 1157 q 756 1255 779 1231 q 696 1279 732 1279 q 637 1256 661 1279 q 613 1194 613 1232 q 636 1133 613 1157 q 696 1110 660 1110 z "},"Ǻ":{"ha":1064,"x_min":-87,"x_max":1003,"o":"m -87 0 l 540 972 l 764 972 l 1003 0 l 778 0 l 589 861 l 678 861 l 153 0 l -87 0 m 172 208 l 264 379 l 765 379 l 792 208 l 172 208 m 694 1026 q 607 1049 646 1026 q 545 1110 568 1072 q 522 1194 522 1147 q 545 1278 522 1240 q 608 1340 568 1317 q 694 1363 647 1363 q 783 1340 744 1363 q 845 1278 822 1317 q 868 1194 868 1240 q 845 1110 868 1147 q 783 1049 822 1072 q 694 1026 744 1026 m 694 1110 q 756 1133 732 1110 q 779 1193 779 1157 q 756 1255 779 1231 q 694 1279 732 1279 q 635 1256 660 1279 q 611 1194 611 1232 q 635 1133 611 1157 q 694 1110 658 1110 m 824 1267 l 721 1300 l 888 1474 l 994 1390 l 824 1267 z "},"Ḁ":{"ha":1064,"x_min":-87,"x_max":1003,"o":"m -87 0 l 540 972 l 764 972 l 1003 0 l 778 0 l 589 861 l 678 861 l 153 0 l -87 0 m 172 208 l 264 379 l 765 379 l 792 208 l 172 208 m 415 -381 q 328 -358 367 -381 q 266 -297 289 -335 q 243 -212 243 -260 q 266 -128 243 -167 q 328 -67 289 -90 q 415 -44 367 -44 q 503 -67 464 -44 q 565 -128 542 -90 q 588 -212 588 -167 q 565 -297 588 -260 q 503 -358 542 -335 q 415 -381 464 -381 m 415 -297 q 475 -274 451 -297 q 499 -214 499 -250 q 475 -152 499 -176 q 415 -128 451 -128 q 356 -151 381 -128 q 332 -212 332 -175 q 356 -274 332 -250 q 415 -297 379 -297 z "},"Ⱥ":{"ha":1047,"x_min":-87,"x_max":1088,"o":"m 228 -97 l 950 1069 l 1088 1069 l 367 -97 l 228 -97 m 168 219 l 253 371 l 764 371 l 789 219 l 168 219 m -87 0 l 542 972 l 744 972 l 986 0 l 776 0 l 585 871 l 667 871 l 128 0 l -87 0 z "},"Ã":{"ha":1064,"x_min":-87,"x_max":1003,"o":"m -87 0 l 540 972 l 764 972 l 1003 0 l 778 0 l 589 861 l 678 861 l 153 0 l -87 0 m 172 208 l 264 379 l 765 379 l 792 208 l 172 208 m 783 1047 q 720 1060 747 1047 q 672 1091 693 1074 q 631 1122 650 1108 q 590 1135 611 1135 q 542 1114 561 1135 q 515 1057 522 1093 l 406 1057 q 471 1208 422 1156 q 590 1260 519 1260 q 653 1247 626 1260 q 702 1215 681 1233 q 743 1184 724 1197 q 785 1171 763 1171 q 833 1192 814 1171 q 858 1246 853 1214 l 968 1246 q 904 1099 953 1151 q 783 1047 856 1047 z "},"Ɐ":{"ha":1064,"x_min":107,"x_max":1197,"o":"m 1197 972 l 568 0 l 346 0 l 107 972 l 332 972 l 521 111 l 432 111 l 957 972 l 1197 972 m 938 764 l 846 593 l 344 593 l 318 764 l 938 764 z "},"Æ":{"ha":1503,"x_min":-89,"x_max":1540,"o":"m -89 0 l 647 972 l 883 972 l 849 793 l 656 793 l 815 886 l 158 0 l -89 0 m 244 208 l 282 379 l 764 379 l 732 208 l 244 208 m 613 0 l 807 972 l 1540 972 l 1504 792 l 993 792 l 871 181 l 1401 181 l 1365 0 l 613 0 m 899 406 l 935 581 l 1403 581 l 1368 406 l 899 406 z "},"Ǽ":{"ha":1503,"x_min":-89,"x_max":1540,"o":"m -89 0 l 647 972 l 883 972 l 849 793 l 656 793 l 815 886 l 158 0 l -89 0 m 244 208 l 282 379 l 764 379 l 732 208 l 244 208 m 613 0 l 807 972 l 1540 972 l 1504 792 l 993 792 l 871 181 l 1401 181 l 1365 0 l 613 0 m 899 406 l 935 581 l 1403 581 l 1368 406 l 899 406 m 893 1051 l 1101 1251 l 1340 1251 l 1068 1051 l 893 1051 z "},"Ǣ":{"ha":1503,"x_min":-89,"x_max":1540,"o":"m -89 0 l 647 972 l 883 972 l 849 793 l 656 793 l 815 886 l 158 0 l -89 0 m 244 208 l 282 379 l 764 379 l 732 208 l 244 208 m 613 0 l 807 972 l 1540 972 l 1504 792 l 993 792 l 871 181 l 1401 181 l 1365 0 l 613 0 m 899 406 l 935 581 l 1403 581 l 1368 406 l 899 406 m 775 1090 l 797 1213 l 1311 1213 l 1288 1090 l 775 1090 z "},"B":{"ha":1063,"x_min":40,"x_max":1031,"o":"m 40 0 l 235 972 l 704 972 q 947 915 863 972 q 1031 750 1031 858 q 983 596 1031 658 q 856 501 935 533 q 683 469 776 469 l 719 525 q 915 469 842 525 q 988 307 988 413 q 931 135 988 204 q 776 33 875 67 q 550 0 678 0 l 40 0 m 299 169 l 564 169 q 710 205 657 169 q 764 310 764 240 q 724 387 764 364 q 618 410 685 410 l 321 410 l 354 574 l 607 574 q 708 589 665 574 q 772 635 750 604 q 794 711 794 667 q 757 781 794 760 q 651 803 719 803 l 424 803 l 299 169 z "},"Ḃ":{"ha":1063,"x_min":40,"x_max":1031,"o":"m 40 0 l 235 972 l 704 972 q 947 915 863 972 q 1031 750 1031 858 q 983 596 1031 658 q 856 501 935 533 q 683 469 776 469 l 719 525 q 915 469 842 525 q 988 307 988 413 q 931 135 988 204 q 776 33 875 67 q 550 0 678 0 l 40 0 m 299 169 l 564 169 q 710 205 657 169 q 764 310 764 240 q 724 387 764 364 q 618 410 685 410 l 321 410 l 354 574 l 607 574 q 708 589 665 574 q 772 635 750 604 q 794 711 794 667 q 757 781 794 760 q 651 803 719 803 l 424 803 l 299 169 m 678 1058 q 598 1088 628 1058 q 568 1161 568 1117 q 605 1256 568 1219 q 694 1293 642 1293 q 773 1264 743 1293 q 803 1189 803 1235 q 767 1094 803 1131 q 678 1058 731 1058 z "},"Ḅ":{"ha":1063,"x_min":40,"x_max":1031,"o":"m 40 0 l 235 972 l 704 972 q 947 915 863 972 q 1031 750 1031 858 q 983 596 1031 658 q 856 501 935 533 q 683 469 776 469 l 719 525 q 915 469 842 525 q 988 307 988 413 q 931 135 988 204 q 776 33 875 67 q 550 0 678 0 l 40 0 m 299 169 l 564 169 q 710 205 657 169 q 764 310 764 240 q 724 387 764 364 q 618 410 685 410 l 321 410 l 354 574 l 607 574 q 708 589 665 574 q 772 635 750 604 q 794 711 794 667 q 757 781 794 760 q 651 803 719 803 l 424 803 l 299 169 m 404 -311 q 324 -282 354 -311 q 294 -208 294 -253 q 331 -113 294 -150 q 421 -76 368 -76 q 499 -106 469 -76 q 529 -181 529 -135 q 493 -275 529 -239 q 404 -311 457 -311 z "},"Ꞵ":{"ha":1063,"x_min":-12,"x_max":1031,"o":"m 160 169 l 565 169 q 711 205 658 169 q 764 310 764 240 q 724 387 764 364 q 618 410 685 410 l 322 410 l 354 574 l 607 574 q 708 589 665 574 q 773 635 750 604 q 796 711 796 667 q 758 781 796 760 q 653 803 721 803 l 425 803 l 211 -269 l -12 -269 l 236 972 l 704 972 q 947 915 864 972 q 1031 750 1031 858 q 983 596 1031 658 q 856 501 935 533 q 683 469 778 469 l 719 525 q 915 469 842 525 q 989 307 989 413 q 932 135 989 204 q 776 33 875 67 q 551 0 678 0 l 160 0 l 160 169 z "},"Ɓ":{"ha":1346,"x_min":96,"x_max":1314,"o":"m 150 486 q 99 656 103 571 q 131 814 96 742 q 237 929 167 886 q 407 972 307 972 l 529 972 l 493 789 l 415 789 q 336 757 365 789 q 306 677 307 725 q 333 581 304 629 l 150 486 m 325 0 l 519 972 l 989 972 q 1231 915 1147 972 q 1314 750 1314 858 q 1266 596 1314 658 q 1140 501 1218 533 q 967 469 1061 469 l 1004 525 q 1199 469 1126 525 q 1272 307 1272 413 q 1215 135 1272 204 q 1060 33 1158 67 q 835 0 961 0 l 325 0 m 582 169 l 849 169 q 994 205 942 169 q 1047 310 1047 240 q 1008 387 1047 364 q 901 410 969 410 l 606 410 l 638 574 l 892 574 q 992 589 950 574 q 1056 635 1033 604 q 1079 711 1079 667 q 1042 781 1079 760 q 936 803 1004 803 l 708 803 l 582 169 z "},"Ḇ":{"ha":1063,"x_min":40,"x_max":1031,"o":"m 40 0 l 235 972 l 704 972 q 947 915 863 972 q 1031 750 1031 858 q 983 596 1031 658 q 856 501 935 533 q 683 469 776 469 l 719 525 q 915 469 842 525 q 988 307 988 413 q 931 135 988 204 q 776 33 875 67 q 550 0 678 0 l 40 0 m 299 169 l 564 169 q 710 205 657 169 q 764 310 764 240 q 724 387 764 364 q 618 410 685 410 l 321 410 l 354 574 l 607 574 q 708 589 665 574 q 772 635 750 604 q 794 711 794 667 q 757 781 794 760 q 651 803 719 803 l 424 803 l 299 169 m 147 -247 l 169 -125 l 683 -125 l 660 -247 l 147 -247 z "},"Ƀ":{"ha":1092,"x_min":-10,"x_max":1072,"o":"m 69 0 l 264 972 l 739 972 q 936 938 861 972 q 1042 842 1011 903 q 1057 706 1072 781 q 993 577 1042 629 q 873 499 944 525 q 717 475 801 474 l 754 531 q 909 494 844 529 q 1002 399 974 460 q 1014 260 1031 339 q 876 67 989 135 q 572 0 764 0 l 69 0 m -10 225 l 18 364 l 225 364 l 267 356 l 542 356 l 518 233 l 243 233 l 197 225 l -10 225 m 325 167 l 589 167 q 728 198 675 167 q 793 292 781 229 q 767 390 806 357 q 640 422 728 422 l 361 422 l 392 576 l 632 576 q 763 603 714 576 q 824 689 813 631 q 797 774 835 746 q 676 803 760 803 l 453 803 l 325 167 z "},"Ƃ":{"ha":1063,"x_min":40,"x_max":1039,"o":"m 40 0 l 235 972 l 1039 972 l 1004 803 l 424 803 l 299 169 l 567 169 q 672 186 628 169 q 740 235 715 203 q 764 311 764 267 q 726 390 764 365 q 615 414 688 414 l 331 414 l 363 578 l 665 578 q 901 516 814 576 q 989 326 989 456 q 931 148 989 221 q 774 38 874 75 q 549 0 675 0 l 40 0 z "},"C":{"ha":1018,"x_min":71,"x_max":1057,"o":"m 551 -17 q 295 37 403 -17 q 129 185 188 90 q 71 406 71 281 q 115 636 71 529 q 238 822 158 743 q 428 944 318 900 q 675 989 539 989 q 906 944 806 989 q 1057 817 1006 900 l 894 683 q 799 768 857 739 q 660 797 740 797 q 511 769 578 797 q 397 688 444 740 q 324 567 349 636 q 299 419 299 497 q 331 291 299 346 q 424 206 363 236 q 571 175 485 175 q 711 202 646 175 q 829 288 776 229 l 963 151 q 781 23 886 63 q 551 -17 676 -17 z "},"Ć":{"ha":1018,"x_min":71,"x_max":1057,"o":"m 551 -17 q 295 37 403 -17 q 129 185 188 90 q 71 406 71 281 q 115 636 71 529 q 238 822 158 743 q 428 944 318 900 q 675 989 539 989 q 906 944 806 989 q 1057 817 1006 900 l 894 683 q 799 768 857 739 q 660 797 740 797 q 511 769 578 797 q 397 688 444 740 q 324 567 349 636 q 299 419 299 497 q 331 291 299 346 q 424 206 363 236 q 571 175 485 175 q 711 202 646 175 q 829 288 776 229 l 963 151 q 781 23 886 63 q 551 -17 676 -17 m 579 1051 l 788 1251 l 1026 1251 l 754 1051 l 579 1051 z "},"Ꞓ":{"ha":1104,"x_min":26,"x_max":1143,"o":"m 638 -17 q 381 37 489 -17 q 216 185 274 90 q 158 406 158 281 q 201 636 158 529 q 324 822 244 743 q 515 944 404 900 q 761 989 626 989 q 992 944 892 989 q 1143 817 1092 900 l 981 683 q 885 768 943 739 q 746 797 826 797 q 597 769 664 797 q 483 688 531 740 q 410 567 436 636 q 385 419 385 497 q 417 291 385 346 q 510 206 449 236 q 657 175 571 175 q 797 202 732 175 q 915 288 863 229 l 1049 151 q 868 23 972 63 q 638 -17 764 -17 m 26 421 l 56 572 l 618 572 l 589 421 l 26 421 z "},"Č":{"ha":1018,"x_min":71,"x_max":1057,"o":"m 551 -17 q 295 37 403 -17 q 129 185 188 90 q 71 406 71 281 q 115 636 71 529 q 238 822 158 743 q 428 944 318 900 q 675 989 539 989 q 906 944 806 989 q 1057 817 1006 900 l 894 683 q 799 768 857 739 q 660 797 740 797 q 511 769 578 797 q 397 688 444 740 q 324 567 349 636 q 299 419 299 497 q 331 291 299 346 q 424 206 363 236 q 571 175 485 175 q 711 202 646 175 q 829 288 776 229 l 963 151 q 781 23 886 63 q 551 -17 676 -17 m 603 1051 l 447 1251 l 601 1251 l 772 1086 l 629 1086 l 843 1251 l 1004 1251 l 794 1051 l 603 1051 z "},"Ç":{"ha":1018,"x_min":71,"x_max":1057,"o":"m 551 -17 q 295 37 403 -17 q 129 185 188 90 q 71 406 71 281 q 115 636 71 529 q 238 822 158 743 q 428 944 318 900 q 675 989 539 989 q 906 944 806 989 q 1057 817 1006 900 l 894 683 q 799 768 857 739 q 660 797 740 797 q 511 769 578 797 q 397 688 444 740 q 324 567 349 636 q 299 419 299 497 q 331 291 299 346 q 424 206 363 236 q 571 175 485 175 q 711 202 646 175 q 829 288 776 229 l 963 151 q 781 23 886 63 q 551 -17 676 -17 m 392 -322 q 319 -314 353 -322 q 260 -293 285 -306 l 308 -200 q 351 -215 328 -210 q 401 -221 375 -221 q 458 -208 440 -221 q 478 -175 476 -194 q 465 -146 479 -156 q 418 -136 451 -136 l 369 -136 l 436 11 l 551 11 l 517 -69 q 593 -106 568 -76 q 614 -176 618 -136 q 548 -283 608 -244 q 392 -322 488 -322 z "},"Ḉ":{"ha":1018,"x_min":71,"x_max":1057,"o":"m 551 -17 q 295 37 403 -17 q 129 185 188 90 q 71 406 71 281 q 115 636 71 529 q 238 822 158 743 q 428 944 318 900 q 675 989 539 989 q 906 944 806 989 q 1057 817 1006 900 l 894 683 q 799 768 857 739 q 660 797 740 797 q 511 769 578 797 q 397 688 444 740 q 324 567 349 636 q 299 419 299 497 q 331 291 299 346 q 424 206 363 236 q 571 175 485 175 q 711 202 646 175 q 829 288 776 229 l 963 151 q 781 23 886 63 q 551 -17 676 -17 m 392 -322 q 319 -314 353 -322 q 260 -293 285 -306 l 308 -200 q 351 -215 328 -210 q 401 -221 375 -221 q 458 -208 440 -221 q 478 -175 476 -194 q 465 -146 479 -156 q 418 -136 451 -136 l 369 -136 l 436 11 l 551 11 l 517 -69 q 593 -106 568 -76 q 614 -176 618 -136 q 548 -283 608 -244 q 392 -322 488 -322 m 579 1051 l 788 1251 l 1026 1251 l 754 1051 l 579 1051 z "},"Ĉ":{"ha":1018,"x_min":71,"x_max":1057,"o":"m 551 -17 q 295 37 403 -17 q 129 185 188 90 q 71 406 71 281 q 115 636 71 529 q 238 822 158 743 q 428 944 318 900 q 675 989 539 989 q 906 944 806 989 q 1057 817 1006 900 l 894 683 q 799 768 857 739 q 660 797 740 797 q 511 769 578 797 q 397 688 444 740 q 324 567 349 636 q 299 419 299 497 q 331 291 299 346 q 424 206 363 236 q 571 175 485 175 q 711 202 646 175 q 829 288 776 229 l 963 151 q 781 23 886 63 q 551 -17 676 -17 m 439 1051 l 650 1251 l 840 1251 l 997 1051 l 843 1051 l 672 1218 l 815 1218 l 601 1051 l 439 1051 z "},"Ċ":{"ha":1018,"x_min":71,"x_max":1057,"o":"m 551 -17 q 295 37 403 -17 q 129 185 188 90 q 71 406 71 281 q 115 636 71 529 q 238 822 158 743 q 428 944 318 900 q 675 989 539 989 q 906 944 806 989 q 1057 817 1006 900 l 894 683 q 799 768 857 739 q 660 797 740 797 q 511 769 578 797 q 397 688 444 740 q 324 567 349 636 q 299 419 299 497 q 331 291 299 346 q 424 206 363 236 q 571 175 485 175 q 711 202 646 175 q 829 288 776 229 l 963 151 q 781 23 886 63 q 551 -17 676 -17 m 725 1058 q 645 1088 675 1058 q 615 1161 615 1117 q 652 1256 615 1219 q 742 1293 689 1293 q 820 1264 790 1293 q 850 1189 850 1235 q 814 1094 850 1131 q 725 1058 778 1058 z "},"Ꭓ":{"ha":850,"x_min":-197,"x_max":1010,"o":"m 904 -181 q 773 -262 840 -235 q 646 -285 706 -289 q 541 -243 586 -281 q 476 -135 496 -206 l 371 217 l 319 317 l 172 729 q 135 783 158 769 q 81 785 111 796 q 19 746 51 775 l -61 883 q 69 965 3 939 q 197 988 136 992 q 303 947 257 983 q 369 838 349 910 l 475 503 l 521 404 l 674 -26 q 710 -78 688 -65 q 763 -81 733 -92 q 822 -42 792 -71 l 904 -181 m -197 -269 l 346 449 l 378 435 l 751 975 l 1010 975 l 483 296 l 456 303 l 67 -269 l -197 -269 z "},"Ƈ":{"ha":1022,"x_min":75,"x_max":1278,"o":"m 554 -17 q 299 37 407 -17 q 133 185 190 90 q 75 406 75 281 q 118 636 75 529 q 241 822 161 743 q 432 944 321 900 q 678 989 543 989 q 908 944 808 989 q 1060 817 1008 900 l 897 683 q 801 768 860 739 q 664 797 743 797 q 514 769 581 797 q 400 688 447 740 q 327 567 353 636 q 301 419 301 497 q 333 291 301 346 q 426 206 365 236 q 574 175 488 175 q 714 202 649 175 q 833 288 779 229 l 965 151 q 785 23 889 63 q 554 -17 681 -17 m 874 817 l 896 939 q 944 1057 908 1007 q 1033 1135 981 1107 q 1149 1167 1086 1163 q 1278 1149 1213 1171 l 1224 992 q 1156 995 1188 1003 q 1104 962 1125 988 q 1075 894 1083 936 l 1060 817 l 874 817 z "},"Ȼ":{"ha":1018,"x_min":71,"x_max":1057,"o":"m 140 -97 l 908 1069 l 1049 1069 l 281 -97 l 140 -97 m 551 -17 q 295 37 403 -17 q 129 185 188 90 q 71 406 71 281 q 115 636 71 529 q 238 822 158 743 q 428 944 318 900 q 675 989 539 989 q 906 944 806 989 q 1057 817 1006 900 l 894 683 q 799 768 857 739 q 660 797 740 797 q 511 769 578 797 q 397 688 444 740 q 324 567 349 636 q 299 419 299 497 q 331 291 299 346 q 424 206 363 236 q 571 175 485 175 q 711 202 646 175 q 829 288 776 229 l 963 151 q 781 23 886 63 q 551 -17 676 -17 z "},"D":{"ha":1147,"x_min":40,"x_max":1121,"o":"m 40 0 l 235 972 l 642 972 q 899 923 792 972 q 1064 783 1007 874 q 1121 567 1121 692 q 1077 333 1121 438 q 953 155 1033 229 q 761 40 872 81 q 515 0 650 0 l 40 0 m 303 185 l 522 185 q 723 233 640 185 q 849 365 806 282 q 893 554 893 449 q 863 678 893 626 q 770 759 832 731 q 617 788 708 788 l 424 788 l 303 185 z "},"Ǳ":{"ha":2069,"x_min":40,"x_max":2140,"o":"m 40 0 l 235 972 l 642 972 q 899 923 792 972 q 1064 783 1007 874 q 1121 567 1121 692 q 1077 333 1121 438 q 953 155 1033 229 q 761 40 872 81 q 515 0 650 0 l 40 0 m 303 185 l 522 185 q 723 233 640 185 q 849 365 806 282 q 893 554 893 449 q 863 678 893 626 q 770 759 832 731 q 617 788 708 788 l 424 788 l 303 185 m 1114 0 l 1143 146 l 1882 871 l 1901 789 l 1286 789 l 1324 972 l 2140 972 l 2111 826 l 1374 101 l 1354 183 l 2001 183 l 1964 0 l 1114 0 z "},"Ǆ":{"ha":2013,"x_min":40,"x_max":2082,"o":"m 40 0 l 235 972 l 642 972 q 899 923 792 972 q 1064 783 1007 874 q 1121 567 1121 692 q 1077 333 1121 438 q 953 155 1033 229 q 761 40 872 81 q 515 0 650 0 l 40 0 m 303 185 l 522 185 q 723 233 640 185 q 849 365 806 282 q 893 554 893 449 q 863 678 893 626 q 770 759 832 731 q 617 788 708 788 l 424 788 l 303 185 m 1054 0 l 1083 146 l 1822 871 l 1842 789 l 1226 789 l 1264 972 l 2081 972 l 2051 826 l 1314 101 l 1294 183 l 1942 183 l 1904 0 l 1054 0 m 1585 1051 l 1429 1251 l 1583 1251 l 1754 1086 l 1611 1086 l 1825 1251 l 1986 1251 l 1776 1051 l 1585 1051 z "},"Ď":{"ha":1147,"x_min":40,"x_max":1121,"o":"m 40 0 l 235 972 l 642 972 q 899 923 792 972 q 1064 783 1007 874 q 1121 567 1121 692 q 1077 333 1121 438 q 953 155 1033 229 q 761 40 872 81 q 515 0 650 0 l 40 0 m 303 185 l 522 185 q 723 233 640 185 q 849 365 806 282 q 893 554 893 449 q 863 678 893 626 q 770 759 832 731 q 617 788 708 788 l 424 788 l 303 185 m 539 1050 l 383 1250 l 538 1250 l 708 1085 l 565 1085 l 779 1250 l 940 1250 l 731 1050 l 539 1050 z "},"Ḑ":{"ha":1147,"x_min":40,"x_max":1121,"o":"m 40 0 l 235 972 l 642 972 q 899 923 792 972 q 1064 783 1007 874 q 1121 567 1121 692 q 1077 333 1121 438 q 953 155 1033 229 q 761 40 872 81 q 515 0 650 0 l 40 0 m 303 185 l 522 185 q 723 233 640 185 q 849 365 806 282 q 893 554 893 449 q 863 678 893 626 q 770 759 832 731 q 617 788 708 788 l 424 788 l 303 185 m 292 -369 l 381 -192 l 394 -265 q 329 -246 351 -265 q 307 -196 307 -226 q 333 -128 307 -156 q 408 -101 358 -101 q 478 -123 456 -101 q 501 -175 501 -144 q 492 -218 501 -197 q 458 -274 483 -239 l 390 -369 l 292 -369 z "},"Ḓ":{"ha":1147,"x_min":40,"x_max":1121,"o":"m 40 0 l 235 972 l 642 972 q 899 923 792 972 q 1064 783 1007 874 q 1121 567 1121 692 q 1077 333 1121 438 q 953 155 1033 229 q 761 40 872 81 q 515 0 650 0 l 40 0 m 303 185 l 522 185 q 723 233 640 185 q 849 365 806 282 q 893 554 893 449 q 863 678 893 626 q 770 759 832 731 q 617 788 708 788 l 424 788 l 303 185 m 118 -287 l 329 -87 l 519 -87 l 676 -287 l 522 -287 l 351 -121 l 494 -121 l 281 -287 l 118 -287 z "},"Đ":{"ha":1165,"x_min":10,"x_max":1140,"o":"m 58 0 l 253 972 l 660 972 q 917 923 810 972 q 1082 783 1025 874 q 1139 567 1139 692 q 1095 333 1139 438 q 971 155 1051 229 q 779 40 890 81 q 533 0 668 0 l 58 0 m 321 185 l 540 185 q 741 233 658 185 q 867 365 824 282 q 911 554 911 449 q 881 678 911 626 q 788 759 850 731 q 635 788 726 788 l 442 788 l 321 185 m 10 419 l 39 569 l 640 569 l 610 419 l 10 419 z "},"Ḋ":{"ha":1147,"x_min":40,"x_max":1121,"o":"m 40 0 l 235 972 l 642 972 q 899 923 792 972 q 1064 783 1007 874 q 1121 567 1121 692 q 1077 333 1121 438 q 953 155 1033 229 q 761 40 872 81 q 515 0 650 0 l 40 0 m 303 185 l 522 185 q 723 233 640 185 q 849 365 806 282 q 893 554 893 449 q 863 678 893 626 q 770 759 832 731 q 617 788 708 788 l 424 788 l 303 185 m 663 1057 q 583 1086 613 1057 q 553 1160 553 1115 q 590 1255 553 1218 q 679 1292 626 1292 q 758 1263 728 1292 q 788 1188 788 1233 q 751 1093 788 1129 q 663 1057 715 1057 z "},"Ḍ":{"ha":1147,"x_min":40,"x_max":1121,"o":"m 40 0 l 235 972 l 642 972 q 899 923 792 972 q 1064 783 1007 874 q 1121 567 1121 692 q 1077 333 1121 438 q 953 155 1033 229 q 761 40 872 81 q 515 0 650 0 l 40 0 m 303 185 l 522 185 q 723 233 640 185 q 849 365 806 282 q 893 554 893 449 q 863 678 893 626 q 770 759 832 731 q 617 788 708 788 l 424 788 l 303 185 m 393 -311 q 313 -282 343 -311 q 283 -208 283 -253 q 320 -113 283 -150 q 410 -76 357 -76 q 488 -106 458 -76 q 518 -181 518 -135 q 482 -275 518 -239 q 393 -311 446 -311 z "},"Ɗ":{"ha":1432,"x_min":96,"x_max":1406,"o":"m 150 486 q 99 656 103 571 q 131 814 96 742 q 237 929 167 886 q 407 972 307 972 l 529 972 l 493 789 l 415 789 q 336 757 365 789 q 306 677 307 725 q 333 581 304 629 l 150 486 m 325 0 l 519 972 l 926 972 q 1184 923 1076 972 q 1349 783 1292 874 q 1406 567 1406 692 q 1362 333 1406 438 q 1238 155 1318 229 q 1046 40 1157 81 q 800 0 935 0 l 325 0 m 588 185 l 807 185 q 1007 233 924 185 q 1134 365 1090 282 q 1178 554 1178 449 q 1147 678 1178 626 q 1055 759 1117 731 q 901 788 993 788 l 708 788 l 588 185 z "},"Ḏ":{"ha":1147,"x_min":40,"x_max":1121,"o":"m 40 0 l 235 972 l 642 972 q 899 923 792 972 q 1064 783 1007 874 q 1121 567 1121 692 q 1077 333 1121 438 q 953 155 1033 229 q 761 40 872 81 q 515 0 650 0 l 40 0 m 303 185 l 522 185 q 723 233 640 185 q 849 365 806 282 q 893 554 893 449 q 863 678 893 626 q 770 759 832 731 q 617 788 708 788 l 424 788 l 303 185 m 136 -247 l 158 -125 l 672 -125 l 649 -247 l 136 -247 z "},"Ɖ":{"ha":1147,"x_min":-8,"x_max":1121,"o":"m 40 0 l 235 972 l 642 972 q 899 923 792 972 q 1064 783 1007 874 q 1121 567 1121 692 q 1077 333 1121 438 q 953 155 1033 229 q 761 40 872 81 q 515 0 650 0 l 40 0 m 303 185 l 522 185 q 723 233 640 185 q 849 365 806 282 q 893 554 893 449 q 863 678 893 626 q 770 759 832 731 q 617 788 708 788 l 424 788 l 303 185 m -8 419 l 21 569 l 622 569 l 592 419 l -8 419 z "},"Ƌ":{"ha":1053,"x_min":14,"x_max":1057,"o":"m 364 0 q 164 42 244 0 q 49 158 83 83 q 33 331 14 232 q 161 527 58 461 q 439 593 264 593 l 758 593 l 800 799 l 242 799 l 276 972 l 1057 972 l 863 0 l 364 0 m 410 169 l 674 169 l 726 429 l 460 429 q 322 401 369 429 q 261 317 274 374 q 288 211 249 253 q 410 169 328 169 z "},"ǲ":{"ha":1901,"x_min":40,"x_max":1924,"o":"m 40 0 l 235 972 l 642 972 q 899 923 792 972 q 1064 783 1007 874 q 1121 567 1121 692 q 1077 333 1121 438 q 953 155 1033 229 q 761 40 872 81 q 515 0 650 0 l 40 0 m 303 185 l 522 185 q 723 233 640 185 q 849 365 806 282 q 893 554 893 449 q 863 678 893 626 q 770 759 832 731 q 617 788 708 788 l 424 788 l 303 185 m 1121 0 l 1147 131 l 1682 653 l 1717 581 l 1249 581 l 1282 747 l 1924 747 l 1899 617 l 1364 94 l 1326 167 l 1821 167 l 1788 0 l 1121 0 z "},"ǅ":{"ha":1901,"x_min":40,"x_max":1932,"o":"m 40 0 l 235 972 l 642 972 q 899 923 792 972 q 1064 783 1007 874 q 1121 567 1121 692 q 1077 333 1121 438 q 953 155 1033 229 q 761 40 872 81 q 515 0 650 0 l 40 0 m 303 185 l 522 185 q 723 233 640 185 q 849 365 806 282 q 893 554 893 449 q 863 678 893 626 q 770 759 832 731 q 617 788 708 788 l 424 788 l 303 185 m 1121 0 l 1147 131 l 1682 653 l 1717 581 l 1249 581 l 1282 747 l 1924 747 l 1899 617 l 1364 94 l 1326 167 l 1821 167 l 1788 0 l 1121 0 m 1531 843 l 1375 1043 l 1529 1043 l 1700 878 l 1557 878 l 1771 1043 l 1932 1043 l 1722 843 l 1531 843 z "},"Ð":{"ha":1165,"x_min":10,"x_max":1140,"o":"m 58 0 l 253 972 l 660 972 q 917 923 810 972 q 1082 783 1025 874 q 1139 567 1139 692 q 1095 333 1139 438 q 971 155 1051 229 q 779 40 890 81 q 533 0 668 0 l 58 0 m 321 185 l 540 185 q 741 233 658 185 q 867 365 824 282 q 911 554 911 449 q 881 678 911 626 q 788 759 850 731 q 635 788 726 788 l 442 788 l 321 185 m 10 419 l 39 569 l 640 569 l 610 419 l 10 419 z "},"E":{"ha":932,"x_min":40,"x_max":969,"o":"m 364 581 l 832 581 l 797 406 l 329 406 l 364 581 m 300 181 l 831 181 l 793 0 l 40 0 l 235 972 l 969 972 l 932 792 l 422 792 l 300 181 z "},"É":{"ha":932,"x_min":40,"x_max":969,"o":"m 364 581 l 832 581 l 797 406 l 329 406 l 364 581 m 300 181 l 831 181 l 793 0 l 40 0 l 235 972 l 969 972 l 932 792 l 422 792 l 300 181 m 488 1051 l 696 1251 l 935 1251 l 663 1051 l 488 1051 z "},"Ĕ":{"ha":932,"x_min":40,"x_max":969,"o":"m 364 581 l 832 581 l 797 406 l 329 406 l 364 581 m 300 181 l 831 181 l 793 0 l 40 0 l 235 972 l 969 972 l 932 792 l 422 792 l 300 181 m 636 1054 q 512 1080 567 1054 q 429 1153 457 1106 q 406 1265 401 1201 l 539 1265 q 567 1193 538 1219 q 649 1167 597 1167 q 735 1193 700 1167 q 778 1265 769 1219 l 918 1265 q 823 1111 900 1168 q 636 1054 746 1054 z "},"Ě":{"ha":932,"x_min":40,"x_max":969,"o":"m 364 581 l 832 581 l 797 406 l 329 406 l 364 581 m 300 181 l 831 181 l 793 0 l 40 0 l 235 972 l 969 972 l 932 792 l 422 792 l 300 181 m 511 1051 l 356 1251 l 510 1251 l 681 1086 l 538 1086 l 751 1251 l 913 1251 l 703 1051 l 511 1051 z "},"Ȩ":{"ha":932,"x_min":40,"x_max":969,"o":"m 364 581 l 832 581 l 797 406 l 329 406 l 364 581 m 300 181 l 831 181 l 793 0 l 40 0 l 235 972 l 969 972 l 932 792 l 422 792 l 300 181 m 317 -322 q 244 -314 278 -322 q 185 -293 210 -306 l 233 -200 q 276 -215 253 -210 q 326 -221 300 -221 q 383 -208 365 -221 q 403 -175 401 -194 q 390 -146 404 -156 q 343 -136 376 -136 l 294 -136 l 361 11 l 476 11 l 442 -69 q 518 -106 493 -76 q 539 -176 543 -136 q 473 -283 533 -244 q 317 -322 413 -322 z "},"Ḝ":{"ha":932,"x_min":40,"x_max":969,"o":"m 364 581 l 832 581 l 797 406 l 329 406 l 364 581 m 300 181 l 831 181 l 793 0 l 40 0 l 235 972 l 969 972 l 932 792 l 422 792 l 300 181 m 317 -322 q 244 -314 278 -322 q 185 -293 210 -306 l 233 -200 q 276 -215 253 -210 q 326 -221 300 -221 q 383 -208 365 -221 q 403 -175 401 -194 q 390 -146 404 -156 q 343 -136 376 -136 l 294 -136 l 361 11 l 476 11 l 442 -69 q 518 -106 493 -76 q 539 -176 543 -136 q 473 -283 533 -244 q 317 -322 413 -322 m 636 1054 q 512 1080 567 1054 q 429 1153 457 1106 q 406 1265 401 1201 l 539 1265 q 567 1193 538 1219 q 649 1167 597 1167 q 735 1193 700 1167 q 778 1265 769 1219 l 918 1265 q 823 1111 900 1168 q 636 1054 746 1054 z "},"Ê":{"ha":932,"x_min":40,"x_max":969,"o":"m 364 581 l 832 581 l 797 406 l 329 406 l 364 581 m 300 181 l 831 181 l 793 0 l 40 0 l 235 972 l 969 972 l 932 792 l 422 792 l 300 181 m 347 1051 l 558 1251 l 749 1251 l 906 1051 l 751 1051 l 581 1218 l 724 1218 l 510 1051 l 347 1051 z "},"Ế":{"ha":932,"x_min":40,"x_max":1183,"o":"m 364 581 l 832 581 l 797 406 l 329 406 l 364 581 m 300 181 l 831 181 l 793 0 l 40 0 l 235 972 l 969 972 l 932 792 l 422 792 l 300 181 m 343 1051 l 551 1210 l 739 1210 l 901 1051 l 744 1051 l 575 1176 l 713 1176 l 506 1051 l 343 1051 m 785 1185 l 957 1353 l 1183 1353 l 947 1185 l 785 1185 z "},"Ḙ":{"ha":932,"x_min":40,"x_max":969,"o":"m 364 581 l 832 581 l 797 406 l 329 406 l 364 581 m 300 181 l 831 181 l 793 0 l 40 0 l 235 972 l 969 972 l 932 792 l 422 792 l 300 181 m 93 -287 l 304 -87 l 494 -87 l 651 -287 l 497 -287 l 326 -121 l 469 -121 l 256 -287 l 93 -287 z "},"Ệ":{"ha":932,"x_min":40,"x_max":969,"o":"m 364 581 l 832 581 l 797 406 l 329 406 l 364 581 m 300 181 l 831 181 l 793 0 l 40 0 l 235 972 l 969 972 l 932 792 l 422 792 l 300 181 m 369 -311 q 290 -282 319 -311 q 260 -208 260 -253 q 297 -113 260 -150 q 386 -76 333 -76 q 465 -106 435 -76 q 494 -181 494 -135 q 458 -275 494 -239 q 369 -311 422 -311 m 347 1051 l 558 1251 l 749 1251 l 906 1051 l 751 1051 l 581 1218 l 724 1218 l 510 1051 l 347 1051 z "},"Ề":{"ha":932,"x_min":40,"x_max":1025,"o":"m 364 581 l 832 581 l 797 406 l 329 406 l 364 581 m 300 181 l 831 181 l 793 0 l 40 0 l 235 972 l 969 972 l 932 792 l 422 792 l 300 181 m 340 1051 l 549 1210 l 736 1210 l 899 1051 l 742 1051 l 572 1176 l 710 1176 l 503 1051 l 340 1051 m 868 1185 l 683 1353 l 906 1353 l 1025 1185 l 868 1185 z "},"Ể":{"ha":932,"x_min":40,"x_max":986,"o":"m 364 581 l 832 581 l 797 406 l 329 406 l 364 581 m 300 181 l 831 181 l 793 0 l 40 0 l 235 972 l 969 972 l 932 792 l 422 792 l 300 181 m 340 1051 l 549 1210 l 736 1210 l 899 1051 l 742 1051 l 572 1176 l 710 1176 l 503 1051 l 340 1051 m 871 1158 l 824 1210 q 872 1242 860 1225 q 883 1275 883 1260 q 872 1299 883 1290 q 843 1308 861 1308 q 778 1292 811 1308 l 751 1360 q 868 1389 806 1389 q 953 1363 922 1389 q 985 1293 985 1338 q 952 1212 985 1246 q 871 1158 919 1178 z "},"Ễ":{"ha":932,"x_min":40,"x_max":969,"o":"m 364 581 l 832 581 l 797 406 l 329 406 l 364 581 m 300 181 l 831 181 l 793 0 l 40 0 l 235 972 l 969 972 l 932 792 l 422 792 l 300 181 m 339 1051 l 547 1210 l 735 1210 l 897 1051 l 740 1051 l 571 1176 l 708 1176 l 501 1051 l 339 1051 m 768 1258 q 690 1276 721 1258 q 635 1313 658 1294 q 586 1332 611 1332 q 540 1315 558 1332 q 515 1267 522 1297 l 404 1267 q 465 1394 417 1350 q 586 1438 513 1438 q 664 1419 633 1438 q 719 1383 694 1401 q 768 1364 743 1364 q 817 1383 799 1364 q 840 1428 835 1401 l 949 1428 q 890 1303 938 1349 q 768 1258 843 1258 z "},"Ȅ":{"ha":932,"x_min":40,"x_max":969,"o":"m 364 581 l 832 581 l 797 406 l 329 406 l 364 581 m 300 181 l 831 181 l 793 0 l 40 0 l 235 972 l 969 972 l 932 792 l 422 792 l 300 181 m 683 1051 l 578 1251 l 772 1251 l 833 1051 l 683 1051 m 403 1051 l 297 1251 l 492 1251 l 553 1051 l 403 1051 z "},"Ë":{"ha":932,"x_min":40,"x_max":969,"o":"m 364 581 l 832 581 l 797 406 l 329 406 l 364 581 m 300 181 l 831 181 l 793 0 l 40 0 l 235 972 l 969 972 l 932 792 l 422 792 l 300 181 m 781 1058 q 716 1082 742 1058 q 690 1144 690 1106 q 721 1221 690 1192 q 793 1250 751 1250 q 857 1226 831 1250 q 883 1164 883 1203 q 852 1088 883 1117 q 781 1058 821 1058 m 499 1058 q 435 1082 461 1058 q 408 1144 408 1106 q 440 1221 408 1192 q 511 1250 471 1250 q 576 1226 550 1250 q 603 1164 603 1203 q 571 1088 603 1117 q 499 1058 539 1058 z "},"Ė":{"ha":932,"x_min":40,"x_max":969,"o":"m 364 581 l 832 581 l 797 406 l 329 406 l 364 581 m 300 181 l 831 181 l 793 0 l 40 0 l 235 972 l 969 972 l 932 792 l 422 792 l 300 181 m 633 1058 q 553 1088 583 1058 q 524 1161 524 1117 q 560 1256 524 1219 q 650 1293 597 1293 q 728 1264 699 1293 q 758 1189 758 1235 q 722 1094 758 1131 q 633 1058 686 1058 z "},"Ẹ":{"ha":932,"x_min":40,"x_max":969,"o":"m 364 581 l 832 581 l 797 406 l 329 406 l 364 581 m 300 181 l 831 181 l 793 0 l 40 0 l 235 972 l 969 972 l 932 792 l 422 792 l 300 181 m 369 -311 q 290 -282 319 -311 q 260 -208 260 -253 q 297 -113 260 -150 q 386 -76 333 -76 q 465 -106 435 -76 q 494 -181 494 -135 q 458 -275 494 -239 q 369 -311 422 -311 z "},"È":{"ha":932,"x_min":40,"x_max":969,"o":"m 364 581 l 832 581 l 797 406 l 329 406 l 364 581 m 300 181 l 831 181 l 793 0 l 40 0 l 235 972 l 969 972 l 932 792 l 422 792 l 300 181 m 575 1051 l 363 1251 l 596 1251 l 743 1051 l 575 1051 z "},"Ẻ":{"ha":932,"x_min":40,"x_max":969,"o":"m 364 581 l 832 581 l 797 406 l 329 406 l 364 581 m 300 181 l 831 181 l 793 0 l 40 0 l 235 972 l 969 972 l 932 792 l 422 792 l 300 181 m 621 1007 l 564 1081 q 629 1124 611 1101 q 647 1174 647 1147 q 632 1211 647 1197 q 589 1225 617 1225 q 506 1197 547 1225 l 468 1288 q 542 1322 501 1310 q 625 1333 583 1333 q 735 1298 694 1333 q 776 1203 776 1263 q 736 1089 776 1138 q 621 1007 696 1040 z "},"Ȇ":{"ha":932,"x_min":40,"x_max":969,"o":"m 364 581 l 832 581 l 797 406 l 329 406 l 364 581 m 300 181 l 831 181 l 793 0 l 40 0 l 235 972 l 969 972 l 932 792 l 422 792 l 300 181 m 361 1051 q 458 1207 381 1150 q 644 1264 535 1264 q 768 1238 715 1264 q 850 1164 821 1211 q 874 1051 879 1117 l 740 1051 q 713 1124 743 1097 q 632 1151 683 1151 q 546 1124 581 1151 q 501 1051 511 1097 l 361 1051 z "},"Ē":{"ha":932,"x_min":40,"x_max":969,"o":"m 364 581 l 832 581 l 797 406 l 329 406 l 364 581 m 300 181 l 831 181 l 793 0 l 40 0 l 235 972 l 969 972 l 932 792 l 422 792 l 300 181 m 371 1090 l 393 1213 l 907 1213 l 883 1090 l 371 1090 z "},"Ḗ":{"ha":932,"x_min":40,"x_max":969,"o":"m 364 581 l 832 581 l 797 406 l 329 406 l 364 581 m 300 181 l 831 181 l 793 0 l 40 0 l 235 972 l 969 972 l 932 792 l 422 792 l 300 181 m 368 1078 l 390 1193 l 904 1193 l 882 1078 l 368 1078 m 532 1278 l 704 1446 l 931 1446 l 694 1278 l 532 1278 z "},"Ḕ":{"ha":932,"x_min":40,"x_max":969,"o":"m 364 581 l 832 581 l 797 406 l 329 406 l 364 581 m 300 181 l 831 181 l 793 0 l 40 0 l 235 972 l 969 972 l 932 792 l 422 792 l 300 181 m 367 1078 l 389 1193 l 903 1193 l 881 1078 l 367 1078 m 622 1278 l 438 1446 l 660 1446 l 779 1278 l 622 1278 z "},"Ę":{"ha":932,"x_min":40,"x_max":969,"o":"m 364 581 l 832 581 l 797 406 l 329 406 l 364 581 m 300 181 l 831 181 l 793 0 l 40 0 l 235 972 l 969 972 l 932 792 l 422 792 l 300 181 m 633 -322 q 507 -286 556 -322 q 458 -185 458 -250 q 490 -85 458 -131 q 580 -4 522 -40 q 715 60 638 32 l 794 0 q 683 -49 725 -24 q 621 -101 640 -75 q 601 -154 601 -126 q 620 -197 601 -182 q 669 -212 639 -212 q 716 -206 693 -212 q 757 -192 739 -200 l 774 -290 q 710 -313 746 -304 q 633 -322 675 -322 z "},"Ɛ":{"ha":907,"x_min":33,"x_max":968,"o":"m 449 -17 q 237 13 331 -17 q 88 101 143 42 q 33 251 33 161 q 78 399 33 336 q 203 498 124 463 q 382 533 282 533 l 379 476 q 218 533 275 476 q 161 678 161 590 q 199 811 161 753 q 302 908 236 869 q 453 967 368 947 q 636 988 539 988 q 823 967 735 988 q 968 908 911 947 l 894 739 q 760 790 835 774 q 615 806 685 806 q 498 791 550 806 q 417 747 446 776 q 388 674 388 718 q 421 607 388 631 q 521 583 454 583 l 751 583 l 715 414 l 451 414 q 315 378 367 414 q 263 279 263 343 q 289 215 263 240 q 363 177 315 189 q 472 165 411 165 q 597 176 535 165 q 715 208 660 188 q 811 254 769 228 l 868 86 q 676 10 788 38 q 449 -17 564 -17 z "},"Ǝ":{"ha":932,"x_min":-3,"x_max":938,"o":"m 615 406 l 147 406 l 182 581 l 650 581 l 615 406 m 678 792 l 160 792 l 196 972 l 938 972 l 743 0 l -3 0 l 33 181 l 556 181 l 678 792 z "},"Ɜ":{"ha":908,"x_min":-64,"x_max":876,"o":"m 333 -15 q 181 -3 257 -15 q 42 31 106 8 q -64 83 -21 53 l 40 253 q 126 208 74 228 q 240 176 179 188 q 361 164 301 164 q 483 179 428 164 q 574 227 539 194 q 608 310 608 260 q 567 389 608 364 q 454 414 525 414 l 203 414 l 238 583 l 474 583 q 564 597 526 583 q 623 636 601 610 q 644 700 644 663 q 622 763 644 740 q 562 795 600 786 q 478 804 524 804 q 369 795 425 804 q 260 770 313 786 q 169 735 208 754 l 140 907 q 253 950 192 932 q 378 977 314 968 q 504 986 443 986 q 690 960 606 986 q 826 878 775 933 q 876 740 876 824 q 834 601 876 661 q 722 507 792 540 q 569 474 653 474 l 586 522 q 713 498 657 522 q 801 426 769 474 q 833 307 833 378 q 792 164 833 225 q 678 63 750 103 q 518 4 607 24 q 333 -15 429 -15 z "},"Ʃ":{"ha":757,"x_min":-43,"x_max":846,"o":"m 124 -12 q 28 10 72 -7 q -43 51 -17 28 l 49 211 q 132 176 86 179 q 201 194 171 172 q 242 264 232 215 l 335 729 q 387 860 350 808 q 472 942 424 913 q 576 981 521 971 q 682 988 631 992 q 776 965 733 982 q 846 922 819 947 l 754 761 q 671 797 717 793 q 601 780 632 801 q 561 708 571 758 l 468 243 q 415 112 451 164 q 331 31 379 60 q 228 -7 282 3 q 124 -12 175 -17 z "},"Ɇ":{"ha":936,"x_min":40,"x_max":1019,"o":"m 111 -97 l 879 1069 l 1019 1069 l 251 -97 l 111 -97 m 40 0 l 235 972 l 969 972 l 933 792 l 422 792 l 300 181 l 831 181 l 793 0 l 40 0 m 328 406 l 364 581 l 832 581 l 797 406 l 328 406 z "},"Ẽ":{"ha":932,"x_min":40,"x_max":969,"o":"m 364 581 l 832 581 l 797 406 l 329 406 l 364 581 m 300 181 l 831 181 l 793 0 l 40 0 l 235 972 l 969 972 l 932 792 l 422 792 l 300 181 m 735 1047 q 672 1060 699 1047 q 623 1091 644 1074 q 582 1122 601 1108 q 542 1135 563 1135 q 493 1114 513 1135 q 467 1057 474 1093 l 357 1057 q 422 1208 374 1156 q 542 1260 471 1260 q 605 1247 578 1260 q 653 1215 632 1233 q 694 1184 675 1197 q 736 1171 714 1171 q 785 1192 765 1171 q 810 1246 804 1214 l 919 1246 q 856 1099 904 1151 q 735 1047 807 1047 z "},"Ḛ":{"ha":932,"x_min":40,"x_max":969,"o":"m 364 581 l 832 581 l 797 406 l 329 406 l 364 581 m 300 181 l 831 181 l 793 0 l 40 0 l 235 972 l 969 972 l 932 792 l 422 792 l 300 181 m 476 -286 q 413 -273 440 -286 q 365 -242 386 -260 q 324 -212 343 -225 q 283 -199 304 -199 q 235 -219 254 -199 q 208 -276 215 -240 l 99 -276 q 164 -126 115 -178 q 283 -74 213 -74 q 347 -87 319 -74 q 395 -118 374 -100 q 436 -149 417 -136 q 478 -162 456 -162 q 526 -141 507 -162 q 551 -87 546 -119 l 661 -87 q 597 -234 646 -182 q 476 -286 549 -286 z "},"Ə":{"ha":1135,"x_min":67,"x_max":1107,"o":"m 533 -17 q 287 36 392 -17 q 124 183 182 89 q 67 397 67 276 q 72 463 67 428 q 86 543 76 497 l 914 543 l 883 390 l 213 390 l 296 458 q 291 426 293 439 q 289 394 289 414 q 317 272 289 325 q 403 191 346 219 q 546 163 461 163 q 694 197 631 163 q 798 290 757 232 q 860 418 839 349 q 881 554 881 488 q 851 683 881 628 q 761 767 821 738 q 614 797 701 797 q 456 770 532 797 q 319 690 381 743 l 213 846 q 403 952 294 915 q 631 989 511 989 q 886 935 781 989 q 1049 785 992 881 q 1107 561 1107 689 q 1065 329 1107 435 q 947 147 1024 224 q 765 26 871 69 q 533 -17 660 -17 z "},"Ʒ":{"ha":856,"x_min":-19,"x_max":875,"o":"m 336 -17 q 136 13 229 -17 q -19 96 43 42 l 89 261 q 205 196 136 219 q 351 172 274 172 q 465 189 418 172 q 535 238 511 206 q 560 313 560 269 q 520 391 560 365 q 400 417 481 417 l 297 417 l 326 565 l 654 872 l 669 792 l 157 792 l 194 972 l 875 972 l 847 826 l 519 519 l 414 583 l 464 583 q 638 552 565 583 q 749 463 710 521 q 788 326 788 406 q 730 150 788 228 q 570 28 672 72 q 336 -17 468 -17 z "},"Ǯ":{"ha":856,"x_min":-19,"x_max":875,"o":"m 336 -17 q 136 13 229 -17 q -19 96 43 42 l 89 261 q 205 196 136 219 q 351 172 274 172 q 465 189 418 172 q 535 238 511 206 q 560 313 560 269 q 520 391 560 365 q 400 417 481 417 l 297 417 l 326 565 l 654 872 l 669 792 l 157 792 l 194 972 l 875 972 l 847 826 l 519 519 l 414 583 l 464 583 q 638 552 565 583 q 749 463 710 521 q 788 326 788 406 q 730 150 788 228 q 570 28 672 72 q 336 -17 468 -17 m 429 1051 l 274 1251 l 428 1251 l 599 1086 l 456 1086 l 669 1251 l 831 1251 l 621 1051 l 429 1051 z "},"Ƹ":{"ha":894,"x_min":35,"x_max":942,"o":"m 418 -17 q 233 13 310 -17 q 112 93 157 43 q 51 204 67 143 q 47 328 35 265 q 185 519 72 454 q 486 583 297 583 l 550 583 l 439 519 l 203 826 l 232 972 l 942 972 l 906 793 l 364 793 l 401 881 l 639 572 l 607 419 l 489 419 q 335 392 386 419 q 272 308 285 364 q 283 237 265 268 q 344 188 301 206 q 449 169 386 169 q 615 193 531 169 q 765 260 699 217 l 806 86 q 627 10 728 38 q 418 -17 526 -17 z "},"F":{"ha":888,"x_min":40,"x_max":969,"o":"m 356 535 l 824 535 l 786 354 l 319 354 l 356 535 m 267 0 l 40 0 l 235 972 l 969 972 l 932 792 l 424 792 l 267 0 z "},"Ḟ":{"ha":888,"x_min":40,"x_max":969,"o":"m 356 535 l 824 535 l 786 354 l 319 354 l 356 535 m 267 0 l 40 0 l 235 972 l 969 972 l 932 792 l 424 792 l 267 0 m 594 1058 q 515 1088 544 1058 q 485 1161 485 1117 q 522 1256 485 1219 q 611 1293 558 1293 q 690 1264 660 1293 q 719 1189 719 1235 q 683 1094 719 1131 q 594 1058 647 1058 z "},"Ƒ":{"ha":896,"x_min":-186,"x_max":975,"o":"m -186 -246 l -124 -87 q -40 -102 -75 -104 q 15 -78 -6 -100 q 44 -14 36 -56 l 242 972 l 975 972 l 939 792 l 431 792 l 265 -43 q 207 -177 249 -122 q 104 -259 165 -232 q -31 -284 43 -286 q -186 -246 -106 -282 m 326 354 l 363 535 l 831 535 l 793 354 l 326 354 z "},"G":{"ha":1071,"x_min":71,"x_max":1088,"o":"m 551 -17 q 297 37 404 -17 q 130 185 189 90 q 71 406 71 281 q 115 636 71 529 q 239 822 158 743 q 432 944 319 900 q 682 989 544 989 q 923 945 821 989 q 1088 819 1025 901 l 926 689 q 816 772 878 747 q 672 797 754 797 q 517 769 586 797 q 400 689 449 740 q 325 569 351 638 q 299 419 299 500 q 331 291 299 346 q 426 206 363 236 q 581 175 489 175 q 714 199 650 175 q 838 272 778 222 l 924 101 q 753 14 850 44 q 551 -17 657 -17 m 726 136 l 799 501 l 1004 501 l 924 101 l 726 136 z "},"Ǵ":{"ha":1071,"x_min":71,"x_max":1088,"o":"m 551 -17 q 297 37 404 -17 q 130 185 189 90 q 71 406 71 281 q 115 636 71 529 q 239 822 158 743 q 432 944 319 900 q 682 989 544 989 q 923 945 821 989 q 1088 819 1025 901 l 926 689 q 816 772 878 747 q 672 797 754 797 q 517 769 586 797 q 400 689 449 740 q 325 569 351 638 q 299 419 299 500 q 331 291 299 346 q 426 206 363 236 q 581 175 489 175 q 714 199 650 175 q 838 272 778 222 l 924 101 q 753 14 850 44 q 551 -17 657 -17 m 726 136 l 799 501 l 1004 501 l 924 101 l 726 136 m 583 1051 l 792 1251 l 1031 1251 l 758 1051 l 583 1051 z "},"Ğ":{"ha":1071,"x_min":71,"x_max":1088,"o":"m 551 -17 q 297 37 404 -17 q 130 185 189 90 q 71 406 71 281 q 115 636 71 529 q 239 822 158 743 q 432 944 319 900 q 682 989 544 989 q 923 945 821 989 q 1088 819 1025 901 l 926 689 q 816 772 878 747 q 672 797 754 797 q 517 769 586 797 q 400 689 449 740 q 325 569 351 638 q 299 419 299 500 q 331 291 299 346 q 426 206 363 236 q 581 175 489 175 q 714 199 650 175 q 838 272 778 222 l 924 101 q 753 14 850 44 q 551 -17 657 -17 m 726 136 l 799 501 l 1004 501 l 924 101 l 726 136 m 732 1054 q 608 1080 663 1054 q 525 1153 553 1106 q 501 1265 497 1201 l 635 1265 q 663 1193 633 1219 q 744 1167 693 1167 q 831 1193 796 1167 q 874 1265 865 1219 l 1014 1265 q 919 1111 996 1168 q 732 1054 842 1054 z "},"Ǧ":{"ha":1071,"x_min":71,"x_max":1088,"o":"m 551 -17 q 297 37 404 -17 q 130 185 189 90 q 71 406 71 281 q 115 636 71 529 q 239 822 158 743 q 432 944 319 900 q 682 989 544 989 q 923 945 821 989 q 1088 819 1025 901 l 926 689 q 816 772 878 747 q 672 797 754 797 q 517 769 586 797 q 400 689 449 740 q 325 569 351 638 q 299 419 299 500 q 331 291 299 346 q 426 206 363 236 q 581 175 489 175 q 714 199 650 175 q 838 272 778 222 l 924 101 q 753 14 850 44 q 551 -17 657 -17 m 726 136 l 799 501 l 1004 501 l 924 101 l 726 136 m 607 1051 l 451 1251 l 606 1251 l 776 1086 l 633 1086 l 847 1251 l 1008 1251 l 799 1051 l 607 1051 z "},"Ĝ":{"ha":1071,"x_min":71,"x_max":1088,"o":"m 551 -17 q 297 37 404 -17 q 130 185 189 90 q 71 406 71 281 q 115 636 71 529 q 239 822 158 743 q 432 944 319 900 q 682 989 544 989 q 923 945 821 989 q 1088 819 1025 901 l 926 689 q 816 772 878 747 q 672 797 754 797 q 517 769 586 797 q 400 689 449 740 q 325 569 351 638 q 299 419 299 500 q 331 291 299 346 q 426 206 363 236 q 581 175 489 175 q 714 199 650 175 q 838 272 778 222 l 924 101 q 753 14 850 44 q 551 -17 657 -17 m 726 136 l 799 501 l 1004 501 l 924 101 l 726 136 m 443 1051 l 654 1251 l 844 1251 l 1001 1051 l 847 1051 l 676 1218 l 819 1218 l 606 1051 l 443 1051 z "},"Ģ":{"ha":1071,"x_min":71,"x_max":1088,"o":"m 551 -17 q 297 37 404 -17 q 130 185 189 90 q 71 406 71 281 q 115 636 71 529 q 239 822 158 743 q 432 944 319 900 q 682 989 544 989 q 923 945 821 989 q 1088 819 1025 901 l 926 689 q 816 772 878 747 q 672 797 754 797 q 517 769 586 797 q 400 689 449 740 q 325 569 351 638 q 299 419 299 500 q 331 291 299 346 q 426 206 363 236 q 581 175 489 175 q 714 199 650 175 q 838 272 778 222 l 924 101 q 753 14 850 44 q 551 -17 657 -17 m 726 136 l 799 501 l 1004 501 l 924 101 l 726 136 m 342 -369 l 431 -192 l 444 -265 q 379 -246 401 -265 q 357 -196 357 -226 q 383 -128 357 -156 q 458 -101 408 -101 q 528 -123 506 -101 q 551 -175 551 -144 q 542 -218 551 -197 q 508 -274 533 -239 l 440 -369 l 342 -369 z "},"Ġ":{"ha":1071,"x_min":71,"x_max":1088,"o":"m 551 -17 q 297 37 404 -17 q 130 185 189 90 q 71 406 71 281 q 115 636 71 529 q 239 822 158 743 q 432 944 319 900 q 682 989 544 989 q 923 945 821 989 q 1088 819 1025 901 l 926 689 q 816 772 878 747 q 672 797 754 797 q 517 769 586 797 q 400 689 449 740 q 325 569 351 638 q 299 419 299 500 q 331 291 299 346 q 426 206 363 236 q 581 175 489 175 q 714 199 650 175 q 838 272 778 222 l 924 101 q 753 14 850 44 q 551 -17 657 -17 m 726 136 l 799 501 l 1004 501 l 924 101 l 726 136 m 729 1058 q 649 1088 679 1058 q 619 1161 619 1117 q 656 1256 619 1219 q 746 1293 693 1293 q 824 1264 794 1293 q 854 1189 854 1235 q 818 1094 854 1131 q 729 1058 782 1058 z "},"Ɠ":{"ha":1074,"x_min":71,"x_max":1304,"o":"m 551 -17 q 297 37 404 -17 q 130 185 189 90 q 71 406 71 281 q 115 636 71 529 q 239 822 158 743 q 432 944 319 900 q 682 989 544 989 q 923 945 821 989 q 1088 818 1025 901 l 926 689 q 816 772 878 747 q 672 797 754 797 q 517 769 586 797 q 400 689 449 740 q 325 569 351 638 q 299 419 299 500 q 331 291 299 346 q 426 206 363 236 q 581 175 489 175 q 714 199 650 175 q 838 272 778 222 l 924 101 q 753 14 850 44 q 551 -17 657 -17 m 924 101 l 726 136 l 799 501 l 1004 501 l 924 101 m 901 818 l 922 940 q 969 1058 933 1008 q 1059 1135 1006 1107 q 1176 1167 1113 1164 q 1304 1149 1239 1171 l 1250 993 q 1183 995 1214 1003 q 1130 962 1151 988 q 1101 896 1108 936 l 1088 818 l 901 818 z "},"Ɂ":{"ha":857,"x_min":54,"x_max":911,"o":"m 215 0 l 263 233 q 309 350 276 303 q 385 429 342 397 q 473 485 428 461 q 559 533 518 510 q 629 587 600 557 q 667 658 658 617 q 653 740 676 708 q 585 789 629 772 q 486 806 540 806 q 389 792 439 806 q 292 751 339 779 q 208 679 246 724 l 54 783 q 188 897 110 851 q 355 965 265 942 q 533 989 444 989 q 687 969 615 989 q 811 910 758 950 q 888 810 864 871 q 896 668 911 750 q 849 554 882 601 q 774 473 817 507 q 684 413 731 439 q 596 359 638 386 q 524 298 554 332 q 485 217 494 264 l 442 0 l 215 0 z "},"Ḡ":{"ha":1071,"x_min":71,"x_max":1088,"o":"m 551 -17 q 297 37 404 -17 q 130 185 189 90 q 71 406 71 281 q 115 636 71 529 q 239 822 158 743 q 432 944 319 900 q 682 989 544 989 q 923 945 821 989 q 1088 819 1025 901 l 926 689 q 816 772 878 747 q 672 797 754 797 q 517 769 586 797 q 400 689 449 740 q 325 569 351 638 q 299 419 299 500 q 331 291 299 346 q 426 206 363 236 q 581 175 489 175 q 714 199 650 175 q 838 272 778 222 l 924 101 q 753 14 850 44 q 551 -17 657 -17 m 726 136 l 799 501 l 1004 501 l 924 101 l 726 136 m 467 1090 l 489 1213 l 1003 1213 l 979 1090 l 467 1090 z "},"Ǥ":{"ha":1126,"x_min":71,"x_max":1115,"o":"m 551 -17 q 297 37 404 -17 q 130 185 189 90 q 71 406 71 281 q 115 636 71 529 q 239 822 158 743 q 432 944 319 900 q 682 989 544 989 q 923 945 821 989 q 1088 819 1025 901 l 926 689 q 816 772 878 747 q 672 797 754 797 q 517 769 586 797 q 400 689 449 740 q 325 569 351 638 q 299 419 299 500 q 331 291 299 346 q 426 206 363 236 q 581 175 489 175 q 714 199 650 175 q 838 272 778 222 l 924 101 q 753 14 850 44 q 551 -17 657 -17 m 726 136 l 800 507 l 1006 507 l 924 101 l 726 136 m 572 289 l 601 440 l 1115 440 l 1086 289 l 572 289 z "},"Ȝ":{"ha":911,"x_min":-111,"x_max":872,"o":"m -111 -154 l -83 33 q 94 56 10 43 q 253 88 179 69 q 389 128 328 106 q 494 178 450 150 q 561 238 538 206 q 585 308 585 271 q 543 379 585 364 q 428 378 501 394 l 210 331 l 228 510 l 428 554 q 500 576 464 563 q 566 608 536 589 q 615 653 596 628 q 633 713 633 679 q 622 757 633 738 q 585 788 610 776 q 519 799 560 799 q 414 785 476 799 q 278 747 351 772 q 126 688 204 721 l 89 856 q 242 923 160 893 q 411 970 325 953 q 575 988 497 988 q 747 955 682 988 q 842 869 813 922 q 872 757 872 817 q 840 638 872 689 q 753 550 808 588 q 631 487 699 513 q 489 444 563 461 l 489 489 q 659 500 585 515 q 776 435 733 485 q 819 304 819 385 q 778 163 819 225 q 664 51 736 100 q 499 -35 592 1 q 301 -95 406 -71 q 92 -134 197 -119 q -111 -154 -14 -149 z "},"H":{"ha":1122,"x_min":40,"x_max":1126,"o":"m 901 972 l 1126 972 l 932 0 l 707 0 l 901 972 m 267 0 l 40 0 l 235 972 l 461 972 l 267 0 m 804 399 l 331 399 l 368 589 l 842 589 l 804 399 z "},"Ħ":{"ha":1178,"x_min":67,"x_max":1251,"o":"m 928 972 l 1154 972 l 960 0 l 733 0 l 928 972 m 293 0 l 67 0 l 261 972 l 488 972 l 293 0 m 831 393 l 357 393 l 394 578 l 868 578 l 831 393 m 83 693 l 113 844 l 1251 844 l 1224 693 l 83 693 z "},"Ḫ":{"ha":1122,"x_min":40,"x_max":1126,"o":"m 901 972 l 1126 972 l 932 0 l 707 0 l 901 972 m 267 0 l 40 0 l 235 972 l 461 972 l 267 0 m 804 399 l 331 399 l 368 589 l 842 589 l 804 399 m 446 -285 q 322 -259 376 -285 q 239 -185 267 -233 q 215 -74 211 -137 l 349 -74 q 377 -146 347 -119 q 458 -172 407 -172 q 544 -146 510 -172 q 588 -74 579 -119 l 728 -74 q 633 -228 710 -171 q 446 -285 556 -285 z "},"Ȟ":{"ha":1122,"x_min":40,"x_max":1126,"o":"m 901 972 l 1126 972 l 932 0 l 707 0 l 901 972 m 267 0 l 40 0 l 235 972 l 461 972 l 267 0 m 804 399 l 331 399 l 368 589 l 842 589 l 804 399 m 589 1051 l 433 1251 l 588 1251 l 758 1086 l 615 1086 l 829 1251 l 990 1251 l 781 1051 l 589 1051 z "},"Ḩ":{"ha":1122,"x_min":-58,"x_max":1126,"o":"m 707 0 l 901 972 l 1126 972 l 932 0 l 707 0 m 72 -322 q -1 -315 32 -322 q -58 -293 -33 -307 l -6 -200 q 35 -216 13 -211 q 81 -221 57 -221 q 139 -209 119 -221 q 161 -176 158 -197 q 150 -147 165 -157 q 101 -136 135 -136 l 43 -136 l 108 11 l 224 11 l 188 -69 q 278 -108 247 -75 q 297 -194 308 -142 q 224 -288 285 -254 q 72 -322 164 -322 m 40 0 l 235 972 l 461 972 l 267 0 l 40 0 m 329 399 l 367 589 l 842 589 l 803 399 l 329 399 z "},"Ĥ":{"ha":1122,"x_min":40,"x_max":1126,"o":"m 901 972 l 1126 972 l 932 0 l 707 0 l 901 972 m 267 0 l 40 0 l 235 972 l 461 972 l 267 0 m 804 399 l 331 399 l 368 589 l 842 589 l 804 399 m 425 1051 l 636 1251 l 826 1251 l 983 1051 l 829 1051 l 658 1218 l 801 1218 l 588 1051 l 425 1051 z "},"Ḧ":{"ha":1122,"x_min":40,"x_max":1126,"o":"m 901 972 l 1126 972 l 932 0 l 707 0 l 901 972 m 267 0 l 40 0 l 235 972 l 461 972 l 267 0 m 804 399 l 331 399 l 368 589 l 842 589 l 804 399 m 860 1058 q 795 1082 821 1058 q 769 1144 769 1106 q 800 1221 769 1192 q 872 1250 831 1250 q 936 1226 910 1250 q 963 1164 963 1203 q 931 1088 963 1117 q 860 1058 900 1058 m 578 1058 q 514 1082 540 1058 q 488 1144 488 1106 q 519 1221 488 1192 q 590 1250 550 1250 q 656 1226 629 1250 q 682 1164 682 1203 q 650 1088 682 1117 q 578 1058 618 1058 z "},"Ḣ":{"ha":1122,"x_min":40,"x_max":1126,"o":"m 901 972 l 1126 972 l 932 0 l 707 0 l 901 972 m 267 0 l 40 0 l 235 972 l 461 972 l 267 0 m 804 399 l 331 399 l 368 589 l 842 589 l 804 399 m 713 1058 q 633 1088 663 1058 q 603 1161 603 1117 q 640 1256 603 1219 q 729 1293 676 1293 q 808 1264 778 1293 q 838 1189 838 1235 q 801 1094 838 1131 q 713 1058 765 1058 z "},"Ḥ":{"ha":1122,"x_min":40,"x_max":1126,"o":"m 901 972 l 1126 972 l 932 0 l 707 0 l 901 972 m 267 0 l 40 0 l 235 972 l 461 972 l 267 0 m 804 399 l 331 399 l 368 589 l 842 589 l 804 399 m 439 -311 q 359 -282 389 -311 q 329 -208 329 -253 q 366 -113 329 -150 q 456 -76 403 -76 q 534 -106 504 -76 q 564 -181 564 -135 q 528 -275 564 -239 q 439 -311 492 -311 z "},"Ꜧ":{"ha":1131,"x_min":47,"x_max":1129,"o":"m 433 -235 l 507 -86 q 568 -107 536 -104 q 630 -99 600 -110 q 682 -62 660 -87 q 711 -1 704 -37 l 790 389 l 347 389 l 269 0 l 47 0 l 242 972 l 464 972 l 385 574 l 826 574 l 906 972 l 1129 972 l 929 -24 q 855 -178 910 -119 q 726 -262 800 -237 q 576 -280 653 -287 q 433 -235 499 -272 z "},"Ɦ":{"ha":1407,"x_min":96,"x_max":1411,"o":"m 150 486 q 99 656 103 571 q 131 814 96 742 q 237 929 167 886 q 407 972 307 972 l 529 972 l 493 789 l 415 789 q 336 757 365 789 q 306 677 307 725 q 333 581 304 629 l 150 486 m 1186 972 l 1411 972 l 1217 0 l 992 0 l 1186 972 m 550 0 l 325 0 l 519 972 l 744 972 l 550 0 m 1088 399 l 615 399 l 651 589 l 1126 589 l 1088 399 z "},"Ɥ":{"ha":1063,"x_min":97,"x_max":1061,"o":"m 649 0 l 754 539 l 797 488 q 652 331 736 381 q 447 281 568 281 q 240 332 321 281 q 128 478 158 383 q 122 703 97 574 l 176 972 l 403 972 l 349 700 q 371 528 325 589 q 522 468 417 468 q 692 527 625 468 q 781 696 758 586 l 835 972 l 1061 972 l 867 0 l 649 0 z "},"I":{"ha":456,"x_min":40,"x_max":461,"o":"m 40 0 l 235 972 l 461 972 l 267 0 l 40 0 z "},"Ĳ":{"ha":994,"x_min":31,"x_max":1018,"o":"m 411 -17 q 193 13 288 -17 q 31 92 99 43 l 142 263 q 276 195 204 218 q 424 172 347 172 q 595 232 533 172 q 683 426 657 292 l 792 972 l 1018 972 l 907 417 q 739 90 863 196 q 411 -17 615 -17 m 121 447 l 226 972 l 453 972 l 347 447 l 121 447 z "},"Í":{"ha":456,"x_min":40,"x_max":681,"o":"m 40 0 l 235 972 l 461 972 l 267 0 l 40 0 m 233 1051 l 442 1251 l 681 1251 l 408 1051 l 233 1051 z "},"Ĭ":{"ha":456,"x_min":40,"x_max":664,"o":"m 40 0 l 235 972 l 461 972 l 267 0 l 40 0 m 382 1054 q 258 1080 313 1054 q 175 1153 203 1106 q 151 1265 147 1201 l 285 1265 q 313 1193 283 1219 q 394 1167 343 1167 q 481 1193 446 1167 q 524 1265 515 1219 l 664 1265 q 569 1111 646 1168 q 382 1054 492 1054 z "},"Ǐ":{"ha":456,"x_min":40,"x_max":658,"o":"m 40 0 l 235 972 l 461 972 l 267 0 l 40 0 m 257 1051 l 101 1251 l 256 1251 l 426 1086 l 283 1086 l 497 1251 l 658 1251 l 449 1051 l 257 1051 z "},"Î":{"ha":456,"x_min":40,"x_max":650,"o":"m 40 0 l 235 972 l 461 972 l 267 0 l 40 0 m 93 1051 l 304 1251 l 494 1251 l 651 1051 l 497 1051 l 326 1218 l 469 1218 l 256 1051 l 93 1051 z "},"Ȉ":{"ha":456,"x_min":40,"x_max":579,"o":"m 40 0 l 235 972 l 461 972 l 267 0 l 40 0 m 429 1051 l 324 1251 l 518 1251 l 579 1051 l 429 1051 m 149 1051 l 43 1251 l 238 1251 l 299 1051 l 149 1051 z "},"Ï":{"ha":456,"x_min":40,"x_max":629,"o":"m 40 0 l 235 972 l 461 972 l 267 0 l 40 0 m 526 1058 q 462 1082 488 1058 q 436 1144 436 1106 q 467 1221 436 1192 q 539 1250 497 1250 q 603 1226 576 1250 q 629 1164 629 1203 q 598 1088 629 1117 q 526 1058 567 1058 m 244 1058 q 181 1082 207 1058 q 154 1144 154 1106 q 185 1221 154 1192 q 257 1250 217 1250 q 322 1226 296 1250 q 349 1164 349 1203 q 317 1088 349 1117 q 244 1058 285 1058 z "},"Ḯ":{"ha":456,"x_min":40,"x_max":678,"o":"m 40 0 l 235 972 l 461 972 l 267 0 l 40 0 m 507 1054 q 445 1076 469 1054 q 421 1136 421 1099 q 451 1209 421 1181 q 518 1238 481 1238 q 581 1215 557 1238 q 604 1153 604 1192 q 575 1081 604 1108 q 507 1054 546 1054 m 235 1054 q 173 1076 197 1054 q 149 1136 149 1099 q 178 1209 149 1181 q 247 1238 208 1238 q 309 1215 285 1238 q 333 1153 333 1192 q 303 1081 333 1108 q 235 1054 274 1054 m 279 1275 l 451 1443 l 678 1443 l 442 1275 l 279 1275 z "},"İ":{"ha":456,"x_min":40,"x_max":504,"o":"m 40 0 l 235 972 l 461 972 l 267 0 l 40 0 m 379 1058 q 299 1088 329 1058 q 269 1161 269 1117 q 306 1256 269 1219 q 396 1293 343 1293 q 474 1264 444 1293 q 504 1189 504 1235 q 468 1094 504 1131 q 379 1058 432 1058 z "},"Ị":{"ha":456,"x_min":-4,"x_max":461,"o":"m 40 0 l 235 972 l 461 972 l 267 0 l 40 0 m 107 -311 q 27 -282 57 -311 q -3 -208 -3 -253 q 34 -113 -3 -150 q 124 -76 71 -76 q 202 -106 172 -76 q 232 -181 232 -135 q 196 -275 232 -239 q 107 -311 160 -311 z "},"Ì":{"ha":456,"x_min":40,"x_max":488,"o":"m 40 0 l 235 972 l 461 972 l 267 0 l 40 0 m 321 1051 l 108 1251 l 342 1251 l 489 1051 l 321 1051 z "},"Ỉ":{"ha":456,"x_min":40,"x_max":521,"o":"m 40 0 l 235 972 l 461 972 l 267 0 l 40 0 m 367 1007 l 310 1081 q 375 1124 357 1101 q 393 1174 393 1147 q 378 1211 393 1197 q 335 1225 363 1225 q 251 1197 293 1225 l 214 1288 q 288 1322 247 1310 q 371 1333 329 1333 q 481 1298 440 1333 q 522 1203 522 1263 q 482 1089 522 1138 q 367 1007 442 1040 z "},"Ȋ":{"ha":456,"x_min":40,"x_max":625,"o":"m 40 0 l 235 972 l 461 972 l 267 0 l 40 0 m 107 1051 q 203 1207 126 1150 q 390 1264 281 1264 q 514 1238 461 1264 q 596 1164 567 1211 q 619 1051 625 1117 l 486 1051 q 459 1124 489 1097 q 378 1151 429 1151 q 292 1124 326 1151 q 247 1051 257 1097 l 107 1051 z "},"Ī":{"ha":456,"x_min":40,"x_max":604,"o":"m 40 0 l 235 972 l 461 972 l 267 0 l 40 0 m 164 1090 l 186 1213 l 603 1213 l 579 1090 l 164 1090 z "},"Į":{"ha":456,"x_min":3,"x_max":461,"o":"m 40 0 l 235 972 l 461 972 l 267 0 l 40 0 m 154 -322 q 42 -284 81 -322 q 4 -189 4 -246 q 62 -46 4 -108 q 210 58 119 17 l 267 0 q 176 -84 206 -42 q 147 -165 147 -126 q 160 -199 147 -186 q 193 -212 172 -212 q 217 -209 204 -212 q 242 -199 229 -206 l 254 -296 q 210 -315 236 -308 q 154 -322 183 -322 z "},"Ɩ":{"ha":560,"x_min":71,"x_max":501,"o":"m 329 -15 q 189 20 250 -15 q 99 119 128 56 q 88 265 71 182 l 228 972 l 454 972 l 314 274 q 327 197 306 225 q 390 169 349 169 q 435 176 411 169 q 485 197 458 183 l 501 31 q 414 -4 457 7 q 329 -15 371 -15 z "},"Ɨ":{"ha":538,"x_min":43,"x_max":543,"o":"m 82 0 l 276 972 l 501 972 l 307 0 l 82 0 m 43 421 l 72 572 l 543 572 l 514 421 l 43 421 z "},"Ĩ":{"ha":456,"x_min":40,"x_max":643,"o":"m 40 0 l 235 972 l 461 972 l 267 0 l 40 0 m 479 1043 q 424 1056 447 1043 q 383 1088 400 1069 q 350 1120 365 1107 q 318 1133 335 1133 q 283 1113 297 1133 q 264 1053 268 1092 l 156 1053 q 209 1204 167 1153 q 318 1256 251 1256 q 376 1242 353 1256 q 416 1210 399 1228 q 449 1178 433 1192 q 479 1165 464 1165 q 515 1185 501 1165 q 533 1242 529 1206 l 642 1242 q 589 1094 631 1146 q 479 1043 547 1043 z "},"Ḭ":{"ha":467,"x_min":-96,"x_max":461,"o":"m 40 0 l 235 972 l 461 972 l 267 0 l 40 0 m 228 -290 q 172 -277 196 -290 q 131 -245 149 -264 q 99 -213 114 -226 q 67 -200 83 -200 q 31 -221 46 -200 q 13 -281 17 -242 l -96 -281 q -42 -129 -85 -181 q 67 -78 0 -78 q 124 -92 101 -78 q 165 -124 147 -106 q 197 -155 182 -142 q 228 -168 213 -168 q 264 -148 250 -168 q 282 -92 278 -128 l 390 -92 q 338 -239 379 -187 q 228 -290 296 -290 z "},"J":{"ha":740,"x_min":-68,"x_max":765,"o":"m 249 -17 q 57 21 138 -17 q -68 129 -24 58 l 81 271 q 153 195 110 222 q 251 168 196 168 q 356 204 315 168 q 413 319 397 240 l 506 792 l 164 792 l 201 972 l 765 972 l 636 331 q 560 127 611 203 q 432 17 510 51 q 249 -17 354 -17 z "},"Ĵ":{"ha":740,"x_min":-68,"x_max":786,"o":"m 249 -17 q 57 21 138 -17 q -68 129 -24 58 l 81 271 q 153 195 110 222 q 251 168 196 168 q 356 204 315 168 q 413 319 397 240 l 506 792 l 164 792 l 201 972 l 765 972 l 636 331 q 560 127 611 203 q 432 17 510 51 q 249 -17 354 -17 m 228 1051 l 439 1251 l 629 1251 l 786 1051 l 632 1051 l 461 1218 l 604 1218 l 390 1051 l 228 1051 z "},"Ʝ":{"ha":772,"x_min":-17,"x_max":767,"o":"m 265 -17 q 109 15 174 -17 q 14 101 44 46 q -6 228 -17 157 q 89 372 11 321 q 293 422 167 422 l 760 422 l 731 275 l 294 275 q 216 260 244 275 q 181 215 188 246 q 197 160 174 183 q 264 136 221 136 q 326 152 299 136 q 372 198 353 168 q 399 271 390 228 l 506 792 l 165 792 l 201 972 l 767 972 l 622 264 q 556 114 604 176 q 434 17 507 51 q 265 -17 361 -17 z "},"Ɉ":{"ha":771,"x_min":-68,"x_max":808,"o":"m 249 -17 q 57 21 138 -17 q -68 129 -24 58 l 81 271 q 153 195 110 222 q 251 168 196 168 q 356 204 315 168 q 413 319 397 240 l 506 792 l 164 792 l 201 972 l 765 972 l 636 331 q 560 127 611 203 q 432 17 510 51 q 249 -17 354 -17 m 250 421 l 279 572 l 808 572 l 779 421 l 250 421 z "},"K":{"ha":1028,"x_min":40,"x_max":1146,"o":"m 290 222 l 321 483 l 874 972 l 1146 972 l 633 521 l 485 394 l 290 222 m 40 0 l 235 972 l 458 972 l 264 0 l 40 0 m 719 0 l 442 424 l 601 575 l 972 0 l 719 0 z "},"Ḱ":{"ha":1028,"x_min":40,"x_max":1146,"o":"m 290 222 l 321 483 l 874 972 l 1146 972 l 633 521 l 485 394 l 290 222 m 40 0 l 235 972 l 458 972 l 264 0 l 40 0 m 719 0 l 442 424 l 601 575 l 972 0 l 719 0 m 532 1051 l 740 1251 l 979 1251 l 707 1051 l 532 1051 z "},"Ǩ":{"ha":1028,"x_min":40,"x_max":1146,"o":"m 290 222 l 321 483 l 874 972 l 1146 972 l 633 521 l 485 394 l 290 222 m 40 0 l 235 972 l 458 972 l 264 0 l 40 0 m 719 0 l 442 424 l 601 575 l 972 0 l 719 0 m 556 1051 l 400 1251 l 554 1251 l 725 1086 l 582 1086 l 796 1251 l 957 1251 l 747 1051 l 556 1051 z "},"Ķ":{"ha":1028,"x_min":40,"x_max":1146,"o":"m 290 222 l 321 483 l 874 972 l 1146 972 l 633 521 l 485 394 l 290 222 m 40 0 l 235 972 l 458 972 l 264 0 l 40 0 m 719 0 l 442 424 l 601 575 l 972 0 l 719 0 m 303 -369 l 392 -192 l 406 -265 q 340 -246 363 -265 q 318 -196 318 -226 q 344 -128 318 -156 q 419 -101 369 -101 q 490 -123 467 -101 q 513 -175 513 -144 q 503 -218 513 -197 q 469 -274 494 -239 l 401 -369 l 303 -369 z "},"Ḳ":{"ha":1028,"x_min":40,"x_max":1146,"o":"m 290 222 l 321 483 l 874 972 l 1146 972 l 633 521 l 485 394 l 290 222 m 40 0 l 235 972 l 458 972 l 264 0 l 40 0 m 719 0 l 442 424 l 601 575 l 972 0 l 719 0 m 406 -311 q 326 -282 356 -311 q 296 -208 296 -253 q 333 -113 296 -150 q 422 -76 369 -76 q 501 -106 471 -76 q 531 -181 531 -135 q 494 -275 531 -239 q 406 -311 458 -311 z "},"Ƙ":{"ha":1022,"x_min":40,"x_max":1171,"o":"m 289 232 l 318 493 l 785 922 q 944 1026 871 1001 q 1074 1035 1017 1050 q 1171 974 1132 1019 l 1063 832 q 1002 851 1036 857 q 925 806 968 844 l 289 232 m 40 0 l 235 972 l 457 972 l 263 0 l 40 0 m 719 0 l 442 424 l 601 575 l 972 0 l 719 0 z "},"Ḵ":{"ha":1028,"x_min":40,"x_max":1146,"o":"m 290 222 l 321 483 l 874 972 l 1146 972 l 633 521 l 485 394 l 290 222 m 40 0 l 235 972 l 458 972 l 264 0 l 40 0 m 719 0 l 442 424 l 601 575 l 972 0 l 719 0 m 147 -247 l 169 -125 l 683 -125 l 660 -247 l 147 -247 z "},"Ꝁ":{"ha":1094,"x_min":79,"x_max":1185,"o":"m 315 189 l 357 461 l 917 972 l 1185 972 l 315 189 m 79 0 l 274 972 l 496 972 l 301 0 l 79 0 m 754 0 l 488 413 l 649 567 l 1008 0 l 754 0 m 103 733 l 129 868 l 651 868 l 625 733 l 103 733 z "},"L":{"ha":839,"x_min":40,"x_max":790,"o":"m 40 0 l 235 972 l 461 972 l 303 183 l 790 183 l 753 0 l 40 0 z "},"Ǉ":{"ha":1597,"x_min":40,"x_max":1622,"o":"m 40 0 l 235 972 l 461 972 l 303 183 l 790 183 l 753 0 l 40 0 m 1106 -17 q 914 21 994 -17 q 789 129 833 58 l 938 271 q 1010 195 967 222 q 1108 168 1053 168 q 1213 204 1172 168 q 1269 319 1254 240 l 1363 792 l 1021 792 l 1058 972 l 1622 972 l 1493 331 q 1417 127 1468 203 q 1289 17 1367 51 q 1106 -17 1211 -17 z "},"Ĺ":{"ha":839,"x_min":40,"x_max":790,"o":"m 40 0 l 235 972 l 461 972 l 303 183 l 790 183 l 753 0 l 40 0 m 233 1051 l 442 1251 l 681 1251 l 408 1051 l 233 1051 z "},"Ƚ":{"ha":849,"x_min":11,"x_max":799,"o":"m 50 0 l 244 972 l 469 972 l 313 183 l 799 183 l 763 0 l 50 0 m 11 421 l 42 572 l 575 572 l 544 421 l 11 421 z "},"Ɬ":{"ha":956,"x_min":-7,"x_max":906,"o":"m 157 0 l 351 972 l 576 972 l 419 183 l 906 183 l 868 0 l 157 0 m 214 432 q 50 492 107 432 q 10 650 -7 553 q 78 775 25 728 q 208 822 132 822 q 342 758 300 822 q 363 586 383 693 l 274 586 q 263 663 282 632 q 210 694 244 694 q 175 683 189 694 q 158 651 161 671 q 178 603 153 621 q 244 586 203 586 l 769 586 l 742 432 l 214 432 z "},"Ľ":{"ha":839,"x_min":40,"x_max":893,"o":"m 40 0 l 235 972 l 461 972 l 303 183 l 790 183 l 753 0 l 40 0 m 675 750 l 731 1029 l 893 1029 l 808 750 l 675 750 z "},"Ḽ":{"ha":839,"x_min":40,"x_max":790,"o":"m 40 0 l 235 972 l 461 972 l 303 183 l 790 183 l 753 0 l 40 0 m 90 -287 l 301 -87 l 492 -87 l 649 -287 l 494 -287 l 324 -121 l 467 -121 l 253 -287 l 90 -287 z "},"Ļ":{"ha":839,"x_min":40,"x_max":790,"o":"m 40 0 l 235 972 l 461 972 l 303 183 l 790 183 l 753 0 l 40 0 m 264 -369 l 353 -192 l 367 -265 q 301 -246 324 -265 q 279 -196 279 -226 q 305 -128 279 -156 q 381 -101 331 -101 q 451 -123 428 -101 q 474 -175 474 -144 q 465 -218 474 -197 q 431 -274 456 -239 l 363 -369 l 264 -369 z "},"Ŀ":{"ha":839,"x_min":40,"x_max":807,"o":"m 40 0 l 235 972 l 461 972 l 303 183 l 790 183 l 753 0 l 40 0 m 681 460 q 600 492 632 460 q 568 571 568 524 q 606 665 568 629 q 696 701 643 701 q 775 670 743 701 q 807 589 807 639 q 769 496 807 532 q 681 460 731 460 z "},"Ḷ":{"ha":839,"x_min":40,"x_max":790,"o":"m 40 0 l 235 972 l 461 972 l 303 183 l 790 183 l 753 0 l 40 0 m 365 -311 q 285 -282 315 -311 q 256 -208 256 -253 q 292 -113 256 -150 q 382 -76 329 -76 q 460 -106 431 -76 q 490 -181 490 -135 q 454 -275 490 -239 q 365 -311 418 -311 z "},"Ḹ":{"ha":839,"x_min":40,"x_max":790,"o":"m 40 0 l 235 972 l 461 972 l 303 183 l 790 183 l 753 0 l 40 0 m 365 -311 q 285 -282 315 -311 q 256 -208 256 -253 q 292 -113 256 -150 q 382 -76 329 -76 q 460 -106 431 -76 q 490 -181 490 -135 q 454 -275 490 -239 q 365 -311 418 -311 m 117 1090 l 139 1213 l 653 1213 l 629 1090 l 117 1090 z "},"Ⱡ":{"ha":892,"x_min":43,"x_max":842,"o":"m 93 0 l 288 972 l 513 972 l 356 183 l 842 183 l 806 0 l 93 0 m 89 585 l 117 735 l 651 735 l 622 585 l 89 585 m 43 360 l 71 508 l 606 508 l 576 360 l 43 360 z "},"ǈ":{"ha":1265,"x_min":40,"x_max":1311,"o":"m 40 0 l 235 972 l 461 972 l 303 183 l 790 183 l 753 0 l 40 0 m 768 -281 q 670 -270 715 -281 q 589 -239 625 -260 l 675 -82 q 765 -108 713 -108 q 835 -82 810 -108 q 872 1 861 -56 l 1022 747 l 1239 747 l 1090 7 q 768 -281 1033 -281 m 1168 851 q 1075 884 1110 851 q 1040 964 1040 917 q 1080 1056 1040 1019 q 1183 1093 1119 1093 q 1276 1062 1242 1093 q 1311 985 1311 1031 q 1272 888 1311 925 q 1168 851 1232 851 z "},"Ḻ":{"ha":839,"x_min":40,"x_max":790,"o":"m 40 0 l 235 972 l 461 972 l 303 183 l 790 183 l 753 0 l 40 0 m 108 -247 l 131 -125 l 644 -125 l 621 -247 l 108 -247 z "},"Ɫ":{"ha":911,"x_min":-8,"x_max":854,"o":"m 104 0 l 299 972 l 524 972 l 367 183 l 854 183 l 817 0 l 104 0 m 472 450 q 388 463 428 450 q 312 493 349 476 q 244 523 275 510 q 188 536 214 536 q 132 516 151 536 q 103 460 113 496 l -8 460 q 62 605 13 550 q 196 660 111 660 q 278 646 238 660 q 355 615 318 632 q 423 585 392 599 q 479 572 454 572 q 539 592 517 572 q 569 646 561 611 l 681 646 q 608 503 660 557 q 472 450 556 450 z "},"Ł":{"ha":858,"x_min":-39,"x_max":808,"o":"m 58 0 l 253 972 l 479 972 l 321 183 l 808 183 l 771 0 l 58 0 m 31 276 l -40 381 l 560 772 l 629 668 l 31 276 z "},"M":{"ha":1326,"x_min":40,"x_max":1329,"o":"m 40 0 l 235 972 l 418 972 l 694 283 l 597 285 l 1136 972 l 1329 972 l 1136 0 l 925 0 l 1054 651 l 1097 651 l 668 103 l 568 103 l 339 653 l 381 649 l 251 0 l 40 0 z "},"Ḿ":{"ha":1326,"x_min":40,"x_max":1329,"o":"m 40 0 l 235 972 l 418 972 l 694 283 l 597 285 l 1136 972 l 1329 972 l 1136 0 l 925 0 l 1054 651 l 1097 651 l 668 103 l 568 103 l 339 653 l 381 649 l 251 0 l 40 0 m 668 1051 l 876 1251 l 1115 1251 l 843 1051 l 668 1051 z "},"Ṁ":{"ha":1326,"x_min":40,"x_max":1329,"o":"m 40 0 l 235 972 l 418 972 l 694 283 l 597 285 l 1136 972 l 1329 972 l 1136 0 l 925 0 l 1054 651 l 1097 651 l 668 103 l 568 103 l 339 653 l 381 649 l 251 0 l 40 0 m 814 1058 q 734 1088 764 1058 q 704 1161 704 1117 q 741 1256 704 1219 q 831 1293 778 1293 q 909 1264 879 1293 q 939 1189 939 1235 q 903 1094 939 1131 q 814 1058 867 1058 z "},"Ṃ":{"ha":1326,"x_min":40,"x_max":1329,"o":"m 40 0 l 235 972 l 418 972 l 694 283 l 597 285 l 1136 972 l 1329 972 l 1136 0 l 925 0 l 1054 651 l 1097 651 l 668 103 l 568 103 l 339 653 l 381 649 l 251 0 l 40 0 m 542 -311 q 462 -282 492 -311 q 432 -208 432 -253 q 469 -113 432 -150 q 558 -76 506 -76 q 637 -106 607 -76 q 667 -181 667 -135 q 631 -275 667 -239 q 542 -311 594 -311 z "},"Ɱ":{"ha":1332,"x_min":47,"x_max":1335,"o":"m 647 -239 l 718 -81 q 786 -106 751 -101 q 851 -101 821 -111 q 901 -67 881 -92 q 931 -3 922 -42 l 1058 649 l 1106 649 l 675 103 l 574 103 l 347 650 l 386 649 l 257 0 l 47 0 l 242 972 l 425 972 l 701 286 l 603 286 l 1144 972 l 1335 972 l 1139 -14 q 1072 -169 1121 -108 q 952 -258 1022 -231 q 803 -281 882 -286 q 647 -239 725 -276 z "},"Ɯ":{"ha":1669,"x_min":71,"x_max":1674,"o":"m 1674 972 l 1479 0 l 1263 0 l 1306 211 l 1331 176 q 1192 34 1278 85 q 988 -17 1106 -17 q 789 39 864 -17 q 701 193 714 94 l 768 188 q 613 36 707 89 q 394 -17 518 -17 q 208 28 283 -17 q 101 160 132 72 q 96 375 71 247 l 215 972 l 440 972 l 322 382 q 345 226 301 276 q 475 175 389 175 q 632 228 564 175 q 721 396 700 282 l 836 972 l 1061 972 l 944 382 q 963 226 924 276 q 1088 175 1003 175 q 1196 198 1146 175 q 1283 270 1246 221 q 1333 396 1319 319 l 1449 972 l 1674 972 z "},"N":{"ha":1122,"x_min":40,"x_max":1126,"o":"m 40 0 l 235 972 l 421 972 l 839 268 l 765 272 l 904 972 l 1126 972 l 932 0 l 747 0 l 328 704 l 403 700 l 263 0 l 40 0 z "},"Ǌ":{"ha":1863,"x_min":40,"x_max":1888,"o":"m 40 0 l 235 972 l 421 972 l 839 268 l 765 272 l 904 972 l 1126 972 l 932 0 l 747 0 l 328 704 l 403 700 l 263 0 l 40 0 m 1371 -17 q 1179 21 1260 -17 q 1054 129 1099 58 l 1203 271 q 1275 195 1232 222 q 1374 168 1318 168 q 1478 204 1438 168 q 1535 319 1519 240 l 1628 792 l 1286 792 l 1324 972 l 1888 972 l 1758 331 q 1683 127 1733 203 q 1554 17 1632 51 q 1371 -17 1476 -17 z "},"Ń":{"ha":1122,"x_min":40,"x_max":1126,"o":"m 40 0 l 235 972 l 421 972 l 839 268 l 765 272 l 904 972 l 1126 972 l 932 0 l 747 0 l 328 704 l 403 700 l 263 0 l 40 0 m 567 1051 l 775 1251 l 1014 1251 l 742 1051 l 567 1051 z "},"Ň":{"ha":1122,"x_min":40,"x_max":1126,"o":"m 40 0 l 235 972 l 421 972 l 839 268 l 765 272 l 904 972 l 1126 972 l 932 0 l 747 0 l 328 704 l 403 700 l 263 0 l 40 0 m 590 1051 l 435 1251 l 589 1251 l 760 1086 l 617 1086 l 831 1251 l 992 1251 l 782 1051 l 590 1051 z "},"Ṋ":{"ha":1122,"x_min":40,"x_max":1126,"o":"m 40 0 l 235 972 l 421 972 l 839 268 l 765 272 l 904 972 l 1126 972 l 932 0 l 747 0 l 328 704 l 403 700 l 263 0 l 40 0 m 426 1051 l 638 1251 l 828 1251 l 985 1051 l 831 1051 l 660 1218 l 803 1218 l 589 1051 l 426 1051 z "},"Ņ":{"ha":1122,"x_min":40,"x_max":1126,"o":"m 40 0 l 235 972 l 421 972 l 839 268 l 765 272 l 904 972 l 1126 972 l 932 0 l 747 0 l 328 704 l 403 700 l 263 0 l 40 0 m 338 -369 l 426 -192 l 440 -265 q 375 -246 397 -265 q 353 -196 353 -226 q 378 -128 353 -156 q 454 -101 404 -101 q 524 -123 501 -101 q 547 -175 547 -144 q 538 -218 547 -197 q 504 -274 529 -239 l 436 -369 l 338 -369 z "},"Ṅ":{"ha":1122,"x_min":40,"x_max":1126,"o":"m 40 0 l 235 972 l 421 972 l 839 268 l 765 272 l 904 972 l 1126 972 l 932 0 l 747 0 l 328 704 l 403 700 l 263 0 l 40 0 m 713 1058 q 633 1088 663 1058 q 603 1161 603 1117 q 640 1256 603 1219 q 729 1293 676 1293 q 808 1264 778 1293 q 838 1189 838 1235 q 801 1094 838 1131 q 713 1058 765 1058 z "},"Ṇ":{"ha":1122,"x_min":40,"x_max":1126,"o":"m 40 0 l 235 972 l 421 972 l 839 268 l 765 272 l 904 972 l 1126 972 l 932 0 l 747 0 l 328 704 l 403 700 l 263 0 l 40 0 m 440 -311 q 360 -282 390 -311 q 331 -208 331 -253 q 367 -113 331 -150 q 457 -76 404 -76 q 535 -106 506 -76 q 565 -181 565 -135 q 529 -275 565 -239 q 440 -311 493 -311 z "},"Ǹ":{"ha":1122,"x_min":40,"x_max":1126,"o":"m 40 0 l 235 972 l 421 972 l 839 268 l 765 272 l 904 972 l 1126 972 l 932 0 l 747 0 l 328 704 l 403 700 l 263 0 l 40 0 m 654 1051 l 442 1251 l 675 1251 l 822 1051 l 654 1051 z "},"Ɲ":{"ha":1101,"x_min":-186,"x_max":1068,"o":"m -186 -246 l -124 -87 q -40 -102 -74 -104 q 15 -78 -6 -100 q 44 -14 36 -56 l 242 972 l 460 972 l 414 739 l 389 807 q 534 942 447 894 q 731 989 621 989 q 927 935 849 989 q 1037 783 1006 882 q 1040 544 1068 683 l 932 0 l 706 0 l 815 550 q 798 735 842 674 q 650 797 754 797 q 481 738 551 797 q 383 554 410 679 l 265 -43 q 208 -177 250 -122 q 104 -259 165 -232 q -31 -284 43 -286 q -186 -246 -106 -282 z "},"ǋ":{"ha":1576,"x_min":40,"x_max":1622,"o":"m 40 0 l 235 972 l 421 972 l 839 268 l 765 272 l 904 972 l 1126 972 l 932 0 l 747 0 l 328 704 l 403 700 l 263 0 l 40 0 m 1079 -281 q 981 -270 1026 -281 q 900 -239 936 -260 l 986 -82 q 1076 -108 1024 -108 q 1147 -82 1121 -108 q 1183 1 1172 -56 l 1333 747 l 1550 747 l 1401 7 q 1079 -281 1344 -281 m 1479 851 q 1386 884 1421 851 q 1351 964 1351 917 q 1391 1056 1351 1019 q 1494 1093 1431 1093 q 1588 1062 1553 1093 q 1622 985 1622 1031 q 1583 888 1622 925 q 1479 851 1543 851 z "},"Ṉ":{"ha":1122,"x_min":40,"x_max":1126,"o":"m 40 0 l 235 972 l 421 972 l 839 268 l 765 272 l 904 972 l 1126 972 l 932 0 l 747 0 l 328 704 l 403 700 l 263 0 l 40 0 m 182 -247 l 204 -125 l 718 -125 l 694 -247 l 182 -247 z "},"Ƞ":{"ha":1108,"x_min":44,"x_max":1065,"o":"m 726 989 q 922 935 843 989 q 1033 783 1001 882 q 1036 544 1065 683 l 874 -269 l 649 -269 l 813 550 q 794 735 838 674 q 646 797 750 797 q 478 740 551 797 q 381 554 406 683 l 269 0 l 44 0 l 239 972 l 457 972 l 410 739 l 386 807 q 531 942 443 896 q 726 989 618 989 z "},"Ñ":{"ha":1122,"x_min":40,"x_max":1126,"o":"m 40 0 l 235 972 l 421 972 l 839 268 l 765 272 l 904 972 l 1126 972 l 932 0 l 747 0 l 328 704 l 403 700 l 263 0 l 40 0 m 814 1047 q 751 1060 778 1047 q 702 1091 724 1074 q 661 1122 681 1108 q 621 1135 642 1135 q 572 1114 592 1135 q 546 1057 553 1093 l 436 1057 q 501 1208 453 1156 q 621 1260 550 1260 q 684 1247 657 1260 q 733 1215 711 1233 q 774 1184 754 1197 q 815 1171 793 1171 q 864 1192 844 1171 q 889 1246 883 1214 l 999 1246 q 935 1099 983 1151 q 814 1047 886 1047 z "},"Ŋ":{"ha":1122,"x_min":40,"x_max":1126,"o":"m 40 0 l 235 972 l 421 972 l 839 268 l 747 0 l 328 704 l 403 700 l 263 0 l 40 0 m 558 -281 q 414 -255 485 -281 q 300 -183 343 -229 l 421 -33 q 483 -79 447 -62 q 564 -96 519 -96 q 667 -62 628 -96 q 722 57 706 -28 l 904 972 l 1126 972 l 951 93 q 869 -134 922 -53 q 738 -248 815 -215 q 558 -281 661 -281 z "},"O":{"ha":1172,"x_min":71,"x_max":1146,"o":"m 544 -17 q 291 37 397 -17 q 128 185 185 90 q 71 406 71 281 q 114 637 71 531 q 237 822 157 743 q 427 944 317 900 q 672 989 538 989 q 926 935 819 989 q 1089 787 1032 882 q 1146 567 1146 692 q 1103 335 1146 442 q 980 151 1060 229 q 790 28 900 72 q 544 -17 679 -17 m 564 175 q 712 205 646 175 q 824 288 778 235 q 894 409 869 340 q 918 554 918 478 q 888 681 918 626 q 798 767 857 736 q 653 797 739 797 q 506 767 571 797 q 394 685 440 738 q 323 563 347 632 q 299 418 299 494 q 330 291 299 346 q 420 206 361 236 q 564 175 479 175 z "},"Ȣ":{"ha":1051,"x_min":26,"x_max":1074,"o":"m 481 -14 q 224 31 329 -14 q 73 155 119 76 q 46 336 26 233 q 130 500 65 432 q 301 606 194 568 q 550 643 407 643 q 799 601 694 643 q 954 484 904 560 q 985 306 1004 408 q 901 135 967 207 q 728 25 835 64 q 481 -14 621 -14 m 500 160 q 631 178 575 160 q 722 233 688 197 q 765 319 757 269 q 752 412 775 371 q 674 476 729 453 q 535 499 619 499 q 403 480 460 499 q 313 426 347 461 q 269 340 279 390 q 283 248 261 289 q 360 183 306 207 q 500 160 415 160 m 568 514 q 338 551 431 514 q 207 660 246 589 q 188 829 168 731 l 217 972 l 440 972 l 410 818 q 418 732 399 768 q 482 676 438 696 q 593 657 526 657 q 703 676 657 657 q 780 731 750 694 q 821 819 810 767 l 851 972 l 1074 972 l 1042 806 q 961 648 1024 714 q 799 548 899 582 q 568 514 700 514 z "},"Ó":{"ha":1172,"x_min":71,"x_max":1146,"o":"m 544 -17 q 291 37 397 -17 q 128 185 185 90 q 71 406 71 281 q 114 637 71 531 q 237 822 157 743 q 427 944 317 900 q 672 989 538 989 q 926 935 819 989 q 1089 787 1032 882 q 1146 567 1146 692 q 1103 335 1146 442 q 980 151 1060 229 q 790 28 900 72 q 544 -17 679 -17 m 564 175 q 712 205 646 175 q 824 288 778 235 q 894 409 869 340 q 918 554 918 478 q 888 681 918 626 q 798 767 857 736 q 653 797 739 797 q 506 767 571 797 q 394 685 440 738 q 323 563 347 632 q 299 418 299 494 q 330 291 299 346 q 420 206 361 236 q 564 175 479 175 m 590 1051 l 799 1251 l 1038 1251 l 765 1051 l 590 1051 z "},"Ŏ":{"ha":1172,"x_min":71,"x_max":1146,"o":"m 544 -17 q 291 37 397 -17 q 128 185 185 90 q 71 406 71 281 q 114 637 71 531 q 237 822 157 743 q 427 944 317 900 q 672 989 538 989 q 926 935 819 989 q 1089 787 1032 882 q 1146 567 1146 692 q 1103 335 1146 442 q 980 151 1060 229 q 790 28 900 72 q 544 -17 679 -17 m 564 175 q 712 205 646 175 q 824 288 778 235 q 894 409 869 340 q 918 554 918 478 q 888 681 918 626 q 798 767 857 736 q 653 797 739 797 q 506 767 571 797 q 394 685 440 738 q 323 563 347 632 q 299 418 299 494 q 330 291 299 346 q 420 206 361 236 q 564 175 479 175 m 739 1054 q 615 1080 669 1054 q 532 1153 560 1106 q 508 1265 504 1201 l 642 1265 q 670 1193 640 1219 q 751 1167 700 1167 q 838 1193 803 1167 q 881 1265 872 1219 l 1021 1265 q 926 1111 1003 1168 q 739 1054 849 1054 z "},"Ǒ":{"ha":1172,"x_min":71,"x_max":1146,"o":"m 544 -17 q 291 37 397 -17 q 128 185 185 90 q 71 406 71 281 q 114 637 71 531 q 237 822 157 743 q 427 944 317 900 q 672 989 538 989 q 926 935 819 989 q 1089 787 1032 882 q 1146 567 1146 692 q 1103 335 1146 442 q 980 151 1060 229 q 790 28 900 72 q 544 -17 679 -17 m 564 175 q 712 205 646 175 q 824 288 778 235 q 894 409 869 340 q 918 554 918 478 q 888 681 918 626 q 798 767 857 736 q 653 797 739 797 q 506 767 571 797 q 394 685 440 738 q 323 563 347 632 q 299 418 299 494 q 330 291 299 346 q 420 206 361 236 q 564 175 479 175 m 614 1051 l 458 1251 l 613 1251 l 783 1086 l 640 1086 l 854 1251 l 1015 1251 l 806 1051 l 614 1051 z "},"Ɵ":{"ha":1178,"x_min":75,"x_max":1149,"o":"m 549 -17 q 294 37 400 -17 q 132 185 189 90 q 75 406 75 281 q 118 637 75 531 q 241 822 161 743 q 431 944 321 900 q 675 989 542 989 q 930 935 824 989 q 1092 787 1036 882 q 1149 567 1149 692 q 1106 335 1149 442 q 983 151 1063 229 q 792 28 903 72 q 549 -17 682 -17 m 568 175 q 715 205 650 175 q 827 288 781 235 q 898 409 874 340 q 922 554 922 478 q 891 681 922 626 q 801 767 860 736 q 656 797 742 797 q 509 767 575 797 q 397 685 443 738 q 326 563 350 632 q 301 418 301 494 q 333 291 301 346 q 423 206 364 236 q 568 175 482 175 m 138 421 l 160 572 l 1085 572 l 1063 421 l 138 421 z "},"Ô":{"ha":1172,"x_min":71,"x_max":1146,"o":"m 544 -17 q 291 37 397 -17 q 128 185 185 90 q 71 406 71 281 q 114 637 71 531 q 237 822 157 743 q 427 944 317 900 q 672 989 538 989 q 926 935 819 989 q 1089 787 1032 882 q 1146 567 1146 692 q 1103 335 1146 442 q 980 151 1060 229 q 790 28 900 72 q 544 -17 679 -17 m 564 175 q 712 205 646 175 q 824 288 778 235 q 894 409 869 340 q 918 554 918 478 q 888 681 918 626 q 798 767 857 736 q 653 797 739 797 q 506 767 571 797 q 394 685 440 738 q 323 563 347 632 q 299 418 299 494 q 330 291 299 346 q 420 206 361 236 q 564 175 479 175 m 450 1051 l 661 1251 l 851 1251 l 1008 1051 l 854 1051 l 683 1218 l 826 1218 l 613 1051 l 450 1051 z "},"Ố":{"ha":1172,"x_min":71,"x_max":1288,"o":"m 544 -17 q 291 37 397 -17 q 128 185 185 90 q 71 406 71 281 q 114 637 71 531 q 237 822 157 743 q 427 944 317 900 q 672 989 538 989 q 926 935 819 989 q 1089 787 1032 882 q 1146 567 1146 692 q 1103 335 1146 442 q 980 151 1060 229 q 790 28 900 72 q 544 -17 679 -17 m 564 175 q 712 205 646 175 q 824 288 778 235 q 894 409 869 340 q 918 554 918 478 q 888 681 918 626 q 798 767 857 736 q 653 797 739 797 q 506 767 571 797 q 394 685 440 738 q 323 563 347 632 q 299 418 299 494 q 330 291 299 346 q 420 206 361 236 q 564 175 479 175 m 446 1051 l 654 1210 l 842 1210 l 1004 1051 l 847 1051 l 678 1176 l 815 1176 l 608 1051 l 446 1051 m 889 1185 l 1061 1353 l 1288 1353 l 1051 1185 l 889 1185 z "},"Ộ":{"ha":1172,"x_min":71,"x_max":1146,"o":"m 544 -17 q 291 37 397 -17 q 128 185 185 90 q 71 406 71 281 q 114 637 71 531 q 237 822 157 743 q 427 944 317 900 q 672 989 538 989 q 926 935 819 989 q 1089 787 1032 882 q 1146 567 1146 692 q 1103 335 1146 442 q 980 151 1060 229 q 790 28 900 72 q 544 -17 679 -17 m 564 175 q 712 205 646 175 q 824 288 778 235 q 894 409 869 340 q 918 554 918 478 q 888 681 918 626 q 798 767 857 736 q 653 797 739 797 q 506 767 571 797 q 394 685 440 738 q 323 563 347 632 q 299 418 299 494 q 330 291 299 346 q 420 206 361 236 q 564 175 479 175 m 464 -311 q 384 -282 414 -311 q 354 -208 354 -253 q 391 -113 354 -150 q 481 -76 428 -76 q 559 -106 529 -76 q 589 -181 589 -135 q 553 -275 589 -239 q 464 -311 517 -311 m 450 1051 l 661 1251 l 851 1251 l 1008 1051 l 854 1051 l 683 1218 l 826 1218 l 613 1051 l 450 1051 z "},"Ồ":{"ha":1172,"x_min":71,"x_max":1146,"o":"m 544 -17 q 291 37 397 -17 q 128 185 185 90 q 71 406 71 281 q 114 637 71 531 q 237 822 157 743 q 427 944 317 900 q 672 989 538 989 q 926 935 819 989 q 1089 787 1032 882 q 1146 567 1146 692 q 1103 335 1146 442 q 980 151 1060 229 q 790 28 900 72 q 544 -17 679 -17 m 564 175 q 712 205 646 175 q 824 288 778 235 q 894 409 869 340 q 918 554 918 478 q 888 681 918 626 q 798 767 857 736 q 653 797 739 797 q 506 767 571 797 q 394 685 440 738 q 323 563 347 632 q 299 418 299 494 q 330 291 299 346 q 420 206 361 236 q 564 175 479 175 m 443 1051 l 651 1210 l 839 1210 l 1001 1051 l 844 1051 l 675 1176 l 813 1176 l 606 1051 l 443 1051 m 971 1185 l 786 1353 l 1008 1353 l 1128 1185 l 971 1185 z "},"Ổ":{"ha":1172,"x_min":71,"x_max":1146,"o":"m 544 -17 q 291 37 397 -17 q 128 185 185 90 q 71 406 71 281 q 114 637 71 531 q 237 822 157 743 q 427 944 317 900 q 672 989 538 989 q 926 935 819 989 q 1089 787 1032 882 q 1146 567 1146 692 q 1103 335 1146 442 q 980 151 1060 229 q 790 28 900 72 q 544 -17 679 -17 m 564 175 q 712 205 646 175 q 824 288 778 235 q 894 409 869 340 q 918 554 918 478 q 888 681 918 626 q 798 767 857 736 q 653 797 739 797 q 506 767 571 797 q 394 685 440 738 q 323 563 347 632 q 299 418 299 494 q 330 291 299 346 q 420 206 361 236 q 564 175 479 175 m 443 1051 l 651 1210 l 839 1210 l 1001 1051 l 844 1051 l 675 1176 l 813 1176 l 606 1051 l 443 1051 m 975 1158 l 928 1210 q 976 1242 964 1225 q 988 1275 988 1260 q 976 1299 988 1290 q 947 1308 965 1308 q 882 1292 915 1308 l 856 1360 q 972 1389 910 1389 q 1058 1363 1026 1389 q 1089 1293 1089 1338 q 1056 1212 1089 1246 q 975 1158 1024 1178 z "},"Ỗ":{"ha":1172,"x_min":71,"x_max":1146,"o":"m 544 -17 q 291 37 397 -17 q 128 185 185 90 q 71 406 71 281 q 114 637 71 531 q 237 822 157 743 q 427 944 317 900 q 672 989 538 989 q 926 935 819 989 q 1089 787 1032 882 q 1146 567 1146 692 q 1103 335 1146 442 q 980 151 1060 229 q 790 28 900 72 q 544 -17 679 -17 m 564 175 q 712 205 646 175 q 824 288 778 235 q 894 409 869 340 q 918 554 918 478 q 888 681 918 626 q 798 767 857 736 q 653 797 739 797 q 506 767 571 797 q 394 685 440 738 q 323 563 347 632 q 299 418 299 494 q 330 291 299 346 q 420 206 361 236 q 564 175 479 175 m 442 1051 l 650 1210 l 838 1210 l 1000 1051 l 843 1051 l 674 1176 l 811 1176 l 604 1051 l 442 1051 m 871 1258 q 792 1276 824 1258 q 738 1313 761 1294 q 689 1332 714 1332 q 643 1315 661 1332 q 618 1267 625 1297 l 507 1267 q 567 1394 519 1350 q 689 1438 615 1438 q 767 1419 736 1438 q 822 1383 797 1401 q 871 1364 846 1364 q 919 1383 901 1364 q 943 1428 938 1401 l 1051 1428 q 993 1303 1040 1349 q 871 1258 946 1258 z "},"Ȍ":{"ha":1172,"x_min":71,"x_max":1146,"o":"m 544 -17 q 291 37 397 -17 q 128 185 185 90 q 71 406 71 281 q 114 637 71 531 q 237 822 157 743 q 427 944 317 900 q 672 989 538 989 q 926 935 819 989 q 1089 787 1032 882 q 1146 567 1146 692 q 1103 335 1146 442 q 980 151 1060 229 q 790 28 900 72 q 544 -17 679 -17 m 564 175 q 712 205 646 175 q 824 288 778 235 q 894 409 869 340 q 918 554 918 478 q 888 681 918 626 q 798 767 857 736 q 653 797 739 797 q 506 767 571 797 q 394 685 440 738 q 323 563 347 632 q 299 418 299 494 q 330 291 299 346 q 420 206 361 236 q 564 175 479 175 m 788 1051 l 682 1251 l 876 1251 l 938 1051 l 788 1051 m 507 1051 l 401 1251 l 596 1251 l 657 1051 l 507 1051 z "},"Ö":{"ha":1172,"x_min":71,"x_max":1146,"o":"m 544 -17 q 291 37 397 -17 q 128 185 185 90 q 71 406 71 281 q 114 637 71 531 q 237 822 157 743 q 427 944 317 900 q 672 989 538 989 q 926 935 819 989 q 1089 787 1032 882 q 1146 567 1146 692 q 1103 335 1146 442 q 980 151 1060 229 q 790 28 900 72 q 544 -17 679 -17 m 564 175 q 712 205 646 175 q 824 288 778 235 q 894 409 869 340 q 918 554 918 478 q 888 681 918 626 q 798 767 857 736 q 653 797 739 797 q 506 767 571 797 q 394 685 440 738 q 323 563 347 632 q 299 418 299 494 q 330 291 299 346 q 420 206 361 236 q 564 175 479 175 m 883 1058 q 819 1082 844 1058 q 793 1144 793 1106 q 824 1221 793 1192 q 896 1250 854 1250 q 960 1226 933 1250 q 986 1164 986 1203 q 955 1088 986 1117 q 883 1058 924 1058 m 601 1058 q 538 1082 564 1058 q 511 1144 511 1106 q 542 1221 511 1192 q 614 1250 574 1250 q 679 1226 653 1250 q 706 1164 706 1203 q 674 1088 706 1117 q 601 1058 642 1058 z "},"Ȫ":{"ha":1172,"x_min":71,"x_max":1146,"o":"m 544 -17 q 291 37 397 -17 q 128 185 185 90 q 71 406 71 281 q 114 637 71 531 q 237 822 157 743 q 427 944 317 900 q 672 989 538 989 q 926 935 819 989 q 1089 787 1032 882 q 1146 567 1146 692 q 1103 335 1146 442 q 980 151 1060 229 q 790 28 900 72 q 544 -17 679 -17 m 564 175 q 712 205 646 175 q 824 288 778 235 q 894 409 869 340 q 918 554 918 478 q 888 681 918 626 q 798 767 857 736 q 653 797 739 797 q 506 767 571 797 q 394 685 440 738 q 323 563 347 632 q 299 418 299 494 q 330 291 299 346 q 420 206 361 236 q 564 175 479 175 m 872 1054 q 810 1076 835 1054 q 786 1136 786 1099 q 816 1209 786 1181 q 883 1238 846 1238 q 946 1215 922 1238 q 969 1153 969 1192 q 940 1081 969 1108 q 872 1054 911 1054 m 600 1054 q 538 1076 563 1054 q 514 1136 514 1099 q 544 1209 514 1181 q 613 1238 574 1238 q 674 1215 650 1238 q 699 1153 699 1192 q 669 1081 699 1108 q 600 1054 639 1054 m 517 1313 l 539 1428 l 1053 1428 l 1031 1313 l 517 1313 z "},"Ȯ":{"ha":1172,"x_min":71,"x_max":1146,"o":"m 544 -17 q 291 37 397 -17 q 128 185 185 90 q 71 406 71 281 q 114 637 71 531 q 237 822 157 743 q 427 944 317 900 q 672 989 538 989 q 926 935 819 989 q 1089 787 1032 882 q 1146 567 1146 692 q 1103 335 1146 442 q 980 151 1060 229 q 790 28 900 72 q 544 -17 679 -17 m 564 175 q 712 205 646 175 q 824 288 778 235 q 894 409 869 340 q 918 554 918 478 q 888 681 918 626 q 798 767 857 736 q 653 797 739 797 q 506 767 571 797 q 394 685 440 738 q 323 563 347 632 q 299 418 299 494 q 330 291 299 346 q 420 206 361 236 q 564 175 479 175 m 736 1058 q 656 1088 686 1058 q 626 1161 626 1117 q 663 1256 626 1219 q 753 1293 700 1293 q 831 1264 801 1293 q 861 1189 861 1235 q 825 1094 861 1131 q 736 1058 789 1058 z "},"Ȱ":{"ha":1172,"x_min":71,"x_max":1146,"o":"m 544 -17 q 291 37 397 -17 q 128 185 185 90 q 71 406 71 281 q 114 637 71 531 q 237 822 157 743 q 427 944 317 900 q 672 989 538 989 q 926 935 819 989 q 1089 787 1032 882 q 1146 567 1146 692 q 1103 335 1146 442 q 980 151 1060 229 q 790 28 900 72 q 544 -17 679 -17 m 564 175 q 712 205 646 175 q 824 288 778 235 q 894 409 869 340 q 918 554 918 478 q 888 681 918 626 q 798 767 857 736 q 653 797 739 797 q 506 767 571 797 q 394 685 440 738 q 323 563 347 632 q 299 418 299 494 q 330 291 299 346 q 420 206 361 236 q 564 175 479 175 m 733 1050 q 670 1074 696 1050 q 644 1138 644 1097 q 675 1213 644 1183 q 747 1242 706 1242 q 811 1218 785 1242 q 838 1153 838 1194 q 806 1079 838 1108 q 733 1050 775 1050 m 514 1313 l 536 1428 l 1050 1428 l 1028 1313 l 514 1313 z "},"Ọ":{"ha":1172,"x_min":71,"x_max":1146,"o":"m 544 -17 q 291 37 397 -17 q 128 185 185 90 q 71 406 71 281 q 114 637 71 531 q 237 822 157 743 q 427 944 317 900 q 672 989 538 989 q 926 935 819 989 q 1089 787 1032 882 q 1146 567 1146 692 q 1103 335 1146 442 q 980 151 1060 229 q 790 28 900 72 q 544 -17 679 -17 m 564 175 q 712 205 646 175 q 824 288 778 235 q 894 409 869 340 q 918 554 918 478 q 888 681 918 626 q 798 767 857 736 q 653 797 739 797 q 506 767 571 797 q 394 685 440 738 q 323 563 347 632 q 299 418 299 494 q 330 291 299 346 q 420 206 361 236 q 564 175 479 175 m 464 -311 q 384 -282 414 -311 q 354 -208 354 -253 q 391 -113 354 -150 q 481 -76 428 -76 q 559 -106 529 -76 q 589 -181 589 -135 q 553 -275 589 -239 q 464 -311 517 -311 z "},"Ò":{"ha":1172,"x_min":71,"x_max":1146,"o":"m 544 -17 q 291 37 397 -17 q 128 185 185 90 q 71 406 71 281 q 114 637 71 531 q 237 822 157 743 q 427 944 317 900 q 672 989 538 989 q 926 935 819 989 q 1089 787 1032 882 q 1146 567 1146 692 q 1103 335 1146 442 q 980 151 1060 229 q 790 28 900 72 q 544 -17 679 -17 m 564 175 q 712 205 646 175 q 824 288 778 235 q 894 409 869 340 q 918 554 918 478 q 888 681 918 626 q 798 767 857 736 q 653 797 739 797 q 506 767 571 797 q 394 685 440 738 q 323 563 347 632 q 299 418 299 494 q 330 291 299 346 q 420 206 361 236 q 564 175 479 175 m 678 1051 l 465 1251 l 699 1251 l 846 1051 l 678 1051 z "},"Ỏ":{"ha":1172,"x_min":71,"x_max":1146,"o":"m 544 -17 q 291 37 397 -17 q 128 185 185 90 q 71 406 71 281 q 114 637 71 531 q 237 822 157 743 q 427 944 317 900 q 672 989 538 989 q 926 935 819 989 q 1089 787 1032 882 q 1146 567 1146 692 q 1103 335 1146 442 q 980 151 1060 229 q 790 28 900 72 q 544 -17 679 -17 m 564 175 q 712 205 646 175 q 824 288 778 235 q 894 409 869 340 q 918 554 918 478 q 888 681 918 626 q 798 767 857 736 q 653 797 739 797 q 506 767 571 797 q 394 685 440 738 q 323 563 347 632 q 299 418 299 494 q 330 291 299 346 q 420 206 361 236 q 564 175 479 175 m 724 1007 l 667 1081 q 732 1124 714 1101 q 750 1174 750 1147 q 735 1211 750 1197 q 692 1225 719 1225 q 608 1197 650 1225 l 571 1288 q 645 1322 604 1310 q 728 1333 686 1333 q 838 1298 797 1333 q 879 1203 879 1263 q 839 1089 879 1138 q 724 1007 799 1040 z "},"Ơ":{"ha":1172,"x_min":71,"x_max":1242,"o":"m 544 -17 q 291 37 397 -17 q 128 185 185 90 q 71 406 71 281 q 114 637 71 531 q 237 822 157 743 q 427 944 317 900 q 672 989 538 989 q 790 983 740 989 q 884 969 840 976 q 975 963 928 963 q 1065 990 1033 963 q 1096 1060 1096 1017 q 1088 1106 1096 1085 q 1068 1143 1081 1128 l 1197 1190 q 1229 1128 1217 1163 q 1242 1050 1242 1093 q 1211 928 1242 979 q 1126 851 1181 878 q 1001 824 1072 824 q 963 826 983 824 q 921 831 943 828 l 1021 869 q 1114 737 1082 814 q 1146 567 1146 660 q 1103 335 1146 442 q 980 151 1060 229 q 790 28 900 72 q 544 -17 679 -17 m 564 175 q 712 205 646 175 q 824 288 778 235 q 894 409 869 340 q 918 554 918 478 q 888 681 918 626 q 798 767 857 736 q 653 797 739 797 q 506 767 571 797 q 394 685 440 738 q 323 563 347 632 q 299 418 299 494 q 330 291 299 346 q 420 206 361 236 q 564 175 479 175 z "},"Ớ":{"ha":1172,"x_min":71,"x_max":1242,"o":"m 544 -17 q 291 37 397 -17 q 128 185 185 90 q 71 406 71 281 q 114 637 71 531 q 237 822 157 743 q 427 944 317 900 q 672 989 538 989 q 790 983 740 989 q 884 969 840 976 q 975 963 928 963 q 1065 990 1033 963 q 1096 1060 1096 1017 q 1088 1106 1096 1085 q 1068 1143 1081 1128 l 1197 1190 q 1229 1128 1217 1163 q 1242 1050 1242 1093 q 1211 928 1242 979 q 1126 851 1181 878 q 1001 824 1072 824 q 963 826 983 824 q 921 831 943 828 l 1021 869 q 1114 737 1082 814 q 1146 567 1146 660 q 1103 335 1146 442 q 980 151 1060 229 q 790 28 900 72 q 544 -17 679 -17 m 564 175 q 712 205 646 175 q 824 288 778 235 q 894 409 869 340 q 918 554 918 478 q 888 681 918 626 q 798 767 857 736 q 653 797 739 797 q 506 767 571 797 q 394 685 440 738 q 323 563 347 632 q 299 418 299 494 q 330 291 299 346 q 420 206 361 236 q 564 175 479 175 m 590 1051 l 799 1251 l 1038 1251 l 765 1051 l 590 1051 z "},"Ợ":{"ha":1172,"x_min":71,"x_max":1242,"o":"m 544 -17 q 291 37 397 -17 q 128 185 185 90 q 71 406 71 281 q 114 637 71 531 q 237 822 157 743 q 427 944 317 900 q 672 989 538 989 q 790 983 740 989 q 884 969 840 976 q 975 963 928 963 q 1065 990 1033 963 q 1096 1060 1096 1017 q 1088 1106 1096 1085 q 1068 1143 1081 1128 l 1197 1190 q 1229 1128 1217 1163 q 1242 1050 1242 1093 q 1211 928 1242 979 q 1126 851 1181 878 q 1001 824 1072 824 q 963 826 983 824 q 921 831 943 828 l 1021 869 q 1114 737 1082 814 q 1146 567 1146 660 q 1103 335 1146 442 q 980 151 1060 229 q 790 28 900 72 q 544 -17 679 -17 m 564 175 q 712 205 646 175 q 824 288 778 235 q 894 409 869 340 q 918 554 918 478 q 888 681 918 626 q 798 767 857 736 q 653 797 739 797 q 506 767 571 797 q 394 685 440 738 q 323 563 347 632 q 299 418 299 494 q 330 291 299 346 q 420 206 361 236 q 564 175 479 175 m 464 -312 q 384 -283 414 -312 q 354 -210 354 -254 q 391 -115 354 -151 q 481 -78 428 -78 q 559 -107 529 -78 q 589 -182 589 -136 q 553 -276 589 -240 q 464 -312 517 -312 z "},"Ờ":{"ha":1172,"x_min":71,"x_max":1242,"o":"m 544 -17 q 291 37 397 -17 q 128 185 185 90 q 71 406 71 281 q 114 637 71 531 q 237 822 157 743 q 427 944 317 900 q 672 989 538 989 q 790 983 740 989 q 884 969 840 976 q 975 963 928 963 q 1065 990 1033 963 q 1096 1060 1096 1017 q 1088 1106 1096 1085 q 1068 1143 1081 1128 l 1197 1190 q 1229 1128 1217 1163 q 1242 1050 1242 1093 q 1211 928 1242 979 q 1126 851 1181 878 q 1001 824 1072 824 q 963 826 983 824 q 921 831 943 828 l 1021 869 q 1114 737 1082 814 q 1146 567 1146 660 q 1103 335 1146 442 q 980 151 1060 229 q 790 28 900 72 q 544 -17 679 -17 m 564 175 q 712 205 646 175 q 824 288 778 235 q 894 409 869 340 q 918 554 918 478 q 888 681 918 626 q 798 767 857 736 q 653 797 739 797 q 506 767 571 797 q 394 685 440 738 q 323 563 347 632 q 299 418 299 494 q 330 291 299 346 q 420 206 361 236 q 564 175 479 175 m 678 1051 l 465 1251 l 699 1251 l 846 1051 l 678 1051 z "},"Ở":{"ha":1172,"x_min":71,"x_max":1242,"o":"m 544 -17 q 291 37 397 -17 q 128 185 185 90 q 71 406 71 281 q 114 637 71 531 q 237 822 157 743 q 427 944 317 900 q 672 989 538 989 q 790 983 740 989 q 884 969 840 976 q 975 963 928 963 q 1065 990 1033 963 q 1096 1060 1096 1017 q 1088 1106 1096 1085 q 1068 1143 1081 1128 l 1197 1190 q 1229 1128 1217 1163 q 1242 1050 1242 1093 q 1211 928 1242 979 q 1126 851 1181 878 q 1001 824 1072 824 q 963 826 983 824 q 921 831 943 828 l 1021 869 q 1114 737 1082 814 q 1146 567 1146 660 q 1103 335 1146 442 q 980 151 1060 229 q 790 28 900 72 q 544 -17 679 -17 m 564 175 q 712 205 646 175 q 824 288 778 235 q 894 409 869 340 q 918 554 918 478 q 888 681 918 626 q 798 767 857 736 q 653 797 739 797 q 506 767 571 797 q 394 685 440 738 q 323 563 347 632 q 299 418 299 494 q 330 291 299 346 q 420 206 361 236 q 564 175 479 175 m 724 1007 l 667 1081 q 732 1124 714 1101 q 750 1174 750 1147 q 735 1211 750 1197 q 692 1225 719 1225 q 608 1197 650 1225 l 571 1288 q 645 1322 604 1310 q 728 1333 686 1333 q 838 1298 797 1333 q 879 1203 879 1263 q 839 1089 879 1138 q 724 1007 799 1040 z "},"Ỡ":{"ha":1172,"x_min":71,"x_max":1242,"o":"m 544 -17 q 291 37 397 -17 q 128 185 185 90 q 71 406 71 281 q 114 637 71 531 q 237 822 157 743 q 427 944 317 900 q 672 989 538 989 q 790 983 740 989 q 884 969 840 976 q 975 963 928 963 q 1065 990 1033 963 q 1096 1060 1096 1017 q 1088 1106 1096 1085 q 1068 1143 1081 1128 l 1197 1190 q 1229 1128 1217 1163 q 1242 1050 1242 1093 q 1211 928 1242 979 q 1126 851 1181 878 q 1001 824 1072 824 q 963 826 983 824 q 921 831 943 828 l 1021 869 q 1114 737 1082 814 q 1146 567 1146 660 q 1103 335 1146 442 q 980 151 1060 229 q 790 28 900 72 q 544 -17 679 -17 m 564 175 q 712 205 646 175 q 824 288 778 235 q 894 409 869 340 q 918 554 918 478 q 888 681 918 626 q 798 767 857 736 q 653 797 739 797 q 506 767 571 797 q 394 685 440 738 q 323 563 347 632 q 299 418 299 494 q 330 291 299 346 q 420 206 361 236 q 564 175 479 175 m 838 1047 q 774 1060 801 1047 q 726 1091 747 1074 q 685 1122 704 1108 q 644 1135 665 1135 q 596 1114 615 1135 q 569 1057 576 1093 l 460 1057 q 525 1208 476 1156 q 644 1260 574 1260 q 708 1247 681 1260 q 756 1215 735 1233 q 797 1184 778 1197 q 839 1171 817 1171 q 888 1192 868 1171 q 913 1246 907 1214 l 1022 1246 q 958 1099 1007 1151 q 838 1047 910 1047 z "},"Ő":{"ha":1172,"x_min":71,"x_max":1146,"o":"m 544 -17 q 291 37 397 -17 q 128 185 185 90 q 71 406 71 281 q 114 637 71 531 q 237 822 157 743 q 427 944 317 900 q 672 989 538 989 q 926 935 819 989 q 1089 787 1032 882 q 1146 567 1146 692 q 1103 335 1146 442 q 980 151 1060 229 q 790 28 900 72 q 544 -17 679 -17 m 564 175 q 712 205 646 175 q 824 288 778 235 q 894 409 869 340 q 918 554 918 478 q 888 681 918 626 q 798 767 857 736 q 653 797 739 797 q 506 767 571 797 q 394 685 440 738 q 323 563 347 632 q 299 418 299 494 q 330 291 299 346 q 420 206 361 236 q 564 175 479 175 m 781 1051 l 901 1251 l 1110 1251 l 942 1051 l 781 1051 m 499 1051 l 621 1251 l 829 1251 l 663 1051 l 499 1051 z "},"Ȏ":{"ha":1172,"x_min":71,"x_max":1146,"o":"m 544 -17 q 291 37 397 -17 q 128 185 185 90 q 71 406 71 281 q 114 637 71 531 q 237 822 157 743 q 427 944 317 900 q 672 989 538 989 q 926 935 819 989 q 1089 787 1032 882 q 1146 567 1146 692 q 1103 335 1146 442 q 980 151 1060 229 q 790 28 900 72 q 544 -17 679 -17 m 564 175 q 712 205 646 175 q 824 288 778 235 q 894 409 869 340 q 918 554 918 478 q 888 681 918 626 q 798 767 857 736 q 653 797 739 797 q 506 767 571 797 q 394 685 440 738 q 323 563 347 632 q 299 418 299 494 q 330 291 299 346 q 420 206 361 236 q 564 175 479 175 m 464 1051 q 560 1207 483 1150 q 747 1264 638 1264 q 871 1238 818 1264 q 953 1164 924 1211 q 976 1051 982 1117 l 843 1051 q 816 1124 846 1097 q 735 1151 786 1151 q 649 1124 683 1151 q 604 1051 614 1097 l 464 1051 z "},"Ō":{"ha":1172,"x_min":71,"x_max":1146,"o":"m 544 -17 q 291 37 397 -17 q 128 185 185 90 q 71 406 71 281 q 114 637 71 531 q 237 822 157 743 q 427 944 317 900 q 672 989 538 989 q 926 935 819 989 q 1089 787 1032 882 q 1146 567 1146 692 q 1103 335 1146 442 q 980 151 1060 229 q 790 28 900 72 q 544 -17 679 -17 m 564 175 q 712 205 646 175 q 824 288 778 235 q 894 409 869 340 q 918 554 918 478 q 888 681 918 626 q 798 767 857 736 q 653 797 739 797 q 506 767 571 797 q 394 685 440 738 q 323 563 347 632 q 299 418 299 494 q 330 291 299 346 q 420 206 361 236 q 564 175 479 175 m 474 1090 l 496 1213 l 1010 1213 l 986 1090 l 474 1090 z "},"Ṓ":{"ha":1172,"x_min":71,"x_max":1146,"o":"m 544 -17 q 291 37 397 -17 q 128 185 185 90 q 71 406 71 281 q 114 637 71 531 q 237 822 157 743 q 427 944 317 900 q 672 989 538 989 q 926 935 819 989 q 1089 787 1032 882 q 1146 567 1146 692 q 1103 335 1146 442 q 980 151 1060 229 q 790 28 900 72 q 544 -17 679 -17 m 564 175 q 712 205 646 175 q 824 288 778 235 q 894 409 869 340 q 918 554 918 478 q 888 681 918 626 q 798 767 857 736 q 653 797 739 797 q 506 767 571 797 q 394 685 440 738 q 323 563 347 632 q 299 418 299 494 q 330 291 299 346 q 420 206 361 236 q 564 175 479 175 m 471 1078 l 493 1193 l 1007 1193 l 985 1078 l 471 1078 m 635 1278 l 807 1446 l 1033 1446 l 797 1278 l 635 1278 z "},"Ṑ":{"ha":1172,"x_min":71,"x_max":1146,"o":"m 544 -17 q 291 37 397 -17 q 128 185 185 90 q 71 406 71 281 q 114 637 71 531 q 237 822 157 743 q 427 944 317 900 q 672 989 538 989 q 926 935 819 989 q 1089 787 1032 882 q 1146 567 1146 692 q 1103 335 1146 442 q 980 151 1060 229 q 790 28 900 72 q 544 -17 679 -17 m 564 175 q 712 205 646 175 q 824 288 778 235 q 894 409 869 340 q 918 554 918 478 q 888 681 918 626 q 798 767 857 736 q 653 797 739 797 q 506 767 571 797 q 394 685 440 738 q 323 563 347 632 q 299 418 299 494 q 330 291 299 346 q 420 206 361 236 q 564 175 479 175 m 469 1078 l 492 1193 l 1006 1193 l 983 1078 l 469 1078 m 725 1278 l 540 1446 l 763 1446 l 882 1278 l 725 1278 z "},"Ꞷ":{"ha":1457,"x_min":63,"x_max":1440,"o":"m 390 -14 q 194 49 271 -14 q 90 227 117 113 q 92 496 63 342 q 144 672 110 585 q 224 838 178 760 q 324 972 269 915 l 553 972 q 451 826 499 907 q 368 658 403 746 q 317 485 333 571 q 306 319 297 389 q 349 213 314 250 q 440 176 383 176 q 521 199 486 176 q 579 268 556 221 q 617 383 603 315 l 665 625 l 890 625 l 842 383 q 838 274 829 321 q 877 202 847 228 q 954 176 907 176 q 1054 212 1010 176 q 1131 317 1099 247 q 1182 488 1164 388 q 1197 747 1207 621 q 1143 972 1186 872 l 1371 972 q 1429 758 1418 879 q 1414 494 1440 638 q 1319 221 1383 335 q 1163 47 1254 107 q 956 -14 1071 -14 q 783 30 856 -14 q 678 150 711 74 q 661 322 646 226 l 772 322 q 694 142 749 218 q 562 26 639 67 q 390 -14 485 -14 z "},"Ǫ":{"ha":1172,"x_min":71,"x_max":1146,"o":"m 488 -322 q 361 -286 410 -322 q 313 -185 313 -250 q 365 -58 313 -115 q 517 38 417 0 l 544 -17 q 291 37 397 -17 q 128 185 185 90 q 71 406 71 281 q 114 637 71 531 q 237 822 157 743 q 427 944 317 900 q 672 989 538 989 q 926 935 819 989 q 1089 787 1032 882 q 1146 567 1146 692 q 1088 303 1146 422 q 926 104 1031 183 q 682 -3 822 25 q 547 -47 596 -21 q 476 -100 497 -72 q 456 -154 456 -128 q 474 -197 456 -182 q 524 -212 493 -212 q 570 -206 547 -212 q 611 -192 593 -200 l 628 -290 q 565 -313 600 -304 q 488 -322 529 -322 m 564 175 q 712 205 646 175 q 824 288 778 235 q 894 409 869 340 q 918 554 918 478 q 888 681 918 626 q 798 767 857 736 q 653 797 739 797 q 506 767 571 797 q 394 685 440 738 q 323 563 347 632 q 299 418 299 494 q 330 291 299 346 q 420 206 361 236 q 564 175 479 175 z "},"Ǭ":{"ha":1172,"x_min":71,"x_max":1146,"o":"m 488 -322 q 361 -286 410 -322 q 313 -185 313 -250 q 365 -58 313 -115 q 517 38 417 0 l 544 -17 q 291 37 397 -17 q 128 185 185 90 q 71 406 71 281 q 114 637 71 531 q 237 822 157 743 q 427 944 317 900 q 672 989 538 989 q 926 935 819 989 q 1089 787 1032 882 q 1146 567 1146 692 q 1088 303 1146 422 q 926 104 1031 183 q 682 -3 822 25 q 547 -47 596 -21 q 476 -100 497 -72 q 456 -154 456 -128 q 474 -197 456 -182 q 524 -212 493 -212 q 570 -206 547 -212 q 611 -192 593 -200 l 628 -290 q 565 -313 600 -304 q 488 -322 529 -322 m 564 175 q 712 205 646 175 q 824 288 778 235 q 894 409 869 340 q 918 554 918 478 q 888 681 918 626 q 798 767 857 736 q 653 797 739 797 q 506 767 571 797 q 394 685 440 738 q 323 563 347 632 q 299 418 299 494 q 330 291 299 346 q 420 206 361 236 q 564 175 479 175 m 474 1090 l 496 1213 l 1010 1213 l 986 1090 l 474 1090 z "},"Ɔ":{"ha":1018,"x_min":7,"x_max":992,"o":"m 511 989 q 769 935 661 989 q 934 787 876 882 q 992 567 992 692 q 949 336 992 443 q 826 151 906 229 q 635 28 746 72 q 388 -17 524 -17 q 159 28 260 -17 q 7 156 58 72 l 169 289 q 265 204 207 233 q 403 175 322 175 q 553 203 486 175 q 667 284 619 232 q 739 406 714 336 q 764 553 764 475 q 733 681 764 626 q 641 767 701 736 q 492 797 581 797 q 353 770 418 797 q 233 685 288 743 l 101 821 q 283 950 178 911 q 511 989 388 989 z "},"Ø":{"ha":1172,"x_min":71,"x_max":1146,"o":"m 544 -17 q 291 37 397 -17 q 128 185 185 90 q 71 406 71 281 q 114 637 71 531 q 237 822 157 743 q 427 944 317 900 q 672 989 538 989 q 926 935 819 989 q 1089 787 1032 882 q 1146 567 1146 692 q 1103 335 1146 442 q 980 151 1060 229 q 790 28 900 72 q 544 -17 679 -17 m 564 175 q 712 205 646 175 q 824 288 778 235 q 894 409 869 340 q 918 554 918 478 q 888 681 918 626 q 798 767 857 736 q 653 797 739 797 q 506 767 571 797 q 394 685 440 738 q 323 563 347 632 q 299 418 299 494 q 330 291 299 346 q 420 206 361 236 q 564 175 479 175 m 93 -97 l 963 1069 l 1125 1069 l 256 -97 l 93 -97 z "},"Ǿ":{"ha":1172,"x_min":71,"x_max":1146,"o":"m 544 -17 q 291 37 397 -17 q 128 185 185 90 q 71 406 71 281 q 114 637 71 531 q 237 822 157 743 q 427 944 317 900 q 672 989 538 989 q 926 935 819 989 q 1089 787 1032 882 q 1146 567 1146 692 q 1103 335 1146 442 q 980 151 1060 229 q 790 28 900 72 q 544 -17 679 -17 m 564 175 q 712 205 646 175 q 824 288 778 235 q 894 409 869 340 q 918 554 918 478 q 888 681 918 626 q 798 767 857 736 q 653 797 739 797 q 506 767 571 797 q 394 685 440 738 q 323 563 347 632 q 299 418 299 494 q 330 291 299 346 q 420 206 361 236 q 564 175 479 175 m 93 -97 l 963 1069 l 1125 1069 l 256 -97 l 93 -97 m 590 1051 l 799 1251 l 1038 1251 l 765 1051 l 590 1051 z "},"Õ":{"ha":1172,"x_min":71,"x_max":1146,"o":"m 544 -17 q 291 37 397 -17 q 128 185 185 90 q 71 406 71 281 q 114 637 71 531 q 237 822 157 743 q 427 944 317 900 q 672 989 538 989 q 926 935 819 989 q 1089 787 1032 882 q 1146 567 1146 692 q 1103 335 1146 442 q 980 151 1060 229 q 790 28 900 72 q 544 -17 679 -17 m 564 175 q 712 205 646 175 q 824 288 778 235 q 894 409 869 340 q 918 554 918 478 q 888 681 918 626 q 798 767 857 736 q 653 797 739 797 q 506 767 571 797 q 394 685 440 738 q 323 563 347 632 q 299 418 299 494 q 330 291 299 346 q 420 206 361 236 q 564 175 479 175 m 838 1047 q 774 1060 801 1047 q 726 1091 747 1074 q 685 1122 704 1108 q 644 1135 665 1135 q 596 1114 615 1135 q 569 1057 576 1093 l 460 1057 q 525 1208 476 1156 q 644 1260 574 1260 q 708 1247 681 1260 q 756 1215 735 1233 q 797 1184 778 1197 q 839 1171 817 1171 q 888 1192 868 1171 q 913 1246 907 1214 l 1022 1246 q 958 1099 1007 1151 q 838 1047 910 1047 z "},"Ṍ":{"ha":1172,"x_min":71,"x_max":1146,"o":"m 544 -17 q 291 37 397 -17 q 128 185 185 90 q 71 406 71 281 q 114 637 71 531 q 237 822 157 743 q 427 944 317 900 q 672 989 538 989 q 926 935 819 989 q 1089 787 1032 882 q 1146 567 1146 692 q 1103 335 1146 442 q 980 151 1060 229 q 790 28 900 72 q 544 -17 679 -17 m 564 175 q 712 205 646 175 q 824 288 778 235 q 894 409 869 340 q 918 554 918 478 q 888 681 918 626 q 798 767 857 736 q 653 797 739 797 q 506 767 571 797 q 394 685 440 738 q 323 563 347 632 q 299 418 299 494 q 330 291 299 346 q 420 206 361 236 q 564 175 479 175 m 831 1049 q 752 1067 783 1049 q 697 1103 721 1085 q 649 1122 674 1122 q 603 1105 621 1122 q 578 1057 585 1088 l 467 1057 q 527 1184 479 1140 q 649 1228 575 1228 q 726 1210 696 1228 q 781 1173 757 1192 q 831 1154 806 1154 q 879 1173 861 1154 q 903 1218 897 1192 l 1011 1218 q 953 1094 1000 1139 q 831 1049 906 1049 m 642 1275 l 814 1443 l 1040 1443 l 804 1275 l 642 1275 z "},"Ṏ":{"ha":1172,"x_min":71,"x_max":1146,"o":"m 544 -17 q 291 37 397 -17 q 128 185 185 90 q 71 406 71 281 q 114 637 71 531 q 237 822 157 743 q 427 944 317 900 q 672 989 538 989 q 926 935 819 989 q 1089 787 1032 882 q 1146 567 1146 692 q 1103 335 1146 442 q 980 151 1060 229 q 790 28 900 72 q 544 -17 679 -17 m 564 175 q 712 205 646 175 q 824 288 778 235 q 894 409 869 340 q 918 554 918 478 q 888 681 918 626 q 798 767 857 736 q 653 797 739 797 q 506 767 571 797 q 394 685 440 738 q 323 563 347 632 q 299 418 299 494 q 330 291 299 346 q 420 206 361 236 q 564 175 479 175 m 831 1049 q 752 1067 783 1049 q 697 1103 721 1085 q 649 1122 674 1122 q 603 1105 621 1122 q 578 1057 585 1088 l 467 1057 q 527 1184 479 1140 q 649 1228 575 1228 q 726 1210 696 1228 q 781 1173 757 1192 q 831 1154 806 1154 q 879 1173 861 1154 q 903 1218 897 1192 l 1011 1218 q 953 1094 1000 1139 q 831 1049 906 1049 m 915 1278 q 853 1300 878 1278 q 829 1360 829 1322 q 859 1433 829 1404 q 926 1461 889 1461 q 989 1438 965 1461 q 1013 1376 1013 1415 q 983 1305 1013 1332 q 915 1278 954 1278 m 643 1278 q 581 1300 606 1278 q 557 1360 557 1322 q 587 1433 557 1404 q 656 1461 617 1461 q 717 1438 693 1461 q 742 1376 742 1415 q 712 1305 742 1332 q 643 1278 682 1278 z "},"Ȭ":{"ha":1172,"x_min":71,"x_max":1146,"o":"m 544 -17 q 291 37 397 -17 q 128 185 185 90 q 71 406 71 281 q 114 637 71 531 q 237 822 157 743 q 427 944 317 900 q 672 989 538 989 q 926 935 819 989 q 1089 787 1032 882 q 1146 567 1146 692 q 1103 335 1146 442 q 980 151 1060 229 q 790 28 900 72 q 544 -17 679 -17 m 564 175 q 712 205 646 175 q 824 288 778 235 q 894 409 869 340 q 918 554 918 478 q 888 681 918 626 q 798 767 857 736 q 653 797 739 797 q 506 767 571 797 q 394 685 440 738 q 323 563 347 632 q 299 418 299 494 q 330 291 299 346 q 420 206 361 236 q 564 175 479 175 m 831 1049 q 752 1067 783 1049 q 697 1103 721 1085 q 649 1122 674 1122 q 603 1105 621 1122 q 578 1057 585 1088 l 467 1057 q 527 1184 479 1140 q 649 1228 575 1228 q 726 1210 696 1228 q 781 1173 757 1192 q 831 1154 806 1154 q 879 1173 861 1154 q 903 1218 897 1192 l 1011 1218 q 953 1094 1000 1139 q 831 1049 906 1049 m 518 1313 l 540 1428 l 1054 1428 l 1032 1313 l 518 1313 z "},"Œ":{"ha":1578,"x_min":71,"x_max":1615,"o":"m 550 0 q 294 49 401 0 q 128 190 186 99 q 71 406 71 282 q 115 639 71 535 q 239 817 158 743 q 431 932 319 892 q 676 972 542 972 l 939 972 l 903 788 l 669 788 q 470 739 554 788 q 342 607 386 690 q 299 418 299 524 q 330 294 299 346 q 422 213 361 242 q 575 185 483 185 l 779 185 l 744 0 l 550 0 m 686 0 l 881 972 l 1615 972 l 1579 792 l 1068 792 l 946 181 l 1476 181 l 1439 0 l 686 0 m 975 406 l 1010 581 l 1478 581 l 1443 406 l 975 406 z "},"P":{"ha":1017,"x_min":40,"x_max":1008,"o":"m 40 0 l 235 972 l 628 972 q 909 892 810 972 q 1008 669 1008 813 q 951 456 1008 547 q 788 317 894 365 q 536 268 682 268 l 221 268 l 340 371 l 267 0 l 40 0 m 335 344 l 256 451 l 546 451 q 719 502 657 451 q 781 650 781 553 q 733 755 781 721 q 600 789 686 789 l 326 789 l 446 899 l 335 344 z "},"Ṕ":{"ha":1017,"x_min":40,"x_max":1008,"o":"m 40 0 l 235 972 l 628 972 q 909 892 810 972 q 1008 669 1008 813 q 951 456 1008 547 q 788 317 894 365 q 536 268 682 268 l 221 268 l 340 371 l 267 0 l 40 0 m 335 344 l 256 451 l 546 451 q 719 502 657 451 q 781 650 781 553 q 733 755 781 721 q 600 789 686 789 l 326 789 l 446 899 l 335 344 m 514 1051 l 722 1251 l 961 1251 l 689 1051 l 514 1051 z "},"Ṗ":{"ha":1017,"x_min":40,"x_max":1008,"o":"m 40 0 l 235 972 l 628 972 q 909 892 810 972 q 1008 669 1008 813 q 951 456 1008 547 q 788 317 894 365 q 536 268 682 268 l 221 268 l 340 371 l 267 0 l 40 0 m 335 344 l 256 451 l 546 451 q 719 502 657 451 q 781 650 781 553 q 733 755 781 721 q 600 789 686 789 l 326 789 l 446 899 l 335 344 m 660 1058 q 580 1088 610 1058 q 550 1161 550 1117 q 587 1256 550 1219 q 676 1293 624 1293 q 755 1264 725 1293 q 785 1189 785 1235 q 749 1094 785 1131 q 660 1058 713 1058 z "},"Ƥ":{"ha":1300,"x_min":96,"x_max":1293,"o":"m 150 486 q 99 656 103 571 q 131 814 96 742 q 237 929 167 886 q 407 972 307 972 l 529 972 l 493 789 l 415 789 q 336 757 365 789 q 306 677 307 725 q 333 581 304 629 l 150 486 m 325 0 l 519 972 l 913 972 q 1194 892 1094 972 q 1293 669 1293 813 q 1235 456 1293 547 q 1072 317 1178 365 q 821 268 965 268 l 504 268 l 625 371 l 550 0 l 325 0 m 619 344 l 540 451 l 831 451 q 1003 502 942 451 q 1065 650 1065 553 q 1018 755 1065 721 q 885 789 971 789 l 610 789 l 731 899 l 619 344 z "},"Þ":{"ha":1017,"x_min":40,"x_max":988,"o":"m 251 161 l 286 344 l 525 344 q 698 395 636 344 q 760 542 760 446 q 713 648 760 614 q 579 682 665 682 l 356 682 l 390 865 l 611 865 q 889 786 790 865 q 988 563 988 707 q 931 349 988 440 q 767 210 874 258 q 515 161 661 161 l 251 161 m 40 0 l 235 972 l 461 972 l 267 0 l 40 0 z "},"Ᵽ":{"ha":1025,"x_min":36,"x_max":1018,"o":"m 49 0 l 243 972 l 636 972 q 918 892 818 972 q 1018 669 1018 813 q 960 456 1018 547 q 797 317 903 365 q 546 268 690 268 l 229 268 l 350 371 l 275 0 l 49 0 m 36 547 l 65 696 l 592 696 l 563 547 l 36 547 m 343 344 l 264 446 l 554 446 q 728 499 667 446 q 790 650 790 553 q 742 760 790 725 q 608 794 694 794 l 335 794 l 454 899 l 343 344 z "},"Q":{"ha":1172,"x_min":71,"x_max":1146,"o":"m 544 -17 q 291 37 397 -17 q 128 185 185 90 q 71 406 71 281 q 114 637 71 531 q 237 822 157 743 q 427 944 317 900 q 672 989 538 989 q 926 935 819 989 q 1089 787 1032 882 q 1146 567 1146 692 q 1103 335 1146 442 q 980 151 1060 229 q 790 28 900 72 q 544 -17 679 -17 m 817 -224 q 583 -160 682 -224 q 417 31 483 -96 l 664 81 q 733 -26 693 4 q 831 -57 774 -57 q 917 -39 875 -57 q 994 11 960 -21 l 1079 -124 q 963 -199 1032 -174 q 817 -224 894 -224 m 564 175 q 712 205 646 175 q 824 288 778 235 q 894 409 869 340 q 918 554 918 478 q 888 681 918 626 q 798 767 857 736 q 653 797 739 797 q 506 767 571 797 q 394 685 440 738 q 323 563 347 632 q 299 418 299 494 q 330 291 299 346 q 420 206 361 236 q 564 175 479 175 z "},"Ɋ":{"ha":1238,"x_min":75,"x_max":1236,"o":"m 507 -15 q 282 40 379 -15 q 130 194 185 94 q 75 422 75 293 q 119 643 75 540 q 243 824 164 746 q 426 945 322 901 q 651 989 531 989 q 888 925 794 989 q 1015 744 981 861 q 1018 464 1050 626 q 917 206 989 314 q 742 42 846 99 q 507 -15 638 -15 m 557 175 q 725 215 649 175 q 853 324 801 254 q 921 485 906 394 q 908 646 936 575 q 817 757 881 717 q 663 797 754 797 q 521 769 586 797 q 406 692 456 742 q 330 576 357 643 q 303 433 303 510 q 372 244 303 313 q 557 175 440 175 m 1185 -264 q 1038 -281 1110 -286 q 913 -244 967 -276 q 833 -155 858 -212 q 824 -12 807 -97 l 874 235 l 933 489 l 965 743 l 1011 972 l 1236 972 l 1040 -7 q 1048 -74 1032 -49 q 1098 -106 1064 -99 q 1175 -101 1132 -112 l 1185 -264 z "},"R":{"ha":1021,"x_min":40,"x_max":1011,"o":"m 40 0 l 235 972 l 631 972 q 912 893 813 972 q 1011 671 1011 814 q 953 459 1011 549 q 790 321 896 369 q 539 272 683 272 l 222 272 l 340 371 l 267 0 l 40 0 m 665 0 l 467 353 l 703 353 l 903 0 l 665 0 m 335 344 l 257 451 l 547 451 q 722 502 660 451 q 783 650 783 553 q 735 755 783 721 q 601 789 688 789 l 328 789 l 446 899 l 335 344 z "},"Ŕ":{"ha":1021,"x_min":40,"x_max":1011,"o":"m 40 0 l 235 972 l 631 972 q 912 893 813 972 q 1011 671 1011 814 q 953 459 1011 549 q 790 321 896 369 q 539 272 683 272 l 222 272 l 340 371 l 267 0 l 40 0 m 665 0 l 467 353 l 703 353 l 903 0 l 665 0 m 335 344 l 257 451 l 547 451 q 722 502 660 451 q 783 650 783 553 q 735 755 783 721 q 601 789 688 789 l 328 789 l 446 899 l 335 344 m 525 1051 l 733 1251 l 972 1251 l 700 1051 l 525 1051 z "},"Ř":{"ha":1021,"x_min":40,"x_max":1011,"o":"m 40 0 l 235 972 l 631 972 q 912 893 813 972 q 1011 671 1011 814 q 953 459 1011 549 q 790 321 896 369 q 539 272 683 272 l 222 272 l 340 371 l 267 0 l 40 0 m 665 0 l 467 353 l 703 353 l 903 0 l 665 0 m 335 344 l 257 451 l 547 451 q 722 502 660 451 q 783 650 783 553 q 735 755 783 721 q 601 789 688 789 l 328 789 l 446 899 l 335 344 m 549 1051 l 393 1251 l 547 1251 l 718 1086 l 575 1086 l 789 1251 l 950 1251 l 740 1051 l 549 1051 z "},"Ŗ":{"ha":1021,"x_min":40,"x_max":1011,"o":"m 40 0 l 235 972 l 631 972 q 912 893 813 972 q 1011 671 1011 814 q 953 459 1011 549 q 790 321 896 369 q 539 272 683 272 l 222 272 l 340 371 l 267 0 l 40 0 m 665 0 l 467 353 l 703 353 l 903 0 l 665 0 m 335 344 l 257 451 l 547 451 q 722 502 660 451 q 783 650 783 553 q 735 755 783 721 q 601 789 688 789 l 328 789 l 446 899 l 335 344 m 296 -369 l 385 -192 l 399 -265 q 333 -246 356 -265 q 311 -196 311 -226 q 337 -128 311 -156 q 413 -101 363 -101 q 483 -123 460 -101 q 506 -175 506 -144 q 497 -218 506 -197 q 463 -274 488 -239 l 394 -369 l 296 -369 z "},"Ȑ":{"ha":1021,"x_min":40,"x_max":1011,"o":"m 40 0 l 235 972 l 631 972 q 912 893 813 972 q 1011 671 1011 814 q 953 459 1011 549 q 790 321 896 369 q 539 272 683 272 l 222 272 l 340 371 l 267 0 l 40 0 m 665 0 l 467 353 l 703 353 l 903 0 l 665 0 m 335 344 l 257 451 l 547 451 q 722 502 660 451 q 783 650 783 553 q 735 755 783 721 q 601 789 688 789 l 328 789 l 446 899 l 335 344 m 721 1051 l 615 1251 l 810 1251 l 871 1051 l 721 1051 m 440 1051 l 335 1251 l 529 1251 l 590 1051 l 440 1051 z "},"Ṙ":{"ha":1021,"x_min":40,"x_max":1011,"o":"m 40 0 l 235 972 l 631 972 q 912 893 813 972 q 1011 671 1011 814 q 953 459 1011 549 q 790 321 896 369 q 539 272 683 272 l 222 272 l 340 371 l 267 0 l 40 0 m 665 0 l 467 353 l 703 353 l 903 0 l 665 0 m 335 344 l 257 451 l 547 451 q 722 502 660 451 q 783 650 783 553 q 735 755 783 721 q 601 789 688 789 l 328 789 l 446 899 l 335 344 m 671 1058 q 591 1088 621 1058 q 561 1161 561 1117 q 598 1256 561 1219 q 688 1293 635 1293 q 766 1264 736 1293 q 796 1189 796 1235 q 760 1094 796 1131 q 671 1058 724 1058 z "},"Ṛ":{"ha":1021,"x_min":40,"x_max":1011,"o":"m 40 0 l 235 972 l 631 972 q 912 893 813 972 q 1011 671 1011 814 q 953 459 1011 549 q 790 321 896 369 q 539 272 683 272 l 222 272 l 340 371 l 267 0 l 40 0 m 665 0 l 467 353 l 703 353 l 903 0 l 665 0 m 335 344 l 257 451 l 547 451 q 722 502 660 451 q 783 650 783 553 q 735 755 783 721 q 601 789 688 789 l 328 789 l 446 899 l 335 344 m 399 -311 q 319 -282 349 -311 q 289 -208 289 -253 q 326 -113 289 -150 q 415 -76 363 -76 q 494 -106 464 -76 q 524 -181 524 -135 q 488 -275 524 -239 q 399 -311 451 -311 z "},"Ṝ":{"ha":1021,"x_min":40,"x_max":1011,"o":"m 40 0 l 235 972 l 631 972 q 912 893 813 972 q 1011 671 1011 814 q 953 459 1011 549 q 790 321 896 369 q 539 272 683 272 l 222 272 l 340 371 l 267 0 l 40 0 m 665 0 l 467 353 l 703 353 l 903 0 l 665 0 m 335 344 l 257 451 l 547 451 q 722 502 660 451 q 783 650 783 553 q 735 755 783 721 q 601 789 688 789 l 328 789 l 446 899 l 335 344 m 399 -311 q 319 -282 349 -311 q 289 -208 289 -253 q 326 -113 289 -150 q 415 -76 363 -76 q 494 -106 464 -76 q 524 -181 524 -135 q 488 -275 524 -239 q 399 -311 451 -311 m 408 1090 l 431 1213 l 944 1213 l 921 1090 l 408 1090 z "},"Ȓ":{"ha":1021,"x_min":40,"x_max":1011,"o":"m 40 0 l 235 972 l 631 972 q 912 893 813 972 q 1011 671 1011 814 q 953 459 1011 549 q 790 321 896 369 q 539 272 683 272 l 222 272 l 340 371 l 267 0 l 40 0 m 665 0 l 467 353 l 703 353 l 903 0 l 665 0 m 335 344 l 257 451 l 547 451 q 722 502 660 451 q 783 650 783 553 q 735 755 783 721 q 601 789 688 789 l 328 789 l 446 899 l 335 344 m 399 1051 q 495 1207 418 1150 q 682 1264 572 1264 q 806 1238 753 1264 q 888 1164 858 1211 q 911 1051 917 1117 l 778 1051 q 751 1124 781 1097 q 669 1151 721 1151 q 583 1124 618 1151 q 539 1051 549 1097 l 399 1051 z "},"Ṟ":{"ha":1021,"x_min":40,"x_max":1011,"o":"m 40 0 l 235 972 l 631 972 q 912 893 813 972 q 1011 671 1011 814 q 953 459 1011 549 q 790 321 896 369 q 539 272 683 272 l 222 272 l 340 371 l 267 0 l 40 0 m 665 0 l 467 353 l 703 353 l 903 0 l 665 0 m 335 344 l 257 451 l 547 451 q 722 502 660 451 q 783 650 783 553 q 735 755 783 721 q 601 789 688 789 l 328 789 l 446 899 l 335 344 m 140 -247 l 163 -125 l 676 -125 l 653 -247 l 140 -247 z "},"Ɍ":{"ha":1021,"x_min":-22,"x_max":1011,"o":"m 40 0 l 235 972 l 631 972 q 912 893 813 972 q 1011 671 1011 814 q 953 459 1011 549 q 790 321 896 369 q 539 272 683 272 l 222 272 l 340 371 l 267 0 l 40 0 m 665 0 l 467 353 l 703 353 l 903 0 l 665 0 m 335 344 l 257 451 l 547 451 q 722 502 660 451 q 783 650 783 553 q 735 755 783 721 q 601 789 688 789 l 328 789 l 446 899 l 335 344 m -22 301 l 7 451 l 485 451 l 458 301 l -22 301 z "},"Ɽ":{"ha":1033,"x_min":31,"x_max":1017,"o":"m 442 -256 q 317 -280 381 -276 q 199 -269 254 -283 q 105 -222 144 -256 q 48 -135 65 -189 q 46 -10 31 -82 l 242 972 l 638 972 q 918 893 819 972 q 1017 671 1017 814 q 960 459 1017 549 q 797 321 903 369 q 544 272 690 272 l 229 272 l 347 371 l 272 -7 q 274 -62 265 -40 q 303 -96 283 -85 q 355 -106 324 -107 q 425 -94 386 -106 l 442 -256 m 672 0 l 474 353 l 710 353 l 910 0 l 672 0 m 342 344 l 264 451 l 554 451 q 727 502 665 451 q 789 650 789 553 q 742 755 789 721 q 608 789 694 789 l 335 789 l 453 899 l 342 344 z "},"S":{"ha":886,"x_min":-11,"x_max":901,"o":"m 379 -17 q 226 -2 300 -17 q 91 38 151 13 q -11 92 31 63 l 81 265 q 178 210 126 233 q 288 176 231 188 q 401 164 344 164 q 509 178 464 164 q 578 217 554 192 q 603 278 603 242 q 576 332 603 311 q 508 367 550 353 q 414 396 465 382 q 310 428 363 410 q 216 476 258 447 q 147 549 174 504 q 121 660 121 593 q 176 833 121 760 q 331 948 231 907 q 565 989 431 989 q 751 967 664 989 q 901 906 839 946 l 817 733 q 693 790 761 771 q 553 808 625 808 q 441 793 488 808 q 370 751 394 778 q 346 689 346 724 q 372 633 346 654 q 440 597 397 611 q 535 568 483 582 q 638 536 586 554 q 732 490 689 518 q 801 420 775 463 q 828 314 828 378 q 772 140 828 214 q 616 24 717 65 q 379 -17 515 -17 z "},"Ś":{"ha":886,"x_min":-11,"x_max":903,"o":"m 379 -17 q 226 -2 300 -17 q 91 38 151 13 q -11 92 31 63 l 81 265 q 178 210 126 233 q 288 176 231 188 q 401 164 344 164 q 509 178 464 164 q 578 217 554 192 q 603 278 603 242 q 576 332 603 311 q 508 367 550 353 q 414 396 465 382 q 310 428 363 410 q 216 476 258 447 q 147 549 174 504 q 121 660 121 593 q 176 833 121 760 q 331 948 231 907 q 565 989 431 989 q 751 967 664 989 q 901 906 839 946 l 817 733 q 693 790 761 771 q 553 808 625 808 q 441 793 488 808 q 370 751 394 778 q 346 689 346 724 q 372 633 346 654 q 440 597 397 611 q 535 568 483 582 q 638 536 586 554 q 732 490 689 518 q 801 420 775 463 q 828 314 828 378 q 772 140 828 214 q 616 24 717 65 q 379 -17 515 -17 m 456 1051 l 664 1251 l 903 1251 l 631 1051 l 456 1051 z "},"Ṥ":{"ha":886,"x_min":-11,"x_max":901,"o":"m 379 -17 q 226 -2 300 -17 q 91 38 151 13 q -11 92 31 63 l 81 265 q 178 210 126 233 q 288 176 231 188 q 401 164 344 164 q 509 178 464 164 q 578 217 554 192 q 603 278 603 242 q 576 332 603 311 q 508 367 550 353 q 414 396 465 382 q 310 428 363 410 q 216 476 258 447 q 147 549 174 504 q 121 660 121 593 q 176 833 121 760 q 331 948 231 907 q 565 989 431 989 q 751 967 664 989 q 901 906 839 946 l 817 733 q 693 790 761 771 q 553 808 625 808 q 441 793 488 808 q 370 751 394 778 q 346 689 346 724 q 372 633 346 654 q 440 597 397 611 q 535 568 483 582 q 638 536 586 554 q 732 490 689 518 q 801 420 775 463 q 828 314 828 378 q 772 140 828 214 q 616 24 717 65 q 379 -17 515 -17 m 463 1051 l 635 1219 l 861 1219 l 625 1051 l 463 1051 m 644 1282 q 581 1306 607 1282 q 556 1369 556 1329 q 586 1444 556 1415 q 658 1474 617 1474 q 722 1450 696 1474 q 749 1385 749 1426 q 717 1311 749 1340 q 644 1282 686 1282 z "},"Š":{"ha":886,"x_min":-11,"x_max":901,"o":"m 379 -17 q 226 -2 300 -17 q 91 38 151 13 q -11 92 31 63 l 81 265 q 178 210 126 233 q 288 176 231 188 q 401 164 344 164 q 509 178 464 164 q 578 217 554 192 q 603 278 603 242 q 576 332 603 311 q 508 367 550 353 q 414 396 465 382 q 310 428 363 410 q 216 476 258 447 q 147 549 174 504 q 121 660 121 593 q 176 833 121 760 q 331 948 231 907 q 565 989 431 989 q 751 967 664 989 q 901 906 839 946 l 817 733 q 693 790 761 771 q 553 808 625 808 q 441 793 488 808 q 370 751 394 778 q 346 689 346 724 q 372 633 346 654 q 440 597 397 611 q 535 568 483 582 q 638 536 586 554 q 732 490 689 518 q 801 420 775 463 q 828 314 828 378 q 772 140 828 214 q 616 24 717 65 q 379 -17 515 -17 m 479 1051 l 324 1251 l 478 1251 l 649 1086 l 506 1086 l 719 1251 l 881 1251 l 671 1051 l 479 1051 z "},"Ṧ":{"ha":886,"x_min":-11,"x_max":901,"o":"m 379 -17 q 226 -2 300 -17 q 91 38 151 13 q -11 92 31 63 l 81 265 q 178 210 126 233 q 288 176 231 188 q 401 164 344 164 q 509 178 464 164 q 578 217 554 192 q 603 278 603 242 q 576 332 603 311 q 508 367 550 353 q 414 396 465 382 q 310 428 363 410 q 216 476 258 447 q 147 549 174 504 q 121 660 121 593 q 176 833 121 760 q 331 948 231 907 q 565 989 431 989 q 751 967 664 989 q 901 906 839 946 l 817 733 q 693 790 761 771 q 553 808 625 808 q 441 793 488 808 q 370 751 394 778 q 346 689 346 724 q 372 633 346 654 q 440 597 397 611 q 535 568 483 582 q 638 536 586 554 q 732 490 689 518 q 801 420 775 463 q 828 314 828 378 q 772 140 828 214 q 616 24 717 65 q 379 -17 515 -17 m 500 1060 l 339 1218 l 494 1218 l 665 1093 l 528 1093 l 733 1218 l 896 1218 l 689 1060 l 500 1060 m 642 1251 q 578 1275 604 1251 q 553 1339 553 1299 q 583 1414 553 1385 q 656 1443 614 1443 q 719 1419 693 1443 q 746 1354 746 1396 q 715 1281 746 1310 q 642 1251 683 1251 z "},"Ş":{"ha":886,"x_min":-11,"x_max":901,"o":"m 379 -17 q 226 -2 300 -17 q 91 38 151 13 q -11 92 31 63 l 81 265 q 178 210 126 233 q 288 176 231 188 q 401 164 344 164 q 509 178 464 164 q 578 217 554 192 q 603 278 603 242 q 576 332 603 311 q 508 367 550 353 q 414 396 465 382 q 310 428 363 410 q 216 476 258 447 q 147 549 174 504 q 121 660 121 593 q 176 833 121 760 q 331 948 231 907 q 565 989 431 989 q 751 967 664 989 q 901 906 839 946 l 817 733 q 693 790 761 771 q 553 808 625 808 q 441 793 488 808 q 370 751 394 778 q 346 689 346 724 q 372 633 346 654 q 440 597 397 611 q 535 568 483 582 q 638 536 586 554 q 732 490 689 518 q 801 420 775 463 q 828 314 828 378 q 772 140 828 214 q 616 24 717 65 q 379 -17 515 -17 m 276 -322 q 203 -314 238 -322 q 144 -293 169 -306 l 193 -200 q 236 -215 213 -210 q 286 -221 260 -221 q 343 -208 325 -221 q 363 -175 361 -194 q 350 -146 364 -156 q 303 -136 336 -136 l 254 -136 l 321 11 l 436 11 l 401 -69 q 478 -106 453 -76 q 499 -176 503 -136 q 433 -283 493 -244 q 276 -322 372 -322 z "},"Ŝ":{"ha":886,"x_min":-11,"x_max":901,"o":"m 379 -17 q 226 -2 300 -17 q 91 38 151 13 q -11 92 31 63 l 81 265 q 178 210 126 233 q 288 176 231 188 q 401 164 344 164 q 509 178 464 164 q 578 217 554 192 q 603 278 603 242 q 576 332 603 311 q 508 367 550 353 q 414 396 465 382 q 310 428 363 410 q 216 476 258 447 q 147 549 174 504 q 121 660 121 593 q 176 833 121 760 q 331 948 231 907 q 565 989 431 989 q 751 967 664 989 q 901 906 839 946 l 817 733 q 693 790 761 771 q 553 808 625 808 q 441 793 488 808 q 370 751 394 778 q 346 689 346 724 q 372 633 346 654 q 440 597 397 611 q 535 568 483 582 q 638 536 586 554 q 732 490 689 518 q 801 420 775 463 q 828 314 828 378 q 772 140 828 214 q 616 24 717 65 q 379 -17 515 -17 m 315 1051 l 526 1251 l 717 1251 l 874 1051 l 719 1051 l 549 1218 l 692 1218 l 478 1051 l 315 1051 z "},"Ș":{"ha":886,"x_min":-11,"x_max":901,"o":"m 379 -17 q 226 -2 300 -17 q 91 38 151 13 q -11 92 31 63 l 81 265 q 178 210 126 233 q 288 176 231 188 q 401 164 344 164 q 509 178 464 164 q 578 217 554 192 q 603 278 603 242 q 576 332 603 311 q 508 367 550 353 q 414 396 465 382 q 310 428 363 410 q 216 476 258 447 q 147 549 174 504 q 121 660 121 593 q 176 833 121 760 q 331 948 231 907 q 565 989 431 989 q 751 967 664 989 q 901 906 839 946 l 817 733 q 693 790 761 771 q 553 808 625 808 q 441 793 488 808 q 370 751 394 778 q 346 689 346 724 q 372 633 346 654 q 440 597 397 611 q 535 568 483 582 q 638 536 586 554 q 732 490 689 518 q 801 420 775 463 q 828 314 828 378 q 772 140 828 214 q 616 24 717 65 q 379 -17 515 -17 m 226 -369 l 315 -192 l 329 -265 q 264 -246 286 -265 q 242 -196 242 -226 q 267 -128 242 -156 q 343 -101 293 -101 q 413 -123 390 -101 q 436 -175 436 -144 q 427 -218 436 -197 q 393 -274 418 -239 l 325 -369 l 226 -369 z "},"Ṡ":{"ha":886,"x_min":-11,"x_max":901,"o":"m 379 -17 q 226 -2 300 -17 q 91 38 151 13 q -11 92 31 63 l 81 265 q 178 210 126 233 q 288 176 231 188 q 401 164 344 164 q 509 178 464 164 q 578 217 554 192 q 603 278 603 242 q 576 332 603 311 q 508 367 550 353 q 414 396 465 382 q 310 428 363 410 q 216 476 258 447 q 147 549 174 504 q 121 660 121 593 q 176 833 121 760 q 331 948 231 907 q 565 989 431 989 q 751 967 664 989 q 901 906 839 946 l 817 733 q 693 790 761 771 q 553 808 625 808 q 441 793 488 808 q 370 751 394 778 q 346 689 346 724 q 372 633 346 654 q 440 597 397 611 q 535 568 483 582 q 638 536 586 554 q 732 490 689 518 q 801 420 775 463 q 828 314 828 378 q 772 140 828 214 q 616 24 717 65 q 379 -17 515 -17 m 601 1058 q 522 1088 551 1058 q 492 1161 492 1117 q 528 1256 492 1219 q 618 1293 565 1293 q 697 1264 667 1293 q 726 1189 726 1235 q 690 1094 726 1131 q 601 1058 654 1058 z "},"Ṣ":{"ha":886,"x_min":-11,"x_max":901,"o":"m 379 -17 q 226 -2 300 -17 q 91 38 151 13 q -11 92 31 63 l 81 265 q 178 210 126 233 q 288 176 231 188 q 401 164 344 164 q 509 178 464 164 q 578 217 554 192 q 603 278 603 242 q 576 332 603 311 q 508 367 550 353 q 414 396 465 382 q 310 428 363 410 q 216 476 258 447 q 147 549 174 504 q 121 660 121 593 q 176 833 121 760 q 331 948 231 907 q 565 989 431 989 q 751 967 664 989 q 901 906 839 946 l 817 733 q 693 790 761 771 q 553 808 625 808 q 441 793 488 808 q 370 751 394 778 q 346 689 346 724 q 372 633 346 654 q 440 597 397 611 q 535 568 483 582 q 638 536 586 554 q 732 490 689 518 q 801 420 775 463 q 828 314 828 378 q 772 140 828 214 q 616 24 717 65 q 379 -17 515 -17 m 329 -311 q 249 -282 279 -311 q 219 -208 219 -253 q 256 -113 219 -150 q 346 -76 293 -76 q 424 -106 394 -76 q 454 -181 454 -135 q 418 -275 454 -239 q 329 -311 382 -311 z "},"Ṩ":{"ha":886,"x_min":-11,"x_max":901,"o":"m 379 -17 q 226 -2 300 -17 q 91 38 151 13 q -11 92 31 63 l 81 265 q 178 210 126 233 q 288 176 231 188 q 401 164 344 164 q 509 178 464 164 q 578 217 554 192 q 603 278 603 242 q 576 332 603 311 q 508 367 550 353 q 414 396 465 382 q 310 428 363 410 q 216 476 258 447 q 147 549 174 504 q 121 660 121 593 q 176 833 121 760 q 331 948 231 907 q 565 989 431 989 q 751 967 664 989 q 901 906 839 946 l 817 733 q 693 790 761 771 q 553 808 625 808 q 441 793 488 808 q 370 751 394 778 q 346 689 346 724 q 372 633 346 654 q 440 597 397 611 q 535 568 483 582 q 638 536 586 554 q 732 490 689 518 q 801 420 775 463 q 828 314 828 378 q 772 140 828 214 q 616 24 717 65 q 379 -17 515 -17 m 329 -311 q 249 -282 279 -311 q 219 -208 219 -253 q 256 -113 219 -150 q 346 -76 293 -76 q 424 -106 394 -76 q 454 -181 454 -135 q 418 -275 454 -239 q 329 -311 382 -311 m 601 1058 q 522 1088 551 1058 q 492 1161 492 1117 q 528 1256 492 1219 q 618 1293 565 1293 q 697 1264 667 1293 q 726 1189 726 1235 q 690 1094 726 1131 q 601 1058 654 1058 z "},"ẞ":{"ha":1069,"x_min":21,"x_max":1019,"o":"m 604 -17 q 485 -6 546 -17 q 383 21 424 4 l 442 193 q 513 172 472 181 q 600 164 553 164 q 690 182 651 164 q 750 233 729 200 q 771 311 771 267 q 733 395 771 365 q 625 425 694 425 q 576 422 601 425 q 529 411 551 418 l 508 510 l 893 878 l 888 732 q 785 788 842 768 q 656 808 728 808 q 456 745 531 808 q 356 554 381 682 l 246 0 l 21 0 l 133 565 q 310 883 176 778 q 675 989 444 989 q 801 978 738 989 q 921 945 864 967 q 1019 893 978 924 l 993 757 l 678 454 l 600 569 q 651 579 626 576 q 699 582 676 582 q 854 549 786 582 q 960 458 922 517 q 999 321 999 400 q 950 146 999 222 q 813 26 901 69 q 604 -17 725 -17 z "},"Ꞩ":{"ha":886,"x_min":-11,"x_max":901,"o":"m 379 -17 q 226 -2 300 -17 q 91 38 151 13 q -11 92 31 63 l 81 260 q 178 204 126 226 q 288 170 231 182 q 401 158 344 158 q 509 172 464 158 q 578 213 554 186 q 603 278 603 239 q 576 332 603 311 q 508 367 550 353 q 414 396 465 382 q 310 428 363 410 q 216 476 258 447 q 147 549 174 504 q 121 660 121 593 q 176 833 121 760 q 331 948 231 907 q 565 989 431 989 q 751 967 664 989 q 901 906 839 946 l 817 739 q 693 795 761 776 q 553 814 625 814 q 441 798 488 814 q 370 754 394 782 q 346 689 346 726 q 372 633 346 654 q 440 597 397 611 q 535 568 483 582 q 638 536 586 554 q 732 490 689 518 q 801 420 775 463 q 828 314 828 378 q 772 140 828 214 q 616 24 717 65 q 379 -17 515 -17 m 356 235 l 253 304 l 558 733 l 658 668 l 356 235 z "},"T":{"ha":858,"x_min":88,"x_max":972,"o":"m 242 0 l 399 789 l 88 789 l 125 972 l 972 972 l 935 789 l 625 789 l 467 0 l 242 0 z "},"Ŧ":{"ha":858,"x_min":89,"x_max":972,"o":"m 242 0 l 400 789 l 89 789 l 126 972 l 972 972 l 936 789 l 625 789 l 468 0 l 242 0 m 136 399 l 165 549 l 764 549 l 736 399 l 136 399 z "},"Ť":{"ha":858,"x_min":88,"x_max":972,"o":"m 242 0 l 399 789 l 88 789 l 125 972 l 972 972 l 935 789 l 625 789 l 467 0 l 242 0 m 457 1051 l 301 1251 l 456 1251 l 626 1086 l 483 1086 l 697 1251 l 858 1251 l 649 1051 l 457 1051 z "},"Ţ":{"ha":858,"x_min":88,"x_max":972,"o":"m 242 0 l 399 789 l 88 789 l 125 972 l 972 972 l 935 789 l 625 789 l 467 0 l 242 0 m 256 -322 q 183 -314 217 -322 q 124 -293 149 -306 l 172 -200 q 215 -215 192 -210 q 265 -221 239 -221 q 322 -208 304 -221 q 342 -175 340 -194 q 329 -146 343 -156 q 282 -136 315 -136 l 233 -136 l 300 11 l 415 11 l 381 -69 q 457 -106 432 -76 q 478 -176 482 -136 q 412 -283 472 -244 q 256 -322 351 -322 z "},"Ṱ":{"ha":858,"x_min":32,"x_max":972,"o":"m 242 0 l 399 789 l 88 789 l 125 972 l 972 972 l 935 789 l 625 789 l 467 0 l 242 0 m 32 -287 l 243 -87 l 433 -87 l 590 -287 l 436 -287 l 265 -121 l 408 -121 l 194 -287 l 32 -287 z "},"Ț":{"ha":858,"x_min":88,"x_max":972,"o":"m 242 0 l 399 789 l 88 789 l 125 972 l 972 972 l 935 789 l 625 789 l 467 0 l 242 0 m 206 -369 l 294 -192 l 308 -265 q 243 -246 265 -265 q 221 -196 221 -226 q 247 -128 221 -156 q 322 -101 272 -101 q 392 -123 369 -101 q 415 -175 415 -144 q 406 -218 415 -197 q 372 -274 397 -239 l 304 -369 l 206 -369 z "},"Ⱦ":{"ha":854,"x_min":54,"x_max":968,"o":"m 54 -97 l 822 1069 l 958 1069 l 190 -97 l 54 -97 m 246 0 l 404 789 l 88 789 l 125 972 l 968 972 l 932 789 l 615 789 l 458 0 l 246 0 z "},"Ṫ":{"ha":858,"x_min":88,"x_max":972,"o":"m 242 0 l 399 789 l 88 789 l 125 972 l 972 972 l 935 789 l 625 789 l 467 0 l 242 0 m 581 1058 q 501 1088 531 1058 q 471 1161 471 1117 q 508 1256 471 1219 q 597 1293 544 1293 q 676 1264 646 1293 q 706 1189 706 1235 q 669 1094 706 1131 q 581 1058 633 1058 z "},"Ṭ":{"ha":858,"x_min":88,"x_max":972,"o":"m 242 0 l 399 789 l 88 789 l 125 972 l 972 972 l 935 789 l 625 789 l 467 0 l 242 0 m 307 -311 q 227 -282 257 -311 q 197 -208 197 -253 q 234 -113 197 -150 q 324 -76 271 -76 q 402 -106 372 -76 q 432 -181 432 -135 q 396 -275 432 -239 q 307 -311 360 -311 z "},"Ƭ":{"ha":988,"x_min":96,"x_max":1101,"o":"m 371 0 l 528 789 l 403 789 l 432 972 l 1101 972 l 1064 789 l 754 789 l 596 0 l 371 0 m 143 504 q 97 675 96 592 q 140 826 99 758 q 257 933 182 893 q 432 972 332 972 l 479 972 l 443 789 l 403 789 q 313 758 346 789 q 278 677 281 726 q 308 572 276 628 l 143 504 z "},"Ṯ":{"ha":858,"x_min":49,"x_max":972,"o":"m 242 0 l 399 789 l 88 789 l 125 972 l 972 972 l 935 789 l 625 789 l 467 0 l 242 0 m 50 -247 l 72 -125 l 586 -125 l 563 -247 l 50 -247 z "},"Ʈ":{"ha":857,"x_min":88,"x_max":972,"o":"m 635 -256 q 510 -280 572 -276 q 392 -269 447 -283 q 297 -223 338 -256 q 240 -137 257 -190 q 239 -12 224 -83 l 399 789 l 88 789 l 125 972 l 972 972 l 935 789 l 625 789 l 464 -7 q 466 -62 457 -40 q 496 -96 475 -85 q 548 -106 517 -107 q 617 -94 579 -106 l 635 -256 z "},"Ʇ":{"ha":858,"x_min":-69,"x_max":815,"o":"m -69 0 l -32 183 l 279 183 l 436 972 l 661 972 l 504 183 l 815 183 l 778 0 l -69 0 z "},"U":{"ha":1069,"x_min":79,"x_max":1094,"o":"m 488 -17 q 250 39 344 -17 q 117 194 156 94 q 106 428 79 293 l 215 972 l 440 972 l 332 432 q 354 238 306 301 q 513 175 403 175 q 676 235 614 175 q 764 432 738 296 l 872 972 l 1094 972 l 983 418 q 816 93 940 203 q 488 -17 692 -17 z "},"Ú":{"ha":1069,"x_min":79,"x_max":1094,"o":"m 488 -17 q 250 39 344 -17 q 117 194 156 94 q 106 428 79 293 l 215 972 l 440 972 l 332 432 q 354 238 306 301 q 513 175 403 175 q 676 235 614 175 q 764 432 738 296 l 872 972 l 1094 972 l 983 418 q 816 93 940 203 q 488 -17 692 -17 m 542 1051 l 750 1251 l 989 1251 l 717 1051 l 542 1051 z "},"Ʉ":{"ha":1083,"x_min":-18,"x_max":1138,"o":"m 217 972 l 442 972 l 333 432 q 356 238 307 301 q 514 175 404 175 q 677 235 615 175 q 765 432 739 296 l 874 972 l 1096 972 l 985 418 q 817 93 942 203 q 489 -17 693 -17 q 251 39 346 -17 q 119 194 157 94 q 107 428 81 293 l 217 972 m -18 421 l 11 572 l 1138 572 l 1108 421 l -18 421 z "},"Ŭ":{"ha":1069,"x_min":79,"x_max":1094,"o":"m 488 -17 q 250 39 344 -17 q 117 194 156 94 q 106 428 79 293 l 215 972 l 440 972 l 332 432 q 354 238 306 301 q 513 175 403 175 q 676 235 614 175 q 764 432 738 296 l 872 972 l 1094 972 l 983 418 q 816 93 940 203 q 488 -17 692 -17 m 689 1054 q 565 1080 619 1054 q 482 1153 510 1106 q 458 1265 454 1201 l 592 1265 q 620 1193 590 1219 q 701 1167 650 1167 q 788 1193 753 1167 q 831 1265 822 1219 l 971 1265 q 876 1111 953 1168 q 689 1054 799 1054 z "},"Ǔ":{"ha":1069,"x_min":79,"x_max":1094,"o":"m 488 -17 q 250 39 344 -17 q 117 194 156 94 q 106 428 79 293 l 215 972 l 440 972 l 332 432 q 354 238 306 301 q 513 175 403 175 q 676 235 614 175 q 764 432 738 296 l 872 972 l 1094 972 l 983 418 q 816 93 940 203 q 488 -17 692 -17 m 565 1051 l 410 1251 l 564 1251 l 735 1086 l 592 1086 l 806 1251 l 967 1251 l 757 1051 l 565 1051 z "},"Û":{"ha":1069,"x_min":79,"x_max":1094,"o":"m 488 -17 q 250 39 344 -17 q 117 194 156 94 q 106 428 79 293 l 215 972 l 440 972 l 332 432 q 354 238 306 301 q 513 175 403 175 q 676 235 614 175 q 764 432 738 296 l 872 972 l 1094 972 l 983 418 q 816 93 940 203 q 488 -17 692 -17 m 400 1051 l 611 1251 l 801 1251 l 958 1051 l 804 1051 l 633 1218 l 776 1218 l 563 1051 l 400 1051 z "},"Ṷ":{"ha":1069,"x_min":79,"x_max":1094,"o":"m 488 -17 q 250 39 344 -17 q 117 194 156 94 q 106 428 79 293 l 215 972 l 440 972 l 332 432 q 354 238 306 301 q 513 175 403 175 q 676 235 614 175 q 764 432 738 296 l 872 972 l 1094 972 l 983 418 q 816 93 940 203 q 488 -17 692 -17 m 139 -287 l 350 -87 l 540 -87 l 697 -287 l 543 -287 l 372 -121 l 515 -121 l 301 -287 l 139 -287 z "},"Ȕ":{"ha":1069,"x_min":79,"x_max":1094,"o":"m 488 -17 q 250 39 344 -17 q 117 194 156 94 q 106 428 79 293 l 215 972 l 440 972 l 332 432 q 354 238 306 301 q 513 175 403 175 q 676 235 614 175 q 764 432 738 296 l 872 972 l 1094 972 l 983 418 q 816 93 940 203 q 488 -17 692 -17 m 738 1051 l 632 1251 l 826 1251 l 888 1051 l 738 1051 m 457 1051 l 351 1251 l 546 1251 l 607 1051 l 457 1051 z "},"Ü":{"ha":1069,"x_min":79,"x_max":1094,"o":"m 488 -17 q 250 39 344 -17 q 117 194 156 94 q 106 428 79 293 l 215 972 l 440 972 l 332 432 q 354 238 306 301 q 513 175 403 175 q 676 235 614 175 q 764 432 738 296 l 872 972 l 1094 972 l 983 418 q 816 93 940 203 q 488 -17 692 -17 m 835 1058 q 770 1082 796 1058 q 744 1144 744 1106 q 775 1221 744 1192 q 847 1250 806 1250 q 911 1226 885 1250 q 938 1164 938 1203 q 906 1088 938 1117 q 835 1058 875 1058 m 553 1058 q 489 1082 515 1058 q 463 1144 463 1106 q 494 1221 463 1192 q 565 1250 525 1250 q 631 1226 604 1250 q 657 1164 657 1203 q 625 1088 657 1117 q 553 1058 593 1058 z "},"Ǘ":{"ha":1069,"x_min":79,"x_max":1094,"o":"m 488 -17 q 250 39 344 -17 q 117 194 156 94 q 106 428 79 293 l 215 972 l 440 972 l 332 432 q 354 238 306 301 q 513 175 403 175 q 676 235 614 175 q 764 432 738 296 l 872 972 l 1094 972 l 983 418 q 816 93 940 203 q 488 -17 692 -17 m 815 1054 q 753 1076 778 1054 q 729 1136 729 1099 q 759 1209 729 1181 q 826 1238 789 1238 q 889 1215 865 1238 q 913 1153 913 1192 q 883 1081 913 1108 q 815 1054 854 1054 m 543 1054 q 481 1076 506 1054 q 457 1136 457 1099 q 487 1209 457 1181 q 556 1238 517 1238 q 617 1215 593 1238 q 642 1153 642 1192 q 612 1081 642 1108 q 543 1054 582 1054 m 586 1275 l 758 1443 l 985 1443 l 749 1275 l 586 1275 z "},"Ṳ":{"ha":1069,"x_min":79,"x_max":1094,"o":"m 488 -17 q 250 39 344 -17 q 117 194 156 94 q 106 428 79 293 l 215 972 l 440 972 l 332 432 q 354 238 306 301 q 513 175 403 175 q 676 235 614 175 q 764 432 738 296 l 872 972 l 1094 972 l 983 418 q 816 93 940 203 q 488 -17 692 -17 m 558 -282 q 494 -258 519 -282 q 468 -196 468 -235 q 499 -119 468 -149 q 571 -90 529 -90 q 635 -114 608 -90 q 661 -176 661 -137 q 630 -253 661 -224 q 558 -282 599 -282 m 276 -282 q 213 -258 239 -282 q 186 -196 186 -235 q 217 -119 186 -149 q 289 -90 249 -90 q 354 -114 328 -90 q 381 -176 381 -137 q 349 -253 381 -224 q 276 -282 317 -282 z "},"Ǚ":{"ha":1069,"x_min":79,"x_max":1094,"o":"m 488 -17 q 250 39 344 -17 q 117 194 156 94 q 106 428 79 293 l 215 972 l 440 972 l 332 432 q 354 238 306 301 q 513 175 403 175 q 676 235 614 175 q 764 432 738 296 l 872 972 l 1094 972 l 983 418 q 816 93 940 203 q 488 -17 692 -17 m 831 1054 q 769 1076 793 1054 q 744 1136 744 1099 q 774 1209 744 1181 q 842 1238 804 1238 q 904 1215 881 1238 q 928 1153 928 1192 q 899 1081 928 1108 q 831 1054 869 1054 m 558 1054 q 497 1076 521 1054 q 472 1136 472 1099 q 502 1209 472 1181 q 571 1238 532 1238 q 633 1215 608 1238 q 657 1153 657 1192 q 627 1081 657 1108 q 558 1054 597 1054 m 633 1275 l 478 1475 l 632 1475 l 803 1310 l 660 1310 l 874 1475 l 1035 1475 l 825 1275 l 633 1275 z "},"Ǜ":{"ha":1069,"x_min":79,"x_max":1094,"o":"m 488 -17 q 250 39 344 -17 q 117 194 156 94 q 106 428 79 293 l 215 972 l 440 972 l 332 432 q 354 238 306 301 q 513 175 403 175 q 676 235 614 175 q 764 432 738 296 l 872 972 l 1094 972 l 983 418 q 816 93 940 203 q 488 -17 692 -17 m 836 1054 q 774 1076 799 1054 q 750 1136 750 1099 q 780 1209 750 1181 q 847 1238 810 1238 q 910 1215 886 1238 q 933 1153 933 1192 q 904 1081 933 1108 q 836 1054 875 1054 m 564 1054 q 502 1076 526 1054 q 478 1136 478 1099 q 508 1209 478 1181 q 576 1238 538 1238 q 638 1215 614 1238 q 663 1153 663 1192 q 633 1081 663 1108 q 564 1054 603 1054 m 693 1275 l 508 1443 l 731 1443 l 850 1275 l 693 1275 z "},"Ǖ":{"ha":1069,"x_min":79,"x_max":1094,"o":"m 488 -17 q 250 39 344 -17 q 117 194 156 94 q 106 428 79 293 l 215 972 l 440 972 l 332 432 q 354 238 306 301 q 513 175 403 175 q 676 235 614 175 q 764 432 738 296 l 872 972 l 1094 972 l 983 418 q 816 93 940 203 q 488 -17 692 -17 m 822 1054 q 760 1076 785 1054 q 736 1136 736 1099 q 766 1209 736 1181 q 833 1238 796 1238 q 896 1215 872 1238 q 919 1153 919 1192 q 890 1081 919 1108 q 822 1054 861 1054 m 550 1054 q 488 1076 513 1054 q 464 1136 464 1099 q 494 1209 464 1181 q 563 1238 524 1238 q 624 1215 600 1238 q 649 1153 649 1192 q 619 1081 649 1108 q 550 1054 589 1054 m 467 1313 l 489 1428 l 1003 1428 l 981 1313 l 467 1313 z "},"Ụ":{"ha":1069,"x_min":79,"x_max":1094,"o":"m 488 -17 q 250 39 344 -17 q 117 194 156 94 q 106 428 79 293 l 215 972 l 440 972 l 332 432 q 354 238 306 301 q 513 175 403 175 q 676 235 614 175 q 764 432 738 296 l 872 972 l 1094 972 l 983 418 q 816 93 940 203 q 488 -17 692 -17 m 414 -311 q 334 -282 364 -311 q 304 -208 304 -253 q 341 -113 304 -150 q 431 -76 378 -76 q 509 -106 479 -76 q 539 -181 539 -135 q 503 -275 539 -239 q 414 -311 467 -311 z "},"Ù":{"ha":1069,"x_min":79,"x_max":1094,"o":"m 488 -17 q 250 39 344 -17 q 117 194 156 94 q 106 428 79 293 l 215 972 l 440 972 l 332 432 q 354 238 306 301 q 513 175 403 175 q 676 235 614 175 q 764 432 738 296 l 872 972 l 1094 972 l 983 418 q 816 93 940 203 q 488 -17 692 -17 m 629 1051 l 417 1251 l 650 1251 l 797 1051 l 629 1051 z "},"Ủ":{"ha":1069,"x_min":79,"x_max":1094,"o":"m 488 -17 q 250 39 344 -17 q 117 194 156 94 q 106 428 79 293 l 215 972 l 440 972 l 332 432 q 354 238 306 301 q 513 175 403 175 q 676 235 614 175 q 764 432 738 296 l 872 972 l 1094 972 l 983 418 q 816 93 940 203 q 488 -17 692 -17 m 674 1007 l 617 1081 q 682 1124 664 1101 q 700 1174 700 1147 q 685 1211 700 1197 q 642 1225 669 1225 q 558 1197 600 1225 l 521 1288 q 595 1322 554 1310 q 678 1333 636 1333 q 788 1298 747 1333 q 829 1203 829 1263 q 789 1089 829 1138 q 674 1007 749 1040 z "},"Ư":{"ha":1089,"x_min":79,"x_max":1246,"o":"m 488 -17 q 250 39 344 -17 q 117 194 156 94 q 106 428 79 293 l 215 972 l 440 972 l 332 432 q 354 238 306 301 q 513 175 403 175 q 676 235 614 175 q 764 432 738 296 l 872 972 l 1094 972 l 983 418 q 816 93 940 203 q 488 -17 692 -17 m 979 828 l 979 972 l 1017 972 q 1077 997 1054 972 q 1100 1060 1100 1021 q 1092 1106 1100 1085 q 1072 1143 1085 1128 l 1201 1190 q 1233 1128 1221 1163 q 1246 1051 1246 1093 q 1217 932 1246 982 q 1135 855 1188 882 q 1011 828 1082 828 l 979 828 z "},"Ứ":{"ha":1089,"x_min":79,"x_max":1246,"o":"m 488 -17 q 250 39 344 -17 q 117 194 156 94 q 106 428 79 293 l 215 972 l 440 972 l 332 432 q 354 238 306 301 q 513 175 403 175 q 676 235 614 175 q 764 432 738 296 l 872 972 l 1094 972 l 983 418 q 816 93 940 203 q 488 -17 692 -17 m 979 828 l 979 972 l 1017 972 q 1077 997 1054 972 q 1100 1060 1100 1021 q 1092 1106 1100 1085 q 1072 1143 1085 1128 l 1201 1190 q 1233 1128 1221 1163 q 1246 1051 1246 1093 q 1217 932 1246 982 q 1135 855 1188 882 q 1011 828 1082 828 l 979 828 m 542 1051 l 750 1251 l 989 1251 l 717 1051 l 542 1051 z "},"Ự":{"ha":1089,"x_min":79,"x_max":1246,"o":"m 488 -17 q 250 39 344 -17 q 117 194 156 94 q 106 428 79 293 l 215 972 l 440 972 l 332 432 q 354 238 306 301 q 513 175 403 175 q 676 235 614 175 q 764 432 738 296 l 872 972 l 1094 972 l 983 418 q 816 93 940 203 q 488 -17 692 -17 m 979 828 l 979 972 l 1017 972 q 1077 997 1054 972 q 1100 1060 1100 1021 q 1092 1106 1100 1085 q 1072 1143 1085 1128 l 1201 1190 q 1233 1128 1221 1163 q 1246 1051 1246 1093 q 1217 932 1246 982 q 1135 855 1188 882 q 1011 828 1082 828 l 979 828 m 414 -312 q 334 -283 364 -312 q 304 -210 304 -254 q 341 -115 304 -151 q 431 -78 378 -78 q 509 -107 479 -78 q 539 -182 539 -136 q 503 -276 539 -240 q 414 -312 467 -312 z "},"Ừ":{"ha":1089,"x_min":79,"x_max":1246,"o":"m 488 -17 q 250 39 344 -17 q 117 194 156 94 q 106 428 79 293 l 215 972 l 440 972 l 332 432 q 354 238 306 301 q 513 175 403 175 q 676 235 614 175 q 764 432 738 296 l 872 972 l 1094 972 l 983 418 q 816 93 940 203 q 488 -17 692 -17 m 979 828 l 979 972 l 1017 972 q 1077 997 1054 972 q 1100 1060 1100 1021 q 1092 1106 1100 1085 q 1072 1143 1085 1128 l 1201 1190 q 1233 1128 1221 1163 q 1246 1051 1246 1093 q 1217 932 1246 982 q 1135 855 1188 882 q 1011 828 1082 828 l 979 828 m 629 1051 l 417 1251 l 650 1251 l 797 1051 l 629 1051 z "},"Ử":{"ha":1089,"x_min":79,"x_max":1246,"o":"m 488 -17 q 250 39 344 -17 q 117 194 156 94 q 106 428 79 293 l 215 972 l 440 972 l 332 432 q 354 238 306 301 q 513 175 403 175 q 676 235 614 175 q 764 432 738 296 l 872 972 l 1094 972 l 983 418 q 816 93 940 203 q 488 -17 692 -17 m 979 828 l 979 972 l 1017 972 q 1077 997 1054 972 q 1100 1060 1100 1021 q 1092 1106 1100 1085 q 1072 1143 1085 1128 l 1201 1190 q 1233 1128 1221 1163 q 1246 1051 1246 1093 q 1217 932 1246 982 q 1135 855 1188 882 q 1011 828 1082 828 l 979 828 m 674 1007 l 617 1081 q 682 1124 664 1101 q 700 1174 700 1147 q 685 1211 700 1197 q 642 1225 669 1225 q 558 1197 600 1225 l 521 1288 q 595 1322 554 1310 q 678 1333 636 1333 q 788 1298 747 1333 q 829 1203 829 1263 q 789 1089 829 1138 q 674 1007 749 1040 z "},"Ữ":{"ha":1089,"x_min":79,"x_max":1246,"o":"m 488 -17 q 250 39 344 -17 q 117 194 156 94 q 106 428 79 293 l 215 972 l 440 972 l 332 432 q 354 238 306 301 q 513 175 403 175 q 676 235 614 175 q 764 432 738 296 l 872 972 l 1094 972 l 983 418 q 816 93 940 203 q 488 -17 692 -17 m 979 828 l 979 972 l 1017 972 q 1077 997 1054 972 q 1100 1060 1100 1021 q 1092 1106 1100 1085 q 1072 1143 1085 1128 l 1201 1190 q 1233 1128 1221 1163 q 1246 1051 1246 1093 q 1217 932 1246 982 q 1135 855 1188 882 q 1011 828 1082 828 l 979 828 m 788 1047 q 724 1060 751 1047 q 676 1091 697 1074 q 635 1122 654 1108 q 594 1135 615 1135 q 546 1114 565 1135 q 519 1057 526 1093 l 410 1057 q 475 1208 426 1156 q 594 1260 524 1260 q 658 1247 631 1260 q 706 1215 685 1233 q 747 1184 728 1197 q 789 1171 767 1171 q 838 1192 818 1171 q 863 1246 857 1214 l 972 1246 q 908 1099 957 1151 q 788 1047 860 1047 z "},"Ű":{"ha":1069,"x_min":79,"x_max":1094,"o":"m 488 -17 q 250 39 344 -17 q 117 194 156 94 q 106 428 79 293 l 215 972 l 440 972 l 332 432 q 354 238 306 301 q 513 175 403 175 q 676 235 614 175 q 764 432 738 296 l 872 972 l 1094 972 l 983 418 q 816 93 940 203 q 488 -17 692 -17 m 731 1051 l 851 1251 l 1060 1251 l 892 1051 l 731 1051 m 449 1051 l 571 1251 l 779 1251 l 613 1051 l 449 1051 z "},"Ȗ":{"ha":1069,"x_min":79,"x_max":1094,"o":"m 488 -17 q 250 39 344 -17 q 117 194 156 94 q 106 428 79 293 l 215 972 l 440 972 l 332 432 q 354 238 306 301 q 513 175 403 175 q 676 235 614 175 q 764 432 738 296 l 872 972 l 1094 972 l 983 418 q 816 93 940 203 q 488 -17 692 -17 m 415 1051 q 512 1207 435 1150 q 699 1264 589 1264 q 822 1238 769 1264 q 904 1164 875 1211 q 928 1051 933 1117 l 794 1051 q 767 1124 797 1097 q 686 1151 738 1151 q 600 1124 635 1151 q 556 1051 565 1097 l 415 1051 z "},"Ū":{"ha":1069,"x_min":79,"x_max":1094,"o":"m 488 -17 q 250 39 344 -17 q 117 194 156 94 q 106 428 79 293 l 215 972 l 440 972 l 332 432 q 354 238 306 301 q 513 175 403 175 q 676 235 614 175 q 764 432 738 296 l 872 972 l 1094 972 l 983 418 q 816 93 940 203 q 488 -17 692 -17 m 424 1090 l 446 1213 l 960 1213 l 936 1090 l 424 1090 z "},"Ṻ":{"ha":1069,"x_min":79,"x_max":1094,"o":"m 488 -17 q 250 39 344 -17 q 117 194 156 94 q 106 428 79 293 l 215 972 l 440 972 l 332 432 q 354 238 306 301 q 513 175 403 175 q 676 235 614 175 q 764 432 738 296 l 872 972 l 1094 972 l 983 418 q 816 93 940 203 q 488 -17 692 -17 m 422 1078 l 444 1193 l 958 1193 l 936 1078 l 422 1078 m 867 1278 q 805 1300 829 1278 q 781 1360 781 1322 q 810 1433 781 1404 q 878 1461 840 1461 q 940 1438 917 1461 q 964 1376 964 1415 q 935 1305 964 1332 q 867 1278 906 1278 m 594 1278 q 533 1300 557 1278 q 508 1360 508 1322 q 538 1433 508 1404 q 607 1461 568 1461 q 669 1438 644 1461 q 693 1376 693 1415 q 663 1305 693 1332 q 594 1278 633 1278 z "},"Ų":{"ha":1069,"x_min":79,"x_max":1094,"o":"m 872 972 l 1094 972 l 983 418 q 860 138 949 243 q 628 -1 771 32 q 464 -69 514 -28 q 414 -154 414 -111 q 433 -197 414 -182 q 482 -212 451 -212 q 528 -206 506 -212 q 569 -192 551 -200 l 586 -290 q 523 -313 558 -304 q 446 -322 488 -322 q 319 -286 368 -322 q 271 -185 271 -250 q 319 -62 271 -115 q 458 31 368 -8 l 547 -14 q 517 -16 532 -15 q 488 -17 503 -17 q 250 39 344 -17 q 117 194 156 94 q 106 428 79 293 l 215 972 l 440 972 l 332 432 q 354 238 306 301 q 513 175 403 175 q 676 235 614 175 q 764 432 738 296 l 872 972 z "},"Ʊ":{"ha":1251,"x_min":104,"x_max":1349,"o":"m 1349 972 l 1314 789 l 1079 789 q 1152 666 1129 733 q 1175 514 1175 599 q 1130 297 1175 394 q 1003 130 1085 200 q 814 22 922 60 q 578 -17 706 -17 q 336 31 443 -17 q 167 168 229 79 q 106 379 106 257 q 122 506 106 446 q 167 619 138 567 q 235 715 197 672 q 317 789 274 757 l 104 789 l 140 972 l 649 972 l 615 801 q 504 739 556 776 q 415 651 453 701 q 356 539 376 600 q 335 408 335 478 q 410 235 335 294 q 601 175 485 175 q 791 221 713 175 q 912 347 869 267 q 954 528 954 426 q 938 640 954 589 q 890 731 922 690 q 806 801 857 771 l 840 972 l 1349 972 z "},"Ů":{"ha":1069,"x_min":79,"x_max":1094,"o":"m 488 -17 q 250 39 344 -17 q 117 194 156 94 q 106 428 79 293 l 215 972 l 440 972 l 332 432 q 354 238 306 301 q 513 175 403 175 q 676 235 614 175 q 764 432 738 296 l 872 972 l 1094 972 l 983 418 q 816 93 940 203 q 488 -17 692 -17 m 700 1026 q 613 1049 651 1026 q 551 1110 574 1072 q 528 1194 528 1147 q 551 1278 528 1240 q 613 1340 574 1317 q 700 1363 651 1363 q 788 1340 749 1363 q 849 1278 826 1317 q 872 1194 872 1240 q 849 1110 872 1147 q 788 1049 826 1072 q 700 1026 749 1026 m 700 1110 q 760 1133 736 1110 q 783 1193 783 1157 q 760 1255 783 1231 q 700 1279 736 1279 q 641 1256 665 1279 q 617 1194 617 1232 q 640 1133 617 1157 q 700 1110 664 1110 z "},"Ũ":{"ha":1069,"x_min":79,"x_max":1094,"o":"m 488 -17 q 250 39 344 -17 q 117 194 156 94 q 106 428 79 293 l 215 972 l 440 972 l 332 432 q 354 238 306 301 q 513 175 403 175 q 676 235 614 175 q 764 432 738 296 l 872 972 l 1094 972 l 983 418 q 816 93 940 203 q 488 -17 692 -17 m 788 1047 q 724 1060 751 1047 q 676 1091 697 1074 q 635 1122 654 1108 q 594 1135 615 1135 q 546 1114 565 1135 q 519 1057 526 1093 l 410 1057 q 475 1208 426 1156 q 594 1260 524 1260 q 658 1247 631 1260 q 706 1215 685 1233 q 747 1184 728 1197 q 789 1171 767 1171 q 838 1192 818 1171 q 863 1246 857 1214 l 972 1246 q 908 1099 957 1151 q 788 1047 860 1047 z "},"Ṹ":{"ha":1069,"x_min":79,"x_max":1094,"o":"m 488 -17 q 250 39 344 -17 q 117 194 156 94 q 106 428 79 293 l 215 972 l 440 972 l 332 432 q 354 238 306 301 q 513 175 403 175 q 676 235 614 175 q 764 432 738 296 l 872 972 l 1094 972 l 983 418 q 816 93 940 203 q 488 -17 692 -17 m 781 1049 q 702 1067 733 1049 q 647 1103 671 1085 q 599 1122 624 1122 q 553 1105 571 1122 q 528 1057 535 1088 l 417 1057 q 477 1184 429 1140 q 599 1228 525 1228 q 676 1210 646 1228 q 731 1173 707 1192 q 781 1154 756 1154 q 829 1173 811 1154 q 853 1218 847 1192 l 961 1218 q 903 1094 950 1139 q 781 1049 856 1049 m 593 1275 l 765 1443 l 992 1443 l 756 1275 l 593 1275 z "},"Ṵ":{"ha":1069,"x_min":79,"x_max":1094,"o":"m 488 -17 q 250 39 344 -17 q 117 194 156 94 q 106 428 79 293 l 215 972 l 440 972 l 332 432 q 354 238 306 301 q 513 175 403 175 q 676 235 614 175 q 764 432 738 296 l 872 972 l 1094 972 l 983 418 q 816 93 940 203 q 488 -17 692 -17 m 522 -286 q 459 -273 486 -286 q 410 -242 432 -260 q 369 -212 389 -225 q 329 -199 350 -199 q 281 -219 300 -199 q 254 -276 261 -240 l 144 -276 q 210 -126 161 -178 q 329 -74 258 -74 q 392 -87 365 -74 q 441 -118 419 -100 q 482 -149 463 -136 q 524 -162 501 -162 q 572 -141 553 -162 q 597 -87 592 -119 l 707 -87 q 643 -234 692 -182 q 522 -286 594 -286 z "},"V":{"ha":1036,"x_min":107,"x_max":1169,"o":"m 332 0 l 107 972 l 339 972 l 535 110 l 389 110 l 936 972 l 1169 972 l 554 0 l 332 0 z "},"Ɣ":{"ha":939,"x_min":93,"x_max":1100,"o":"m 371 -286 q 244 -256 299 -286 q 165 -173 190 -225 q 151 -58 139 -121 q 192 42 160 -7 q 265 140 224 92 q 348 237 306 189 q 422 332 390 285 l 865 972 l 1100 972 l 571 213 q 506 140 546 179 q 423 60 465 100 q 349 -17 381 19 q 314 -85 318 -54 q 328 -128 310 -110 q 375 -146 346 -146 q 424 -128 403 -146 q 450 -85 444 -111 q 442 -17 456 -54 q 404 60 428 21 q 359 137 381 99 q 326 207 338 175 l 93 972 l 325 972 l 508 332 q 541 240 519 292 q 583 132 563 189 q 615 17 604 75 q 617 -96 626 -42 q 534 -233 601 -181 q 371 -286 467 -286 z "},"Ṿ":{"ha":1036,"x_min":107,"x_max":1169,"o":"m 332 0 l 107 972 l 339 972 l 535 110 l 389 110 l 936 972 l 1169 972 l 554 0 l 332 0 m 397 -311 q 317 -282 347 -311 q 288 -208 288 -253 q 324 -113 288 -150 q 414 -76 361 -76 q 492 -106 463 -76 q 522 -181 522 -135 q 486 -275 522 -239 q 397 -311 450 -311 z "},"Ʋ":{"ha":1067,"x_min":79,"x_max":1063,"o":"m 488 -17 q 250 39 344 -17 q 117 194 156 94 q 106 428 79 293 l 215 972 l 440 972 l 332 432 q 354 238 306 301 q 513 175 403 175 q 676 235 614 175 q 767 432 739 296 l 824 721 q 821 788 832 763 q 785 822 810 813 q 728 828 761 832 q 660 804 696 824 l 642 964 q 767 996 703 989 q 888 990 831 1003 q 987 944 946 978 q 1045 855 1028 911 q 1046 718 1063 799 l 986 418 q 817 93 943 203 q 488 -17 692 -17 z "},"Ṽ":{"ha":1036,"x_min":107,"x_max":1169,"o":"m 332 0 l 107 972 l 339 972 l 535 110 l 389 110 l 936 972 l 1169 972 l 554 0 l 332 0 m 769 1047 q 706 1060 733 1047 q 658 1091 679 1074 q 617 1122 636 1108 q 576 1135 597 1135 q 528 1114 547 1135 q 501 1057 508 1093 l 392 1057 q 457 1208 408 1156 q 576 1260 506 1260 q 640 1247 613 1260 q 688 1215 667 1233 q 729 1184 710 1197 q 771 1171 749 1171 q 819 1192 800 1171 q 844 1246 839 1214 l 954 1246 q 890 1099 939 1151 q 769 1047 842 1047 z "},"Ʌ":{"ha":1036,"x_min":-87,"x_max":975,"o":"m 749 972 l 975 0 l 743 0 l 547 863 l 693 863 l 146 0 l -87 0 l 528 972 l 749 972 z "},"W":{"ha":1593,"x_min":138,"x_max":1694,"o":"m 263 0 l 138 972 l 361 972 l 468 113 l 353 113 l 813 972 l 1021 972 l 1125 113 l 1014 113 l 1471 972 l 1694 972 l 1181 0 l 939 0 l 842 756 l 910 756 l 504 0 l 263 0 z "},"Ẃ":{"ha":1593,"x_min":138,"x_max":1694,"o":"m 263 0 l 138 972 l 361 972 l 468 113 l 353 113 l 813 972 l 1021 972 l 1125 113 l 1014 113 l 1471 972 l 1694 972 l 1181 0 l 939 0 l 842 756 l 910 756 l 504 0 l 263 0 m 801 1051 l 1010 1251 l 1249 1251 l 976 1051 l 801 1051 z "},"Ŵ":{"ha":1593,"x_min":138,"x_max":1694,"o":"m 263 0 l 138 972 l 361 972 l 468 113 l 353 113 l 813 972 l 1021 972 l 1125 113 l 1014 113 l 1471 972 l 1694 972 l 1181 0 l 939 0 l 842 756 l 910 756 l 504 0 l 263 0 m 660 1051 l 871 1251 l 1061 1251 l 1218 1051 l 1064 1051 l 893 1218 l 1036 1218 l 822 1051 l 660 1051 z "},"Ẅ":{"ha":1593,"x_min":138,"x_max":1694,"o":"m 263 0 l 138 972 l 361 972 l 468 113 l 353 113 l 813 972 l 1021 972 l 1125 113 l 1014 113 l 1471 972 l 1694 972 l 1181 0 l 939 0 l 842 756 l 910 756 l 504 0 l 263 0 m 1094 1058 q 1030 1082 1056 1058 q 1004 1144 1004 1106 q 1035 1221 1004 1192 q 1107 1250 1065 1250 q 1171 1226 1144 1250 q 1197 1164 1197 1203 q 1166 1088 1197 1117 q 1094 1058 1135 1058 m 813 1058 q 749 1082 775 1058 q 722 1144 722 1106 q 753 1221 722 1192 q 825 1250 785 1250 q 890 1226 864 1250 q 917 1164 917 1203 q 885 1088 917 1117 q 813 1058 853 1058 z "},"Ẇ":{"ha":1593,"x_min":138,"x_max":1694,"o":"m 263 0 l 138 972 l 361 972 l 468 113 l 353 113 l 813 972 l 1021 972 l 1125 113 l 1014 113 l 1471 972 l 1694 972 l 1181 0 l 939 0 l 842 756 l 910 756 l 504 0 l 263 0 m 947 1058 q 867 1088 897 1058 q 838 1161 838 1117 q 874 1256 838 1219 q 964 1293 911 1293 q 1042 1264 1013 1293 q 1072 1189 1072 1235 q 1036 1094 1072 1131 q 947 1058 1000 1058 z "},"Ẉ":{"ha":1593,"x_min":138,"x_max":1694,"o":"m 263 0 l 138 972 l 361 972 l 468 113 l 353 113 l 813 972 l 1021 972 l 1125 113 l 1014 113 l 1471 972 l 1694 972 l 1181 0 l 939 0 l 842 756 l 910 756 l 504 0 l 263 0 m 674 -311 q 594 -282 624 -311 q 564 -208 564 -253 q 601 -113 564 -150 q 690 -76 638 -76 q 769 -106 739 -76 q 799 -181 799 -135 q 763 -275 799 -239 q 674 -311 726 -311 z "},"Ẁ":{"ha":1593,"x_min":138,"x_max":1694,"o":"m 263 0 l 138 972 l 361 972 l 468 113 l 353 113 l 813 972 l 1021 972 l 1125 113 l 1014 113 l 1471 972 l 1694 972 l 1181 0 l 939 0 l 842 756 l 910 756 l 504 0 l 263 0 m 889 1051 l 676 1251 l 910 1251 l 1057 1051 l 889 1051 z "},"Ⱳ":{"ha":1646,"x_min":138,"x_max":1800,"o":"m 263 0 l 138 972 l 361 972 l 468 108 l 353 108 l 813 972 l 1021 972 l 1117 108 l 1006 108 l 1394 858 q 1492 987 1439 943 q 1601 1042 1546 1031 q 1707 1039 1656 1053 q 1800 996 1758 1025 l 1713 838 q 1665 850 1689 851 q 1618 831 1640 849 q 1576 778 1596 814 l 1172 0 l 931 0 l 842 763 l 910 764 l 504 0 l 263 0 z "},"X":{"ha":992,"x_min":-69,"x_max":1086,"o":"m -69 0 l 454 567 l 432 438 l 144 972 l 385 972 l 585 589 l 486 592 l 831 972 l 1086 972 l 594 438 l 601 565 l 910 0 l 667 0 l 456 406 l 557 401 l 200 0 l -69 0 z "},"Ẍ":{"ha":992,"x_min":-69,"x_max":1086,"o":"m -69 0 l 454 567 l 432 438 l 144 972 l 385 972 l 585 589 l 486 592 l 831 972 l 1086 972 l 594 438 l 601 565 l 910 0 l 667 0 l 456 406 l 557 401 l 200 0 l -69 0 m 794 1058 q 730 1082 756 1058 q 704 1144 704 1106 q 735 1221 704 1192 q 807 1250 765 1250 q 871 1226 844 1250 q 897 1164 897 1203 q 866 1088 897 1117 q 794 1058 835 1058 m 513 1058 q 449 1082 475 1058 q 422 1144 422 1106 q 453 1221 422 1192 q 525 1250 485 1250 q 590 1226 564 1250 q 617 1164 617 1203 q 585 1088 617 1117 q 513 1058 553 1058 z "},"Ẋ":{"ha":992,"x_min":-69,"x_max":1086,"o":"m -69 0 l 454 567 l 432 438 l 144 972 l 385 972 l 585 589 l 486 592 l 831 972 l 1086 972 l 594 438 l 601 565 l 910 0 l 667 0 l 456 406 l 557 401 l 200 0 l -69 0 m 647 1058 q 567 1088 597 1058 q 538 1161 538 1117 q 574 1256 538 1219 q 664 1293 611 1293 q 742 1264 713 1293 q 772 1189 772 1235 q 736 1094 772 1131 q 647 1058 700 1058 z "},"Y":{"ha":967,"x_min":114,"x_max":1093,"o":"m 296 0 l 375 400 l 400 258 l 114 972 l 339 972 l 557 426 l 421 425 l 861 972 l 1093 972 l 524 257 l 600 400 l 521 0 l 296 0 z "},"Ý":{"ha":967,"x_min":114,"x_max":1093,"o":"m 296 0 l 375 400 l 400 258 l 114 972 l 339 972 l 557 426 l 421 425 l 861 972 l 1093 972 l 524 257 l 600 400 l 521 0 l 296 0 m 489 1051 l 697 1251 l 936 1251 l 664 1051 l 489 1051 z "},"Ŷ":{"ha":967,"x_min":114,"x_max":1093,"o":"m 296 0 l 375 400 l 400 258 l 114 972 l 339 972 l 557 426 l 421 425 l 861 972 l 1093 972 l 524 257 l 600 400 l 521 0 l 296 0 m 349 1051 l 560 1251 l 750 1251 l 907 1051 l 753 1051 l 582 1218 l 725 1218 l 511 1051 l 349 1051 z "},"Ÿ":{"ha":967,"x_min":114,"x_max":1093,"o":"m 296 0 l 375 400 l 400 258 l 114 972 l 339 972 l 557 426 l 421 425 l 861 972 l 1093 972 l 524 257 l 600 400 l 521 0 l 296 0 m 782 1058 q 717 1082 743 1058 q 692 1144 692 1106 q 722 1221 692 1192 q 794 1250 753 1250 q 858 1226 832 1250 q 885 1164 885 1203 q 853 1088 885 1117 q 782 1058 822 1058 m 500 1058 q 436 1082 463 1058 q 410 1144 410 1106 q 441 1221 410 1192 q 513 1250 472 1250 q 578 1226 551 1250 q 604 1164 604 1203 q 572 1088 604 1117 q 500 1058 540 1058 z "},"Ẏ":{"ha":967,"x_min":114,"x_max":1093,"o":"m 296 0 l 375 400 l 400 258 l 114 972 l 339 972 l 557 426 l 421 425 l 861 972 l 1093 972 l 524 257 l 600 400 l 521 0 l 296 0 m 635 1058 q 555 1088 585 1058 q 525 1161 525 1117 q 562 1256 525 1219 q 651 1293 599 1293 q 730 1264 700 1293 q 760 1189 760 1235 q 724 1094 760 1131 q 635 1058 688 1058 z "},"Ỵ":{"ha":967,"x_min":114,"x_max":1093,"o":"m 296 0 l 375 400 l 400 258 l 114 972 l 339 972 l 557 426 l 421 425 l 861 972 l 1093 972 l 524 257 l 600 400 l 521 0 l 296 0 m 361 -312 q 281 -283 311 -312 q 251 -210 251 -254 q 288 -115 251 -151 q 378 -78 325 -78 q 456 -107 426 -78 q 486 -182 486 -136 q 450 -276 486 -240 q 361 -312 414 -312 z "},"Ỳ":{"ha":967,"x_min":114,"x_max":1093,"o":"m 296 0 l 375 400 l 400 258 l 114 972 l 339 972 l 557 426 l 421 425 l 861 972 l 1093 972 l 524 257 l 600 400 l 521 0 l 296 0 m 576 1051 l 364 1251 l 597 1251 l 744 1051 l 576 1051 z "},"Ƴ":{"ha":992,"x_min":114,"x_max":1172,"o":"m 296 0 l 375 400 l 400 258 l 114 972 l 339 972 l 557 426 l 421 425 l 833 939 q 994 1042 901 1026 q 1172 993 1086 1057 l 1083 835 q 1017 845 1047 853 q 958 803 986 838 l 524 257 l 600 400 l 521 0 l 296 0 z "},"Ỷ":{"ha":967,"x_min":114,"x_max":1093,"o":"m 296 0 l 375 400 l 400 258 l 114 972 l 339 972 l 557 426 l 421 425 l 861 972 l 1093 972 l 524 257 l 600 400 l 521 0 l 296 0 m 622 1007 l 565 1081 q 631 1124 613 1101 q 649 1174 649 1147 q 633 1211 649 1197 q 590 1225 618 1225 q 507 1197 549 1225 l 469 1288 q 544 1322 503 1310 q 626 1333 585 1333 q 737 1298 696 1333 q 778 1203 778 1263 q 738 1089 778 1138 q 622 1007 697 1040 z "},"Ȳ":{"ha":967,"x_min":114,"x_max":1093,"o":"m 296 0 l 375 400 l 400 258 l 114 972 l 339 972 l 557 426 l 421 425 l 861 972 l 1093 972 l 524 257 l 600 400 l 521 0 l 296 0 m 372 1090 l 394 1213 l 908 1213 l 885 1090 l 372 1090 z "},"Ʀ":{"ha":1021,"x_min":40,"x_max":997,"o":"m 208 183 l 244 363 l 535 363 q 708 413 646 363 q 769 560 769 464 q 722 666 769 632 q 589 700 675 700 l 314 700 l 351 883 l 618 883 q 898 804 799 883 q 997 582 997 725 q 940 370 997 460 q 777 232 883 281 q 525 183 671 183 l 208 183 m 40 0 l 235 972 l 461 972 l 267 0 l 40 0 m 646 -139 l 436 232 l 672 232 l 882 -139 l 646 -139 z "},"Ɏ":{"ha":1029,"x_min":129,"x_max":1158,"o":"m 361 0 l 440 400 l 467 258 l 179 972 l 396 972 l 600 415 l 510 414 l 938 972 l 1158 972 l 589 257 l 667 400 l 586 0 l 361 0 m 129 693 l 160 844 l 1131 844 l 1101 693 l 129 693 z "},"Ỹ":{"ha":967,"x_min":114,"x_max":1093,"o":"m 296 0 l 375 400 l 400 258 l 114 972 l 339 972 l 557 426 l 421 425 l 861 972 l 1093 972 l 524 257 l 600 400 l 521 0 l 296 0 m 735 1047 q 672 1060 699 1047 q 623 1091 644 1074 q 582 1122 601 1108 q 542 1135 563 1135 q 493 1114 513 1135 q 467 1057 474 1093 l 357 1057 q 422 1208 374 1156 q 542 1260 471 1260 q 605 1247 578 1260 q 653 1215 632 1233 q 694 1184 675 1197 q 736 1171 714 1171 q 785 1192 765 1171 q 810 1246 804 1214 l 919 1246 q 856 1099 904 1151 q 735 1047 807 1047 z "},"Z":{"ha":932,"x_min":-24,"x_max":1003,"o":"m -24 0 l 6 146 l 744 871 l 764 789 l 149 789 l 186 972 l 1003 972 l 974 826 l 236 101 l 217 183 l 864 183 l 826 0 l -24 0 z "},"Ź":{"ha":932,"x_min":-24,"x_max":1003,"o":"m -24 0 l 6 146 l 744 871 l 764 789 l 149 789 l 186 972 l 1003 972 l 974 826 l 236 101 l 217 183 l 864 183 l 826 0 l -24 0 m 482 1051 l 690 1251 l 929 1251 l 657 1051 l 482 1051 z "},"Ž":{"ha":932,"x_min":-24,"x_max":1003,"o":"m -24 0 l 6 146 l 744 871 l 764 789 l 149 789 l 186 972 l 1003 972 l 974 826 l 236 101 l 217 183 l 864 183 l 826 0 l -24 0 m 506 1051 l 350 1251 l 504 1251 l 675 1086 l 532 1086 l 746 1251 l 907 1251 l 697 1051 l 506 1051 z "},"Ẑ":{"ha":932,"x_min":-24,"x_max":1003,"o":"m -24 0 l 6 146 l 744 871 l 764 789 l 149 789 l 186 972 l 1003 972 l 974 826 l 236 101 l 217 183 l 864 183 l 826 0 l -24 0 m 342 1051 l 553 1251 l 743 1251 l 900 1051 l 746 1051 l 575 1218 l 718 1218 l 504 1051 l 342 1051 z "},"Ż":{"ha":932,"x_min":-24,"x_max":1003,"o":"m -24 0 l 6 146 l 744 871 l 764 789 l 149 789 l 186 972 l 1003 972 l 974 826 l 236 101 l 217 183 l 864 183 l 826 0 l -24 0 m 629 1058 q 549 1088 579 1058 q 519 1161 519 1117 q 556 1256 519 1219 q 646 1293 593 1293 q 724 1264 694 1293 q 754 1189 754 1235 q 718 1094 754 1131 q 629 1058 682 1058 z "},"Ẓ":{"ha":932,"x_min":-24,"x_max":1003,"o":"m -24 0 l 6 146 l 744 871 l 764 789 l 149 789 l 186 972 l 1003 972 l 974 826 l 236 101 l 217 183 l 864 183 l 826 0 l -24 0 m 361 -311 q 281 -282 311 -311 q 251 -208 251 -253 q 288 -113 251 -150 q 378 -76 325 -76 q 456 -106 426 -76 q 486 -181 486 -135 q 450 -275 486 -239 q 361 -311 414 -311 z "},"Ẕ":{"ha":932,"x_min":-24,"x_max":1003,"o":"m -24 0 l 6 146 l 744 871 l 764 789 l 149 789 l 186 972 l 1003 972 l 974 826 l 236 101 l 217 183 l 864 183 l 826 0 l -24 0 m 103 -247 l 125 -125 l 639 -125 l 615 -247 l 103 -247 z "},"Ƶ":{"ha":932,"x_min":-24,"x_max":1003,"o":"m -24 0 l 6 146 l 744 871 l 764 789 l 149 789 l 186 972 l 1003 972 l 974 826 l 236 101 l 217 183 l 864 183 l 826 0 l -24 0 m 167 421 l 196 572 l 829 572 l 800 421 l 167 421 z "},"Ꞌ":{"ha":413,"x_min":101,"x_max":436,"o":"m 101 413 l 214 972 l 436 972 l 297 413 l 101 413 z "},"ɪ":{"ha":539,"x_min":-39,"x_max":578,"o":"m 78 583 l 111 747 l 578 747 l 544 583 l 78 583 m -39 0 l -6 164 l 460 164 l 428 0 l -39 0 m 86 0 l 236 747 l 453 747 l 303 0 l 86 0 z "},"ᵻ":{"ha":585,"x_min":-18,"x_max":597,"o":"m 99 583 l 132 747 l 597 747 l 565 583 l 99 583 m -18 0 l 15 164 l 481 164 l 449 0 l -18 0 m 107 0 l 256 747 l 474 747 l 324 0 l 107 0 m 54 318 l 81 443 l 529 443 l 503 318 l 54 318 z "},"ɴ":{"ha":932,"x_min":10,"x_max":922,"o":"m 10 0 l 160 750 l 339 750 l 683 256 l 608 258 l 708 750 l 922 750 l 771 0 l 592 0 l 249 494 l 322 493 l 224 0 l 10 0 z "},"ʀ":{"ha":854,"x_min":10,"x_max":828,"o":"m 10 0 l 160 750 l 500 750 q 742 686 656 750 q 828 504 828 622 q 779 342 828 411 q 642 235 731 274 q 433 197 554 197 l 171 197 l 286 292 l 229 0 l 10 0 m 521 0 l 351 274 l 578 274 l 749 0 l 521 0 m 281 265 l 204 365 l 443 365 q 564 397 521 365 q 607 483 607 428 q 570 556 607 535 q 471 578 533 578 l 249 578 l 364 682 l 281 265 z "},"ᵾ":{"ha":999,"x_min":1,"x_max":1017,"o":"m 372 -11 q 213 28 279 -11 q 119 144 147 68 q 114 333 92 221 l 196 747 l 413 747 l 333 347 q 346 221 317 265 q 453 176 375 176 q 587 224 532 176 q 661 368 642 271 l 738 747 l 954 747 l 804 0 l 600 0 l 642 211 l 672 147 q 539 27 618 65 q 372 -11 460 -11 m 1 356 l 28 481 l 1017 481 l 990 356 l 1 356 z "},"a":{"ha":958,"x_min":42,"x_max":933,"o":"m 364 -11 q 204 28 278 -11 q 86 143 131 68 q 42 324 42 218 q 73 497 42 418 q 161 635 104 576 q 293 726 218 693 q 454 758 368 758 q 614 724 547 758 q 713 616 681 689 q 736 428 746 543 q 682 197 729 296 q 555 43 635 97 q 364 -11 475 -11 m 431 168 q 544 199 494 168 q 622 285 593 231 q 650 414 650 340 q 605 535 650 490 q 479 579 560 579 q 367 548 417 579 q 288 462 317 517 q 260 333 260 407 q 305 213 260 257 q 431 168 350 168 m 579 0 l 608 149 l 657 371 l 686 593 l 717 747 l 933 747 l 785 0 l 579 0 z "},"á":{"ha":958,"x_min":42,"x_max":933,"o":"m 364 -11 q 204 28 278 -11 q 86 143 131 68 q 42 324 42 218 q 73 497 42 418 q 161 635 104 576 q 293 726 218 693 q 454 758 368 758 q 614 724 547 758 q 713 616 681 689 q 736 428 746 543 q 682 197 729 296 q 555 43 635 97 q 364 -11 475 -11 m 431 168 q 544 199 494 168 q 622 285 593 231 q 650 414 650 340 q 605 535 650 490 q 479 579 560 579 q 367 548 417 579 q 288 462 317 517 q 260 333 260 407 q 305 213 260 257 q 431 168 350 168 m 579 0 l 608 149 l 657 371 l 686 593 l 717 747 l 933 747 l 785 0 l 579 0 m 450 843 l 658 1043 l 897 1043 l 625 843 l 450 843 z "},"ă":{"ha":958,"x_min":42,"x_max":933,"o":"m 364 -11 q 204 28 278 -11 q 86 143 131 68 q 42 324 42 218 q 73 497 42 418 q 161 635 104 576 q 293 726 218 693 q 454 758 368 758 q 614 724 547 758 q 713 616 681 689 q 736 428 746 543 q 682 197 729 296 q 555 43 635 97 q 364 -11 475 -11 m 431 168 q 544 199 494 168 q 622 285 593 231 q 650 414 650 340 q 605 535 650 490 q 479 579 560 579 q 367 548 417 579 q 288 462 317 517 q 260 333 260 407 q 305 213 260 257 q 431 168 350 168 m 579 0 l 608 149 l 657 371 l 686 593 l 717 747 l 933 747 l 785 0 l 579 0 m 592 832 q 467 858 522 832 q 385 931 413 883 q 361 1043 357 979 l 494 1043 q 523 971 493 997 q 604 944 553 944 q 690 971 656 944 q 733 1043 725 997 l 874 1043 q 778 889 856 946 q 592 832 701 832 z "},"ắ":{"ha":958,"x_min":42,"x_max":933,"o":"m 364 -11 q 204 28 278 -11 q 86 143 131 68 q 42 324 42 218 q 73 497 42 418 q 161 635 104 576 q 293 726 218 693 q 454 758 368 758 q 614 724 547 758 q 713 616 681 689 q 736 428 746 543 q 682 197 729 296 q 555 43 635 97 q 364 -11 475 -11 m 431 168 q 544 199 494 168 q 622 285 593 231 q 650 414 650 340 q 605 535 650 490 q 479 579 560 579 q 367 548 417 579 q 288 462 317 517 q 260 333 260 407 q 305 213 260 257 q 431 168 350 168 m 579 0 l 608 149 l 657 371 l 686 593 l 717 747 l 933 747 l 785 0 l 579 0 m 594 843 q 419 889 485 843 q 354 1013 353 935 l 481 1013 q 516 963 483 981 q 601 944 549 944 q 690 963 656 944 q 732 1013 724 981 l 867 1013 q 776 888 850 933 q 594 843 701 843 m 496 1043 l 668 1211 l 894 1211 l 658 1043 l 496 1043 z "},"ặ":{"ha":958,"x_min":42,"x_max":933,"o":"m 364 -11 q 204 28 278 -11 q 86 143 131 68 q 42 324 42 218 q 73 497 42 418 q 161 635 104 576 q 293 726 218 693 q 454 758 368 758 q 614 724 547 758 q 713 616 681 689 q 736 428 746 543 q 682 197 729 296 q 555 43 635 97 q 364 -11 475 -11 m 431 168 q 544 199 494 168 q 622 285 593 231 q 650 414 650 340 q 605 535 650 490 q 479 579 560 579 q 367 548 417 579 q 288 462 317 517 q 260 333 260 407 q 305 213 260 257 q 431 168 350 168 m 579 0 l 608 149 l 657 371 l 686 593 l 717 747 l 933 747 l 785 0 l 579 0 m 346 -312 q 266 -283 296 -312 q 236 -210 236 -254 q 273 -115 236 -151 q 363 -78 310 -78 q 441 -107 411 -78 q 471 -182 471 -136 q 435 -276 471 -240 q 346 -312 399 -312 m 592 832 q 467 858 522 832 q 385 931 413 883 q 361 1043 357 979 l 494 1043 q 523 971 493 997 q 604 944 553 944 q 690 971 656 944 q 733 1043 725 997 l 874 1043 q 778 889 856 946 q 592 832 701 832 z "},"ằ":{"ha":958,"x_min":42,"x_max":933,"o":"m 364 -11 q 204 28 278 -11 q 86 143 131 68 q 42 324 42 218 q 73 497 42 418 q 161 635 104 576 q 293 726 218 693 q 454 758 368 758 q 614 724 547 758 q 713 616 681 689 q 736 428 746 543 q 682 197 729 296 q 555 43 635 97 q 364 -11 475 -11 m 431 168 q 544 199 494 168 q 622 285 593 231 q 650 414 650 340 q 605 535 650 490 q 479 579 560 579 q 367 548 417 579 q 288 462 317 517 q 260 333 260 407 q 305 213 260 257 q 431 168 350 168 m 579 0 l 608 149 l 657 371 l 686 593 l 717 747 l 933 747 l 785 0 l 579 0 m 594 843 q 419 889 485 843 q 354 1013 353 935 l 481 1013 q 516 963 483 981 q 601 944 549 944 q 690 963 656 944 q 732 1013 724 981 l 867 1013 q 776 888 850 933 q 594 843 701 843 m 582 1043 l 397 1211 l 619 1211 l 739 1043 l 582 1043 z "},"ẳ":{"ha":958,"x_min":42,"x_max":933,"o":"m 364 -11 q 204 28 278 -11 q 86 143 131 68 q 42 324 42 218 q 73 497 42 418 q 161 635 104 576 q 293 726 218 693 q 454 758 368 758 q 614 724 547 758 q 713 616 681 689 q 736 428 746 543 q 682 197 729 296 q 555 43 635 97 q 364 -11 475 -11 m 431 168 q 544 199 494 168 q 622 285 593 231 q 650 414 650 340 q 605 535 650 490 q 479 579 560 579 q 367 548 417 579 q 288 462 317 517 q 260 333 260 407 q 305 213 260 257 q 431 168 350 168 m 579 0 l 608 149 l 657 371 l 686 593 l 717 747 l 933 747 l 785 0 l 579 0 m 594 843 q 419 889 485 843 q 354 1013 353 935 l 481 1013 q 516 963 483 981 q 601 944 549 944 q 690 963 656 944 q 732 1013 724 981 l 867 1013 q 776 888 850 933 q 594 843 701 843 m 619 1004 l 572 1056 q 620 1088 608 1071 q 632 1121 632 1106 q 621 1145 632 1136 q 592 1154 610 1154 q 526 1138 560 1154 l 500 1206 q 617 1235 554 1235 q 702 1209 671 1235 q 733 1139 733 1183 q 701 1058 733 1092 q 619 1004 668 1024 z "},"ẵ":{"ha":958,"x_min":42,"x_max":933,"o":"m 364 -11 q 204 28 278 -11 q 86 143 131 68 q 42 324 42 218 q 73 497 42 418 q 161 635 104 576 q 293 726 218 693 q 454 758 368 758 q 614 724 547 758 q 713 616 681 689 q 736 428 746 543 q 682 197 729 296 q 555 43 635 97 q 364 -11 475 -11 m 431 168 q 544 199 494 168 q 622 285 593 231 q 650 414 650 340 q 605 535 650 490 q 479 579 560 579 q 367 548 417 579 q 288 462 317 517 q 260 333 260 407 q 305 213 260 257 q 431 168 350 168 m 579 0 l 608 149 l 657 371 l 686 593 l 717 747 l 933 747 l 785 0 l 579 0 m 594 843 q 419 889 485 843 q 354 1013 353 935 l 481 1013 q 516 963 483 981 q 601 944 549 944 q 690 963 656 944 q 732 1013 724 981 l 867 1013 q 776 888 850 933 q 594 843 701 843 m 724 1069 q 645 1088 676 1069 q 590 1124 614 1106 q 542 1143 567 1143 q 496 1126 514 1143 q 471 1078 478 1108 l 360 1078 q 420 1205 372 1161 q 542 1249 468 1249 q 619 1231 589 1249 q 674 1194 650 1213 q 724 1175 699 1175 q 772 1194 754 1175 q 796 1239 790 1213 l 904 1239 q 846 1115 893 1160 q 724 1069 799 1069 z "},"ǎ":{"ha":958,"x_min":42,"x_max":933,"o":"m 364 -11 q 204 28 278 -11 q 86 143 131 68 q 42 324 42 218 q 73 497 42 418 q 161 635 104 576 q 293 726 218 693 q 454 758 368 758 q 614 724 547 758 q 713 616 681 689 q 736 428 746 543 q 682 197 729 296 q 555 43 635 97 q 364 -11 475 -11 m 431 168 q 544 199 494 168 q 622 285 593 231 q 650 414 650 340 q 605 535 650 490 q 479 579 560 579 q 367 548 417 579 q 288 462 317 517 q 260 333 260 407 q 305 213 260 257 q 431 168 350 168 m 579 0 l 608 149 l 657 371 l 686 593 l 717 747 l 933 747 l 785 0 l 579 0 m 488 843 l 332 1043 l 486 1043 l 657 878 l 514 878 l 728 1043 l 889 1043 l 679 843 l 488 843 z "},"â":{"ha":958,"x_min":42,"x_max":933,"o":"m 364 -11 q 204 28 278 -11 q 86 143 131 68 q 42 324 42 218 q 73 497 42 418 q 161 635 104 576 q 293 726 218 693 q 454 758 368 758 q 614 724 547 758 q 713 616 681 689 q 736 428 746 543 q 682 197 729 296 q 555 43 635 97 q 364 -11 475 -11 m 431 168 q 544 199 494 168 q 622 285 593 231 q 650 414 650 340 q 605 535 650 490 q 479 579 560 579 q 367 548 417 579 q 288 462 317 517 q 260 333 260 407 q 305 213 260 257 q 431 168 350 168 m 579 0 l 608 149 l 657 371 l 686 593 l 717 747 l 933 747 l 785 0 l 579 0 m 300 843 l 511 1043 l 701 1043 l 858 843 l 704 843 l 533 1010 l 676 1010 l 463 843 l 300 843 z "},"ấ":{"ha":958,"x_min":42,"x_max":1142,"o":"m 364 -11 q 204 28 278 -11 q 86 143 131 68 q 42 324 42 218 q 73 497 42 418 q 161 635 104 576 q 293 726 218 693 q 454 758 368 758 q 614 724 547 758 q 713 616 681 689 q 736 428 746 543 q 682 197 729 296 q 555 43 635 97 q 364 -11 475 -11 m 431 168 q 544 199 494 168 q 622 285 593 231 q 650 414 650 340 q 605 535 650 490 q 479 579 560 579 q 367 548 417 579 q 288 462 317 517 q 260 333 260 407 q 305 213 260 257 q 431 168 350 168 m 579 0 l 608 149 l 657 371 l 686 593 l 717 747 l 933 747 l 785 0 l 579 0 m 300 843 l 508 1001 l 696 1001 l 858 843 l 701 843 l 532 968 l 669 968 l 463 843 l 300 843 m 743 976 l 915 1144 l 1142 1144 l 906 976 l 743 976 z "},"ậ":{"ha":958,"x_min":42,"x_max":933,"o":"m 364 -11 q 204 28 278 -11 q 86 143 131 68 q 42 324 42 218 q 73 497 42 418 q 161 635 104 576 q 293 726 218 693 q 454 758 368 758 q 614 724 547 758 q 713 616 681 689 q 736 428 746 543 q 682 197 729 296 q 555 43 635 97 q 364 -11 475 -11 m 431 168 q 544 199 494 168 q 622 285 593 231 q 650 414 650 340 q 605 535 650 490 q 479 579 560 579 q 367 548 417 579 q 288 462 317 517 q 260 333 260 407 q 305 213 260 257 q 431 168 350 168 m 579 0 l 608 149 l 657 371 l 686 593 l 717 747 l 933 747 l 785 0 l 579 0 m 346 -312 q 266 -283 296 -312 q 236 -210 236 -254 q 273 -115 236 -151 q 363 -78 310 -78 q 441 -107 411 -78 q 471 -182 471 -136 q 435 -276 471 -240 q 346 -312 399 -312 m 300 843 l 511 1043 l 701 1043 l 858 843 l 704 843 l 533 1010 l 676 1010 l 463 843 l 300 843 z "},"ầ":{"ha":958,"x_min":42,"x_max":985,"o":"m 364 -11 q 204 28 278 -11 q 86 143 131 68 q 42 324 42 218 q 73 497 42 418 q 161 635 104 576 q 293 726 218 693 q 454 758 368 758 q 614 724 547 758 q 713 616 681 689 q 736 428 746 543 q 682 197 729 296 q 555 43 635 97 q 364 -11 475 -11 m 431 168 q 544 199 494 168 q 622 285 593 231 q 650 414 650 340 q 605 535 650 490 q 479 579 560 579 q 367 548 417 579 q 288 462 317 517 q 260 333 260 407 q 305 213 260 257 q 431 168 350 168 m 579 0 l 608 149 l 657 371 l 686 593 l 717 747 l 933 747 l 785 0 l 579 0 m 300 844 l 508 1003 l 696 1003 l 858 844 l 701 844 l 532 969 l 669 969 l 463 844 l 300 844 m 828 978 l 643 1146 l 865 1146 l 985 978 l 828 978 z "},"ẩ":{"ha":958,"x_min":42,"x_max":946,"o":"m 364 -11 q 204 28 278 -11 q 86 143 131 68 q 42 324 42 218 q 73 497 42 418 q 161 635 104 576 q 293 726 218 693 q 454 758 368 758 q 614 724 547 758 q 713 616 681 689 q 736 428 746 543 q 682 197 729 296 q 555 43 635 97 q 364 -11 475 -11 m 431 168 q 544 199 494 168 q 622 285 593 231 q 650 414 650 340 q 605 535 650 490 q 479 579 560 579 q 367 548 417 579 q 288 462 317 517 q 260 333 260 407 q 305 213 260 257 q 431 168 350 168 m 579 0 l 608 149 l 657 371 l 686 593 l 717 747 l 933 747 l 785 0 l 579 0 m 300 843 l 508 1001 l 696 1001 l 858 843 l 701 843 l 532 968 l 669 968 l 463 843 l 300 843 m 832 950 l 785 1001 q 833 1034 821 1017 q 844 1067 844 1051 q 833 1091 844 1082 q 804 1100 822 1100 q 739 1083 772 1100 l 713 1151 q 829 1181 767 1181 q 915 1155 883 1181 q 946 1085 946 1129 q 913 1003 946 1038 q 832 950 881 969 z "},"ẫ":{"ha":958,"x_min":42,"x_max":933,"o":"m 364 -11 q 204 28 278 -11 q 86 143 131 68 q 42 324 42 218 q 73 497 42 418 q 161 635 104 576 q 293 726 218 693 q 454 758 368 758 q 614 724 547 758 q 713 616 681 689 q 736 428 746 543 q 682 197 729 296 q 555 43 635 97 q 364 -11 475 -11 m 431 168 q 544 199 494 168 q 622 285 593 231 q 650 414 650 340 q 605 535 650 490 q 479 579 560 579 q 367 548 417 579 q 288 462 317 517 q 260 333 260 407 q 305 213 260 257 q 431 168 350 168 m 579 0 l 608 149 l 657 371 l 686 593 l 717 747 l 933 747 l 785 0 l 579 0 m 300 843 l 508 1001 l 696 1001 l 858 843 l 701 843 l 532 968 l 669 968 l 463 843 l 300 843 m 729 1050 q 651 1068 682 1050 q 596 1105 619 1086 q 547 1124 572 1124 q 501 1106 519 1124 q 476 1058 483 1089 l 365 1058 q 426 1185 378 1142 q 547 1229 474 1229 q 625 1211 594 1229 q 680 1174 656 1193 q 729 1156 704 1156 q 778 1174 760 1156 q 801 1219 796 1193 l 910 1219 q 851 1095 899 1140 q 729 1050 804 1050 z "},"ȁ":{"ha":958,"x_min":42,"x_max":933,"o":"m 364 -11 q 204 28 278 -11 q 86 143 131 68 q 42 324 42 218 q 73 497 42 418 q 161 635 104 576 q 293 726 218 693 q 454 758 368 758 q 614 724 547 758 q 713 616 681 689 q 736 428 746 543 q 682 197 729 296 q 555 43 635 97 q 364 -11 475 -11 m 431 168 q 544 199 494 168 q 622 285 593 231 q 650 414 650 340 q 605 535 650 490 q 479 579 560 579 q 367 548 417 579 q 288 462 317 517 q 260 333 260 407 q 305 213 260 257 q 431 168 350 168 m 579 0 l 608 149 l 657 371 l 686 593 l 717 747 l 933 747 l 785 0 l 579 0 m 644 843 l 539 1043 l 733 1043 l 794 843 l 644 843 m 364 843 l 258 1043 l 453 1043 l 514 843 l 364 843 z "},"ä":{"ha":958,"x_min":42,"x_max":933,"o":"m 364 -11 q 204 28 278 -11 q 86 143 131 68 q 42 324 42 218 q 73 497 42 418 q 161 635 104 576 q 293 726 218 693 q 454 758 368 758 q 614 724 547 758 q 713 616 681 689 q 736 428 746 543 q 682 197 729 296 q 555 43 635 97 q 364 -11 475 -11 m 431 168 q 544 199 494 168 q 622 285 593 231 q 650 414 650 340 q 605 535 650 490 q 479 579 560 579 q 367 548 417 579 q 288 462 317 517 q 260 333 260 407 q 305 213 260 257 q 431 168 350 168 m 579 0 l 608 149 l 657 371 l 686 593 l 717 747 l 933 747 l 785 0 l 579 0 m 733 850 q 669 874 694 850 q 643 936 643 897 q 674 1013 643 983 q 746 1042 704 1042 q 810 1018 783 1042 q 836 956 836 994 q 805 879 836 908 q 733 850 774 850 m 451 850 q 388 874 414 850 q 361 936 361 897 q 392 1013 361 983 q 464 1042 424 1042 q 529 1018 503 1042 q 556 956 556 994 q 524 879 556 908 q 451 850 492 850 z "},"ǟ":{"ha":958,"x_min":42,"x_max":933,"o":"m 364 -11 q 204 28 278 -11 q 86 143 131 68 q 42 324 42 218 q 73 497 42 418 q 161 635 104 576 q 293 726 218 693 q 454 758 368 758 q 614 724 547 758 q 713 616 681 689 q 736 428 746 543 q 682 197 729 296 q 555 43 635 97 q 364 -11 475 -11 m 431 168 q 544 199 494 168 q 622 285 593 231 q 650 414 650 340 q 605 535 650 490 q 479 579 560 579 q 367 548 417 579 q 288 462 317 517 q 260 333 260 407 q 305 213 260 257 q 431 168 350 168 m 579 0 l 608 149 l 657 371 l 686 593 l 717 747 l 933 747 l 785 0 l 579 0 m 729 846 q 667 868 692 846 q 643 928 643 890 q 673 1001 643 972 q 740 1029 703 1029 q 803 1006 779 1029 q 826 944 826 983 q 797 873 826 900 q 729 846 768 846 m 457 846 q 395 868 419 846 q 371 928 371 890 q 401 1001 371 972 q 469 1029 431 1029 q 531 1006 507 1029 q 556 944 556 983 q 526 873 556 900 q 457 846 496 846 m 374 1104 l 396 1219 l 910 1219 l 888 1104 l 374 1104 z "},"ȧ":{"ha":958,"x_min":42,"x_max":933,"o":"m 364 -11 q 204 28 278 -11 q 86 143 131 68 q 42 324 42 218 q 73 497 42 418 q 161 635 104 576 q 293 726 218 693 q 454 758 368 758 q 614 724 547 758 q 713 616 681 689 q 736 428 746 543 q 682 197 729 296 q 555 43 635 97 q 364 -11 475 -11 m 431 168 q 544 199 494 168 q 622 285 593 231 q 650 414 650 340 q 605 535 650 490 q 479 579 560 579 q 367 548 417 579 q 288 462 317 517 q 260 333 260 407 q 305 213 260 257 q 431 168 350 168 m 579 0 l 608 149 l 657 371 l 686 593 l 717 747 l 933 747 l 785 0 l 579 0 m 596 850 q 516 879 546 850 q 486 953 486 908 q 523 1048 486 1011 q 613 1085 560 1085 q 691 1056 661 1085 q 721 981 721 1026 q 685 886 721 922 q 596 850 649 850 z "},"ạ":{"ha":958,"x_min":42,"x_max":933,"o":"m 364 -11 q 204 28 278 -11 q 86 143 131 68 q 42 324 42 218 q 73 497 42 418 q 161 635 104 576 q 293 726 218 693 q 454 758 368 758 q 614 724 547 758 q 713 616 681 689 q 736 428 746 543 q 682 197 729 296 q 555 43 635 97 q 364 -11 475 -11 m 431 168 q 544 199 494 168 q 622 285 593 231 q 650 414 650 340 q 605 535 650 490 q 479 579 560 579 q 367 548 417 579 q 288 462 317 517 q 260 333 260 407 q 305 213 260 257 q 431 168 350 168 m 579 0 l 608 149 l 657 371 l 686 593 l 717 747 l 933 747 l 785 0 l 579 0 m 346 -312 q 266 -283 296 -312 q 236 -210 236 -254 q 273 -115 236 -151 q 363 -78 310 -78 q 441 -107 411 -78 q 471 -182 471 -136 q 435 -276 471 -240 q 346 -312 399 -312 z "},"ǡ":{"ha":958,"x_min":42,"x_max":933,"o":"m 364 -11 q 204 28 278 -11 q 86 143 131 68 q 42 324 42 218 q 73 497 42 418 q 161 635 104 576 q 293 726 218 693 q 454 758 368 758 q 614 724 547 758 q 713 616 681 689 q 736 428 746 543 q 682 197 729 296 q 555 43 635 97 q 364 -11 475 -11 m 431 168 q 544 199 494 168 q 622 285 593 231 q 650 414 650 340 q 605 535 650 490 q 479 579 560 579 q 367 548 417 579 q 288 462 317 517 q 260 333 260 407 q 305 213 260 257 q 431 168 350 168 m 579 0 l 608 149 l 657 371 l 686 593 l 717 747 l 933 747 l 785 0 l 579 0 m 592 842 q 528 865 554 842 q 503 929 503 889 q 533 1004 503 975 q 606 1033 564 1033 q 669 1010 643 1033 q 696 944 696 986 q 665 871 696 900 q 592 842 633 842 m 372 1104 l 394 1219 l 908 1219 l 886 1104 l 372 1104 z "},"à":{"ha":958,"x_min":42,"x_max":933,"o":"m 364 -11 q 204 28 278 -11 q 86 143 131 68 q 42 324 42 218 q 73 497 42 418 q 161 635 104 576 q 293 726 218 693 q 454 758 368 758 q 614 724 547 758 q 713 616 681 689 q 736 428 746 543 q 682 197 729 296 q 555 43 635 97 q 364 -11 475 -11 m 431 168 q 544 199 494 168 q 622 285 593 231 q 650 414 650 340 q 605 535 650 490 q 479 579 560 579 q 367 548 417 579 q 288 462 317 517 q 260 333 260 407 q 305 213 260 257 q 431 168 350 168 m 579 0 l 608 149 l 657 371 l 686 593 l 717 747 l 933 747 l 785 0 l 579 0 m 538 843 l 325 1043 l 558 1043 l 706 843 l 538 843 z "},"ả":{"ha":958,"x_min":42,"x_max":933,"o":"m 364 -11 q 204 28 278 -11 q 86 143 131 68 q 42 324 42 218 q 73 497 42 418 q 161 635 104 576 q 293 726 218 693 q 454 758 368 758 q 614 724 547 758 q 713 616 681 689 q 736 428 746 543 q 682 197 729 296 q 555 43 635 97 q 364 -11 475 -11 m 431 168 q 544 199 494 168 q 622 285 593 231 q 650 414 650 340 q 605 535 650 490 q 479 579 560 579 q 367 548 417 579 q 288 462 317 517 q 260 333 260 407 q 305 213 260 257 q 431 168 350 168 m 579 0 l 608 149 l 657 371 l 686 593 l 717 747 l 933 747 l 785 0 l 579 0 m 588 814 l 531 888 q 596 931 578 908 q 614 981 614 954 q 599 1018 614 1004 q 556 1032 583 1032 q 472 1004 514 1032 l 435 1094 q 509 1128 468 1117 q 592 1140 550 1140 q 702 1105 661 1140 q 743 1010 743 1069 q 703 896 743 944 q 588 814 663 847 z "},"ȃ":{"ha":958,"x_min":42,"x_max":933,"o":"m 364 -11 q 204 28 278 -11 q 86 143 131 68 q 42 324 42 218 q 73 497 42 418 q 161 635 104 576 q 293 726 218 693 q 454 758 368 758 q 614 724 547 758 q 713 616 681 689 q 736 428 746 543 q 682 197 729 296 q 555 43 635 97 q 364 -11 475 -11 m 431 168 q 544 199 494 168 q 622 285 593 231 q 650 414 650 340 q 605 535 650 490 q 479 579 560 579 q 367 548 417 579 q 288 462 317 517 q 260 333 260 407 q 305 213 260 257 q 431 168 350 168 m 579 0 l 608 149 l 657 371 l 686 593 l 717 747 l 933 747 l 785 0 l 579 0 m 322 843 q 419 999 342 942 q 606 1056 496 1056 q 729 1029 676 1056 q 811 956 782 1003 q 835 843 840 908 l 701 843 q 674 916 704 889 q 593 943 644 943 q 507 916 542 943 q 463 843 472 889 l 322 843 z "},"ɑ":{"ha":958,"x_min":42,"x_max":933,"o":"m 364 -11 q 204 28 278 -11 q 86 143 131 68 q 42 324 42 218 q 73 497 42 418 q 161 635 104 576 q 293 726 218 693 q 454 758 368 758 q 614 724 547 758 q 713 616 681 689 q 736 428 746 543 q 682 197 729 296 q 555 43 635 97 q 364 -11 475 -11 m 431 168 q 544 199 494 168 q 622 285 593 231 q 650 414 650 340 q 605 535 650 490 q 479 579 560 579 q 367 548 417 579 q 288 462 317 517 q 260 333 260 407 q 305 213 260 257 q 431 168 350 168 m 579 0 l 608 149 l 657 371 l 686 593 l 717 747 l 933 747 l 785 0 l 579 0 z "},"ā":{"ha":958,"x_min":42,"x_max":933,"o":"m 364 -11 q 204 28 278 -11 q 86 143 131 68 q 42 324 42 218 q 73 497 42 418 q 161 635 104 576 q 293 726 218 693 q 454 758 368 758 q 614 724 547 758 q 713 616 681 689 q 736 428 746 543 q 682 197 729 296 q 555 43 635 97 q 364 -11 475 -11 m 431 168 q 544 199 494 168 q 622 285 593 231 q 650 414 650 340 q 605 535 650 490 q 479 579 560 579 q 367 548 417 579 q 288 462 317 517 q 260 333 260 407 q 305 213 260 257 q 431 168 350 168 m 579 0 l 608 149 l 657 371 l 686 593 l 717 747 l 933 747 l 785 0 l 579 0 m 331 882 l 353 1004 l 867 1004 l 843 882 l 331 882 z "},"ą":{"ha":958,"x_min":42,"x_max":933,"o":"m 364 -11 q 204 28 278 -11 q 86 143 131 68 q 42 324 42 218 q 73 497 42 418 q 161 635 104 576 q 293 726 218 693 q 454 758 368 758 q 614 724 547 758 q 713 616 681 689 q 736 428 746 543 q 682 197 729 296 q 555 43 635 97 q 364 -11 475 -11 m 431 168 q 544 199 494 168 q 622 285 593 231 q 650 414 650 340 q 605 535 650 490 q 479 579 560 579 q 367 548 417 579 q 288 462 317 517 q 260 333 260 407 q 305 213 260 257 q 431 168 350 168 m 579 0 l 608 149 l 657 371 l 686 593 l 717 747 l 933 747 l 785 0 l 579 0 m 624 -322 q 497 -286 546 -322 q 449 -185 449 -250 q 481 -85 449 -131 q 570 -4 513 -40 q 706 60 628 32 l 785 0 q 673 -49 715 -24 q 611 -101 631 -75 q 592 -154 592 -126 q 610 -197 592 -182 q 660 -212 629 -212 q 706 -206 683 -212 q 747 -192 729 -200 l 764 -290 q 701 -313 736 -304 q 624 -322 665 -322 z "},"ẚ":{"ha":958,"x_min":42,"x_max":933,"o":"m 364 -11 q 204 28 278 -11 q 86 143 131 68 q 42 324 42 218 q 73 497 42 418 q 161 635 104 576 q 293 726 218 693 q 454 758 368 758 q 614 724 547 758 q 713 616 681 689 q 736 428 746 543 q 682 197 729 296 q 555 43 635 97 q 364 -11 475 -11 m 431 168 q 544 199 494 168 q 622 285 593 231 q 650 414 650 340 q 605 535 650 490 q 479 579 560 579 q 367 548 417 579 q 288 462 317 517 q 260 333 260 407 q 305 213 260 257 q 431 168 350 168 m 579 0 l 608 149 l 657 371 l 686 593 l 717 747 l 933 747 l 785 0 l 579 0 m 496 911 q 504 910 500 910 q 511 910 508 910 q 571 933 547 910 q 594 994 594 957 q 576 1047 594 1025 q 529 1075 558 1068 l 544 1158 q 646 1101 606 1147 q 686 994 686 1056 q 663 909 686 947 q 601 848 640 871 q 511 825 563 825 q 496 826 503 825 q 479 828 489 826 l 496 911 z "},"å":{"ha":958,"x_min":42,"x_max":933,"o":"m 364 -11 q 204 28 278 -11 q 86 143 131 68 q 42 324 42 218 q 73 497 42 418 q 161 635 104 576 q 293 726 218 693 q 454 758 368 758 q 614 724 547 758 q 713 616 681 689 q 736 428 746 543 q 682 197 729 296 q 555 43 635 97 q 364 -11 475 -11 m 431 168 q 544 199 494 168 q 622 285 593 231 q 650 414 650 340 q 605 535 650 490 q 479 579 560 579 q 367 548 417 579 q 288 462 317 517 q 260 333 260 407 q 305 213 260 257 q 431 168 350 168 m 579 0 l 608 149 l 657 371 l 686 593 l 717 747 l 933 747 l 785 0 l 579 0 m 608 822 q 521 845 560 822 q 459 906 482 868 q 436 990 436 943 q 459 1074 436 1036 q 521 1135 482 1113 q 608 1158 560 1158 q 696 1135 657 1158 q 758 1074 735 1113 q 781 990 781 1036 q 758 906 781 943 q 696 845 735 868 q 608 822 657 822 m 608 906 q 668 929 644 906 q 692 989 692 953 q 668 1051 692 1026 q 608 1075 644 1075 q 549 1051 574 1075 q 525 990 525 1028 q 549 929 525 953 q 608 906 572 906 z "},"ǻ":{"ha":958,"x_min":42,"x_max":933,"o":"m 364 -11 q 204 28 278 -11 q 86 143 131 68 q 42 324 42 218 q 73 497 42 418 q 161 635 104 576 q 293 726 218 693 q 454 758 368 758 q 614 724 547 758 q 713 616 681 689 q 736 428 746 543 q 682 197 729 296 q 555 43 635 97 q 364 -11 475 -11 m 431 168 q 544 199 494 168 q 622 285 593 231 q 650 414 650 340 q 605 535 650 490 q 479 579 560 579 q 367 548 417 579 q 288 462 317 517 q 260 333 260 407 q 305 213 260 257 q 431 168 350 168 m 579 0 l 608 149 l 657 371 l 686 593 l 717 747 l 933 747 l 785 0 l 579 0 m 607 822 q 519 845 558 822 q 458 906 481 868 q 435 990 435 943 q 458 1074 435 1036 q 520 1135 481 1113 q 607 1158 560 1158 q 696 1135 657 1158 q 758 1074 735 1113 q 781 990 781 1036 q 758 906 781 943 q 696 845 735 868 q 607 822 657 822 m 607 906 q 668 929 644 906 q 692 989 692 953 q 668 1051 692 1026 q 607 1075 644 1075 q 548 1051 572 1075 q 524 990 524 1028 q 547 929 524 953 q 607 906 571 906 m 736 1063 l 633 1096 l 800 1269 l 907 1186 l 736 1063 z "},"ḁ":{"ha":958,"x_min":42,"x_max":933,"o":"m 364 -11 q 204 28 278 -11 q 86 143 131 68 q 42 324 42 218 q 73 497 42 418 q 161 635 104 576 q 293 726 218 693 q 454 758 368 758 q 614 724 547 758 q 713 616 681 689 q 736 428 746 543 q 682 197 729 296 q 555 43 635 97 q 364 -11 475 -11 m 431 168 q 544 199 494 168 q 622 285 593 231 q 650 414 650 340 q 605 535 650 490 q 479 579 560 579 q 367 548 417 579 q 288 462 317 517 q 260 333 260 407 q 305 213 260 257 q 431 168 350 168 m 579 0 l 608 149 l 657 371 l 686 593 l 717 747 l 933 747 l 785 0 l 579 0 m 351 -381 q 264 -358 303 -381 q 202 -297 225 -335 q 179 -212 179 -260 q 202 -128 179 -167 q 264 -67 225 -90 q 351 -44 303 -44 q 439 -67 400 -44 q 501 -128 478 -90 q 524 -212 524 -167 q 501 -297 524 -260 q 439 -358 478 -335 q 351 -381 400 -381 m 351 -297 q 411 -274 388 -297 q 435 -214 435 -250 q 411 -152 435 -176 q 351 -128 388 -128 q 292 -151 317 -128 q 268 -212 268 -175 q 292 -274 268 -250 q 351 -297 315 -297 z "},"ⱥ":{"ha":958,"x_min":42,"x_max":933,"o":"m 364 -11 q 204 28 278 -11 q 86 143 131 68 q 42 324 42 218 q 73 497 42 418 q 161 635 104 576 q 293 726 218 693 q 454 758 368 758 q 614 724 547 758 q 713 616 681 689 q 736 428 746 543 q 682 197 729 296 q 555 43 635 97 q 364 -11 475 -11 m 431 168 q 544 199 494 168 q 622 285 593 231 q 650 414 650 340 q 605 535 650 490 q 479 579 560 579 q 367 548 417 579 q 288 462 317 517 q 260 333 260 407 q 305 213 260 257 q 431 168 350 168 m 579 0 l 608 149 l 657 371 l 686 593 l 717 747 l 933 747 l 785 0 l 579 0 m 106 -106 l 693 854 l 801 854 l 213 -106 l 106 -106 z "}}}
